<?xml version="1.0" standalone="no"?>
<!DOCTYPE svg PUBLIC "-//W3C//DTD SVG 20010904//EN"
 "http://www.w3.org/TR/2001/REC-SVG-20010904/DTD/svg10.dtd">
<svg version="1.0" xmlns="http://www.w3.org/2000/svg"
 width="309.000000pt" height="333.000000pt" viewBox="0 0 309.000000 333.000000"
 preserveAspectRatio="xMidYMid meet">

<g transform="translate(0.000000,333.000000) scale(0.100000,-0.100000)"
fill="#000000" stroke="none">
<path d="M1624 3250 c-139 -25 -259 -89 -369 -197 -41 -40 -83 -73 -93 -73
-11 0 -44 11 -74 25 -81 37 -191 51 -285 37 -263 -40 -447 -270 -430 -537 8
-129 47 -216 146 -325 22 -25 41 -52 41 -61 0 -9 -15 -49 -34 -90 -77 -168
-75 -308 4 -474 100 -209 335 -334 553 -296 149 27 137 29 184 -31 55 -72 136
-133 225 -170 86 -36 226 -48 319 -29 204 42 379 220 420 425 7 37 18 70 23
75 6 5 34 16 62 25 125 41 232 129 290 239 48 92 64 154 64 258 0 164 -69 308
-195 406 l-41 32 -11 113 c-31 306 -195 524 -466 620 -91 33 -239 45 -333 28z
m266 -207 c110 -40 200 -113 273 -220 87 -130 106 -324 46 -477 -26 -65 -94
-159 -153 -213 -38 -34 -46 -48 -46 -77 0 -39 36 -76 75 -76 48 0 172 119 241
231 34 55 40 60 68 57 27 -3 35 -11 58 -58 57 -116 60 -219 8 -328 -54 -116
-155 -190 -286 -213 -38 -6 -76 -18 -85 -25 -10 -9 -19 -39 -23 -76 -13 -129
-96 -247 -214 -305 -51 -25 -68 -28 -157 -28 -91 0 -105 3 -159 30 -112 56
-184 155 -208 282 -13 70 -1 138 42 233 25 57 27 67 16 95 -7 17 -24 34 -39
39 -44 16 -78 -3 -115 -64 -56 -95 -74 -155 -79 -270 -7 -136 -10 -140 -119
-140 -184 0 -321 103 -375 282 -26 83 -22 153 11 241 30 81 47 89 138 70 40
-8 84 -12 98 -9 34 9 64 41 64 69 0 42 -23 59 -96 73 -137 25 -218 80 -273
183 -39 75 -55 159 -41 230 22 117 107 228 207 273 109 47 251 32 356 -39 76
-51 97 -46 157 37 28 38 68 82 88 98 50 40 147 90 208 107 72 21 243 14 314
-12z"/>
<path d="M1086 803 c-3 -10 -8 -112 -12 -226 -6 -178 -9 -209 -23 -217 -31
-16 -48 6 -55 71 -9 77 -20 107 -54 142 -52 55 -110 72 -184 52 -148 -38 -185
-228 -62 -322 52 -39 145 -45 202 -13 l40 23 28 -22 c34 -27 89 -27 129 -1 29
19 29 19 61 0 17 -11 46 -20 64 -20 18 0 47 9 64 20 32 19 32 19 61 0 37 -24
88 -25 126 -3 27 16 31 16 58 0 41 -24 122 -22 172 4 38 19 42 19 66 4 16 -11
40 -15 66 -13 l42 3 10 -94 c10 -96 24 -121 57 -108 16 6 28 68 28 143 0 28 5
44 13 45 6 0 39 0 72 0 98 -2 164 49 185 144 21 92 -43 193 -134 213 -126 27
-226 -57 -226 -188 0 -58 -11 -80 -41 -80 -20 0 -26 14 -35 82 -11 83 -48 144
-108 175 -38 20 -124 20 -163 0 -66 -35 -110 -116 -100 -189 3 -22 3 -47 0
-54 -6 -17 -37 -18 -51 -1 -5 6 -13 104 -17 216 -4 112 -9 210 -12 218 -6 17
-47 17 -60 1 -6 -7 -13 -105 -17 -218 -6 -191 -8 -206 -27 -222 -12 -10 -25
-18 -29 -18 -4 0 -17 8 -29 18 -19 16 -21 31 -27 222 -4 113 -11 211 -17 218
-14 18 -55 15 -61 -5z m-208 -288 c24 -28 29 -82 12 -116 -12 -22 -61 -49 -89
-49 -11 0 -36 14 -56 31 -28 25 -35 38 -35 68 1 89 110 132 168 66z m809 -2
c40 -49 25 -118 -32 -149 -39 -21 -76 -14 -111 21 -43 43 -26 132 30 156 36
15 89 2 113 -28z m422 23 c54 -28 66 -97 26 -144 -49 -59 -132 -46 -161 24
-18 44 -10 77 28 109 33 28 66 32 107 11z"/>
<path d="M2416 629 c-84 -19 -136 -88 -136 -179 0 -57 10 -81 49 -123 38 -42
73 -57 132 -57 107 0 183 78 182 188 -1 115 -110 197 -227 171z m110 -113 c43
-43 45 -83 7 -126 -37 -40 -78 -47 -121 -20 -61 38 -66 108 -10 155 42 36 82
33 124 -9z"/>
<path d="M2823 630 c-44 -10 -76 -33 -110 -77 l-28 -37 2 -203 c1 -215 6 -237
47 -231 24 3 33 34 35 120 0 31 6 60 11 63 6 4 43 7 84 8 63 2 77 6 110 31
131 99 78 304 -84 329 -19 3 -50 1 -67 -3z m87 -95 c36 -19 50 -43 50 -90 0
-63 -71 -110 -130 -85 -95 39 -70 186 33 189 10 1 31 -6 47 -14z"/>
<path d="M40 604 c-17 -43 -12 -211 7 -251 36 -76 136 -107 221 -69 34 16 47
17 65 7 12 -6 38 -16 56 -21 68 -19 158 28 187 97 15 34 17 136 6 213 -6 40
-10 45 -35 48 -34 4 -34 2 -45 -127 -8 -90 -13 -107 -32 -123 -28 -23 -62 -23
-89 0 -16 13 -24 38 -33 107 -12 86 -14 90 -38 90 -27 0 -35 -19 -45 -118 -10
-92 -66 -127 -119 -74 -21 21 -25 37 -31 123 -8 122 -9 124 -40 124 -18 0 -28
-7 -35 -26z"/>
</g>
</svg>
