<?xml version="1.0" encoding="UTF-8"?>
<svg xmlns="http://www.w3.org/2000/svg" xmlns:xlink="http://www.w3.org/1999/xlink" width="48px" height="70px" viewBox="0 0 48 69" version="1.1">
<g id="surface1">
<path style=" stroke:none;fill-rule:nonzero;fill:rgb(0%,0%,0%);fill-opacity:1;" d="M 27.984375 2.976562 C 26.902344 -0.902344 21.242188 -1.082031 20.015625 2.976562 C 13.636719 24.238281 0 30.015625 0 45 C 0 58.265625 10.734375 69 24 69 C 37.265625 69 48 58.265625 48 45 C 48 29.941406 34.390625 24.335938 27.984375 2.976562 Z M 24 60.375 C 15.578125 60.375 8.726562 53.601562 8.726562 45.28125 C 8.726562 44.089844 9.703125 43.125 10.910156 43.125 C 12.113281 43.125 13.089844 44.089844 13.089844 45.28125 C 13.089844 51.226562 17.984375 56.0625 24 56.0625 C 25.207031 56.0625 26.183594 57.027344 26.183594 58.21875 C 26.183594 59.410156 25.207031 60.375 24 60.375 Z M 24 60.375 "/>
</g>
</svg>
