<?xml version="1.0" encoding="UTF-8"?>
<svg xmlns="http://www.w3.org/2000/svg" xmlns:xlink="http://www.w3.org/1999/xlink" width="70px" height="70px" viewBox="0 0 70 70" version="1.1">
<g id="surface1">
<path style=" stroke:none;fill-rule:nonzero;fill:rgb(0%,0%,0%);fill-opacity:1;" d="M 18.390625 0.191406 C 17.28125 0.476562 16.421875 0.957031 15.492188 1.820312 C 14.34375 2.898438 13.710938 4.15625 13.535156 5.769531 C 13.453125 6.425781 13.398438 14.015625 13.398438 24.023438 L 13.398438 41.152344 L 12.34375 41.152344 C 11.046875 41.152344 10.15625 41.523438 9.40625 42.355469 C 8.722656 43.109375 8.449219 43.789062 8.4375 44.773438 C 8.4375 45.609375 8.789062 46.675781 9.257812 47.195312 C 9.460938 47.429688 9.460938 47.453125 9.257812 47.6875 C 8.804688 48.179688 8.4375 49.273438 8.4375 50.066406 C 8.4375 50.832031 8.421875 50.859375 8.054688 50.859375 C 7.847656 50.859375 7.257812 50.984375 6.753906 51.148438 C 3.582031 52.117188 1.230469 54.578125 0.410156 57.777344 C 0.0820312 59.0625 0.0546875 61.070312 0.355469 62.34375 C 1.148438 65.734375 4.074219 68.539062 7.546875 69.234375 C 8.449219 69.425781 10.078125 69.453125 18.566406 69.453125 C 29.722656 69.453125 29.40625 69.480469 30.515625 68.496094 C 31.953125 67.238281 32.226562 65.09375 31.117188 63.601562 L 30.789062 63.148438 L 31.253906 62.382812 C 31.515625 61.960938 31.71875 61.496094 31.71875 61.375 C 31.71875 60.828125 31.867188 60.703125 32.539062 60.703125 L 33.179688 60.703125 L 33.265625 61.976562 C 33.453125 65.007812 35.191406 67.664062 37.882812 69.015625 C 39.851562 70.015625 39.632812 70 51.625 70 C 61.8125 70 62.34375 69.984375 63.355469 69.726562 C 66.445312 68.945312 68.890625 66.515625 69.65625 63.507812 C 69.835938 62.808594 69.863281 60.484375 69.863281 46.445312 C 69.863281 28.5625 69.90625 29.460938 69.03125 27.699219 C 67.949219 25.523438 66.226562 24.035156 63.929688 23.28125 C 62.890625 22.953125 62.617188 22.929688 59.582031 22.859375 L 56.328125 22.804688 L 56.328125 17.582031 C 56.328125 10.460938 56.328125 10.472656 53.484375 7.453125 C 52.527344 6.425781 50.898438 4.6875 49.859375 3.582031 C 47.878906 1.460938 47.015625 0.78125 45.800781 0.34375 C 45.078125 0.0820312 44.625 0.0703125 32.0625 0.0390625 C 21.984375 0.0273438 18.921875 0.0546875 18.390625 0.191406 Z M 44.980469 6.753906 L 44.980469 11.335938 L 45.335938 11.609375 C 45.691406 11.882812 45.855469 11.894531 49.835938 11.894531 L 53.976562 11.894531 L 54.058594 12.320312 C 54.101562 12.550781 54.140625 15.011719 54.140625 17.789062 L 54.140625 22.832031 L 47.757812 22.832031 C 40.429688 22.84375 39.894531 22.898438 38.035156 23.789062 C 37.09375 24.242188 36.65625 24.554688 35.765625 25.46875 C 34.492188 26.757812 33.890625 27.765625 33.496094 29.339844 C 33.234375 30.351562 33.222656 30.898438 33.222656 44.460938 L 33.222656 58.515625 L 32.210938 58.515625 C 31.308594 58.515625 31.1875 58.476562 30.992188 58.203125 C 30.816406 57.929688 30.828125 57.859375 31.132812 57.421875 C 31.609375 56.710938 31.898438 55.601562 31.789062 54.851562 C 31.691406 54.222656 31.296875 53.292969 30.953125 52.910156 C 30.804688 52.734375 30.84375 52.609375 31.171875 52.117188 C 31.992188 50.886719 31.992188 49.148438 31.15625 48 L 30.761719 47.441406 L 31.15625 46.882812 C 32.523438 44.992188 31.539062 42.082031 29.273438 41.316406 C 28.945312 41.195312 26.851562 41.152344 22.257812 41.152344 L 15.722656 41.152344 L 15.75 23.132812 L 15.789062 5.125 L 16.105469 4.539062 C 16.695312 3.445312 17.773438 2.597656 18.9375 2.3125 C 19.167969 2.257812 25.117188 2.214844 32.171875 2.203125 L 44.980469 2.1875 Z M 50.011719 6.917969 C 51.378906 8.367188 52.5 9.585938 52.5 9.625 C 52.5 9.664062 51.296875 9.707031 49.835938 9.707031 L 47.167969 9.707031 L 47.167969 6.808594 C 47.167969 4.375 47.195312 3.9375 47.34375 4.101562 C 47.453125 4.210938 48.644531 5.484375 50.011719 6.917969 Z M 62.195312 25.019531 C 64.710938 25.347656 66.882812 27.207031 67.59375 29.65625 C 67.785156 30.324219 67.8125 32.171875 67.8125 46.429688 C 67.8125 62.03125 67.796875 62.480469 67.539062 63.328125 C 66.84375 65.609375 64.984375 67.292969 62.644531 67.796875 C 61.703125 67.992188 41.65625 68.015625 40.59375 67.8125 C 38.417969 67.414062 36.4375 65.71875 35.628906 63.601562 C 35.34375 62.820312 35.34375 62.808594 35.300781 46.828125 C 35.273438 36.023438 35.3125 30.609375 35.410156 30.132812 C 35.957031 27.480469 38.15625 25.429688 40.878906 25.03125 C 41.945312 24.867188 60.960938 24.867188 62.195312 25.019531 Z M 28.945312 43.613281 C 29.84375 44.160156 29.789062 45.472656 28.847656 46.117188 C 28.546875 46.335938 27.765625 46.347656 20.054688 46.347656 L 11.59375 46.347656 L 11.128906 45.882812 C 10.746094 45.5 10.664062 45.320312 10.664062 44.816406 C 10.664062 44.214844 10.910156 43.777344 11.414062 43.503906 C 11.609375 43.394531 14.246094 43.351562 20.097656 43.339844 C 28.191406 43.339844 28.519531 43.351562 28.945312 43.613281 Z M 28.617188 48.65625 C 29.4375 48.972656 29.804688 49.847656 29.476562 50.65625 C 29.09375 51.554688 29.109375 51.554688 22.601562 51.5 C 16.914062 51.460938 16.71875 51.445312 15.789062 51.148438 C 15.011719 50.886719 14.4375 50.820312 12.757812 50.765625 L 10.664062 50.695312 L 10.664062 50.109375 C 10.664062 49.476562 11.03125 48.875 11.539062 48.671875 C 11.9375 48.507812 28.191406 48.507812 28.617188 48.65625 Z M 15.585938 53.210938 C 20.699219 55.070312 22.121094 61.359375 18.304688 65.242188 C 14.273438 69.359375 7.273438 67.238281 6.070312 61.523438 C 5.265625 57.710938 7.683594 53.976562 11.578125 52.976562 C 12.6875 52.691406 14.453125 52.800781 15.585938 53.210938 Z M 5.960938 54.210938 C 5.617188 54.617188 5.277344 55.085938 5.195312 55.234375 C 5.085938 55.453125 4.90625 55.507812 4.414062 55.507812 L 3.773438 55.507812 L 4.375 54.878906 C 4.921875 54.320312 6.179688 53.457031 6.46875 53.457031 C 6.523438 53.457031 6.289062 53.796875 5.960938 54.210938 Z M 28.984375 54.070312 C 29.164062 54.222656 29.382812 54.550781 29.492188 54.796875 C 29.734375 55.371094 29.546875 56.054688 29.023438 56.464844 C 28.695312 56.726562 28.476562 56.738281 25.292969 56.738281 L 21.929688 56.738281 L 21.617188 56.054688 C 21.453125 55.671875 21.027344 55 20.699219 54.550781 L 20.085938 53.71875 L 24.390625 53.757812 C 28.464844 53.796875 28.695312 53.8125 28.984375 54.070312 Z M 4.03125 58.269531 C 3.976562 58.664062 3.910156 59.035156 3.867188 59.089844 C 3.84375 59.15625 3.445312 59.199219 2.992188 59.199219 L 2.171875 59.199219 L 2.269531 58.679688 C 2.460938 57.613281 2.515625 57.558594 3.363281 57.558594 L 4.128906 57.558594 Z M 28.945312 59.28125 C 29.148438 59.445312 29.40625 59.789062 29.515625 60.0625 C 29.679688 60.5 29.667969 60.609375 29.449219 61.070312 C 29 61.988281 28.65625 62.070312 25.304688 62.070312 L 22.382812 62.070312 L 22.476562 61.34375 C 22.515625 60.960938 22.558594 60.25 22.558594 59.773438 L 22.558594 58.914062 L 25.554688 58.953125 C 28.355469 58.992188 28.574219 59.007812 28.945312 59.28125 Z M 3.964844 61.660156 C 4.019531 61.851562 4.101562 62.234375 4.15625 62.507812 L 4.25 63.027344 L 3.484375 63.027344 C 2.789062 63.027344 2.71875 63 2.585938 62.644531 C 2.5 62.4375 2.40625 62.042969 2.367188 61.757812 L 2.28125 61.234375 L 3.078125 61.277344 C 3.800781 61.320312 3.882812 61.34375 3.964844 61.660156 Z M 28.96875 64.476562 C 29.394531 64.777344 29.679688 65.5 29.585938 66.023438 C 29.546875 66.242188 29.328125 66.59375 29.09375 66.8125 L 28.695312 67.195312 L 19.210938 67.28125 L 19.921875 66.554688 C 20.304688 66.15625 20.835938 65.476562 21.109375 65.039062 L 21.617188 64.257812 L 25.128906 64.257812 C 28.164062 64.257812 28.695312 64.285156 28.96875 64.476562 Z M 5.484375 65.367188 C 5.5625 65.53125 5.890625 65.9375 6.207031 66.28125 L 6.765625 66.898438 L 5.945312 66.460938 C 5.195312 66.0625 4.238281 65.324219 4.238281 65.148438 C 4.238281 65.105469 4.484375 65.078125 4.785156 65.078125 C 5.195312 65.078125 5.359375 65.148438 5.484375 65.367188 Z M 5.484375 65.367188 "/>
<path style=" stroke:none;fill-rule:nonzero;fill:rgb(0%,0%,0%);fill-opacity:1;" d="M 21.671875 14.421875 C 21.476562 14.601562 21.328125 14.914062 21.328125 15.109375 C 21.328125 15.296875 21.476562 15.613281 21.671875 15.789062 L 22 16.132812 L 41.03125 16.132812 L 41.359375 15.789062 C 41.546875 15.613281 41.699219 15.296875 41.699219 15.109375 C 41.699219 14.914062 41.546875 14.601562 41.359375 14.421875 L 41.03125 14.082031 L 22 14.082031 Z M 21.671875 14.421875 "/>
<path style=" stroke:none;fill-rule:nonzero;fill:rgb(0%,0%,0%);fill-opacity:1;" d="M 44.09375 14.421875 C 43.898438 14.601562 43.75 14.914062 43.75 15.109375 C 43.75 15.296875 43.898438 15.613281 44.09375 15.789062 C 44.40625 16.117188 44.5 16.132812 46.074219 16.132812 C 47.648438 16.132812 47.742188 16.117188 48.054688 15.789062 C 48.25 15.613281 48.398438 15.296875 48.398438 15.109375 C 48.398438 14.914062 48.25 14.601562 48.054688 14.421875 C 47.742188 14.09375 47.648438 14.082031 46.074219 14.082031 C 44.5 14.082031 44.40625 14.09375 44.09375 14.421875 Z M 44.09375 14.421875 "/>
<path style=" stroke:none;fill-rule:nonzero;fill:rgb(0%,0%,0%);fill-opacity:1;" d="M 22.011719 19.320312 C 21.835938 19.414062 21.585938 19.660156 21.464844 19.867188 C 21.289062 20.195312 21.289062 20.273438 21.464844 20.601562 C 21.804688 21.203125 22.203125 21.328125 23.96875 21.328125 C 25.8125 21.328125 26.453125 21.148438 26.605469 20.589844 C 26.757812 19.988281 26.550781 19.550781 26.046875 19.332031 C 25.445312 19.085938 22.503906 19.070312 22.011719 19.320312 Z M 22.011719 19.320312 "/>
<path style=" stroke:none;fill-rule:nonzero;fill:rgb(0%,0%,0%);fill-opacity:1;" d="M 29.570312 19.234375 C 29.203125 19.304688 28.710938 19.890625 28.710938 20.25 C 28.710938 20.382812 28.859375 20.671875 29.039062 20.875 L 29.367188 21.257812 L 38.335938 21.300781 C 45.9375 21.328125 47.375 21.300781 47.769531 21.136719 C 48.289062 20.917969 48.492188 20.480469 48.34375 19.878906 C 48.152344 19.140625 48.097656 19.140625 38.59375 19.15625 C 33.796875 19.167969 29.734375 19.210938 29.570312 19.234375 Z M 29.570312 19.234375 "/>
<path style=" stroke:none;fill-rule:nonzero;fill:rgb(0%,0%,0%);fill-opacity:1;" d="M 25.742188 22.996094 C 25.402344 23.160156 25.183594 23.640625 25.128906 24.335938 C 25.085938 24.746094 25.019531 24.828125 24.609375 24.9375 C 23.882812 25.140625 22.914062 26.195312 22.722656 26.960938 C 22.296875 28.617188 22.75 30.007812 23.980469 30.84375 C 24.242188 31.023438 24.921875 31.351562 25.523438 31.582031 C 27.699219 32.457031 28.164062 32.894531 28.164062 34.179688 C 28.164062 35.53125 27.507812 36.132812 26.046875 36.132812 C 25.117188 36.132812 24.582031 35.914062 23.816406 35.191406 C 23.226562 34.632812 23.0625 34.617188 22.625 35.070312 C 21.890625 35.792969 22.394531 36.789062 23.859375 37.476562 C 24.308594 37.695312 24.773438 37.871094 24.898438 37.871094 C 25.0625 37.871094 25.140625 38.046875 25.195312 38.515625 C 25.359375 40.03125 27 40.046875 27.164062 38.527344 C 27.234375 37.9375 27.273438 37.898438 27.78125 37.75 C 28.453125 37.542969 29.3125 36.777344 29.710938 36.039062 C 29.953125 35.574219 30.007812 35.257812 30.007812 34.109375 C 30.007812 32.960938 29.953125 32.648438 29.710938 32.195312 C 29.132812 31.132812 28.421875 30.640625 26.289062 29.820312 C 24.921875 29.285156 24.472656 28.835938 24.472656 27.972656 C 24.472656 26.507812 26.140625 25.949219 28.109375 26.742188 C 28.929688 27.070312 29.023438 27.085938 29.328125 26.878906 C 29.710938 26.632812 29.859375 26.222656 29.75 25.757812 C 29.65625 25.375 28.890625 24.953125 27.890625 24.734375 C 27.261719 24.59375 27.207031 24.554688 27.207031 24.199219 C 27.207031 23.640625 26.960938 23.160156 26.5625 22.984375 C 26.179688 22.804688 26.140625 22.804688 25.742188 22.996094 Z M 25.742188 22.996094 "/>
<path style=" stroke:none;fill-rule:nonzero;fill:rgb(0%,0%,0%);fill-opacity:1;" d="M 40.398438 27.601562 C 39.703125 27.917969 38.789062 28.945312 38.582031 29.640625 C 38.351562 30.390625 38.375 35.039062 38.609375 35.695312 C 38.882812 36.460938 39.445312 37.105469 40.222656 37.542969 L 40.945312 37.9375 L 43.515625 37.9375 C 46.0625 37.9375 46.101562 37.9375 46.359375 37.609375 C 46.703125 37.203125 46.6875 36.765625 46.347656 36.328125 C 46.074219 35.96875 46.0625 35.96875 43.667969 35.929688 L 41.261719 35.890625 L 40.867188 35.4375 L 40.46875 35 L 40.46875 30.1875 L 41.261719 29.394531 L 61.824219 29.394531 L 62.617188 30.1875 L 62.617188 32.632812 C 62.617188 34.929688 62.601562 35.109375 62.328125 35.398438 C 62.179688 35.5625 61.890625 35.75 61.703125 35.835938 C 61.507812 35.902344 58.828125 35.957031 55.507812 35.957031 C 50.023438 35.957031 49.640625 35.96875 49.34375 36.203125 C 48.890625 36.570312 48.929688 37.269531 49.410156 37.695312 L 49.78125 38.007812 L 55.699219 38.007812 C 62.21875 38.007812 62.507812 37.980469 63.476562 37.171875 C 63.765625 36.941406 64.164062 36.4375 64.367188 36.039062 C 64.734375 35.355469 64.734375 35.300781 64.734375 32.742188 C 64.734375 30.953125 64.679688 29.996094 64.558594 29.640625 C 64.257812 28.792969 63.640625 28.082031 62.875 27.699219 L 62.152344 27.34375 L 51.554688 27.34375 C 41.5625 27.34375 40.921875 27.371094 40.398438 27.601562 Z M 40.398438 27.601562 "/>
<path style=" stroke:none;fill-rule:nonzero;fill:rgb(0%,0%,0%);fill-opacity:1;" d="M 39.785156 39.9375 C 39.59375 40.015625 39.292969 40.210938 39.128906 40.375 C 38.484375 40.976562 38.417969 41.273438 38.417969 43.710938 C 38.417969 46.292969 38.527344 46.6875 39.375 47.265625 C 39.796875 47.5625 39.960938 47.578125 42.234375 47.578125 C 44.992188 47.578125 45.363281 47.46875 45.910156 46.539062 C 46.195312 46.03125 46.210938 45.882812 46.183594 43.585938 C 46.140625 40.945312 46.101562 40.8125 45.199219 40.140625 C 44.859375 39.882812 44.609375 39.851562 42.476562 39.828125 C 41.097656 39.8125 39.992188 39.851562 39.785156 39.9375 Z M 44.160156 43.679688 L 44.160156 45.527344 L 40.46875 45.527344 L 40.46875 41.835938 L 44.160156 41.835938 Z M 44.160156 43.679688 "/>
<path style=" stroke:none;fill-rule:nonzero;fill:rgb(0%,0%,0%);fill-opacity:1;" d="M 48.851562 40.070312 C 48.523438 40.234375 48.140625 40.578125 47.960938 40.851562 C 47.660156 41.328125 47.648438 41.507812 47.648438 43.679688 C 47.648438 46.292969 47.757812 46.648438 48.671875 47.265625 C 49.09375 47.5625 49.257812 47.578125 51.542969 47.578125 C 53.828125 47.578125 53.992188 47.5625 54.414062 47.265625 C 55.371094 46.621094 55.4375 46.429688 55.480469 43.996094 C 55.535156 41.4375 55.398438 40.851562 54.578125 40.222656 C 54.101562 39.851562 54.070312 39.851562 51.761719 39.8125 C 49.601562 39.785156 49.382812 39.796875 48.851562 40.070312 Z M 53.429688 43.710938 L 53.46875 45.527344 L 49.765625 45.527344 L 49.765625 41.820312 L 51.585938 41.863281 L 53.390625 41.90625 Z M 53.429688 43.710938 "/>
<path style=" stroke:none;fill-rule:nonzero;fill:rgb(0%,0%,0%);fill-opacity:1;" d="M 58.3125 39.976562 C 57.804688 40.195312 57.351562 40.6875 57.164062 41.195312 C 57.078125 41.414062 57.011719 42.53125 57.011719 43.710938 C 57.011719 45.582031 57.054688 45.921875 57.285156 46.402344 C 57.804688 47.453125 57.984375 47.507812 60.839844 47.550781 C 63.179688 47.578125 63.398438 47.5625 63.820312 47.304688 C 64.066406 47.15625 64.382812 46.839844 64.53125 46.59375 C 64.789062 46.171875 64.804688 45.953125 64.777344 43.613281 C 64.734375 40.757812 64.679688 40.578125 63.628906 40.058594 C 63.148438 39.8125 62.808594 39.785156 60.894531 39.785156 C 59.390625 39.796875 58.597656 39.851562 58.3125 39.976562 Z M 62.753906 43.679688 L 62.753906 45.527344 L 59.0625 45.527344 L 59.0625 41.835938 L 62.753906 41.835938 Z M 62.753906 43.679688 "/>
<path style=" stroke:none;fill-rule:nonzero;fill:rgb(0%,0%,0%);fill-opacity:1;" d="M 39.882812 49.136719 C 39.59375 49.246094 39.238281 49.4375 39.074219 49.585938 C 38.484375 50.121094 38.417969 50.449219 38.417969 52.953125 C 38.417969 55.195312 38.429688 55.359375 38.734375 55.78125 C 39.375 56.75 39.554688 56.804688 42.082031 56.847656 C 44.242188 56.890625 44.390625 56.875 44.96875 56.574219 C 46.101562 55.984375 46.140625 55.851562 46.140625 52.9375 C 46.140625 50.476562 46.128906 50.367188 45.828125 49.929688 C 45.253906 49.125 44.871094 49.027344 42.519531 48.984375 C 40.960938 48.960938 40.265625 49 39.882812 49.136719 Z M 44.160156 52.976562 L 44.160156 54.824219 L 40.46875 54.824219 L 40.46875 51.132812 L 44.160156 51.132812 Z M 44.160156 52.976562 "/>
<path style=" stroke:none;fill-rule:nonzero;fill:rgb(0%,0%,0%);fill-opacity:1;" d="M 49.179688 49.136719 C 47.945312 49.585938 47.6875 50.148438 47.605469 52.429688 C 47.523438 54.6875 47.703125 55.578125 48.316406 56.179688 C 48.929688 56.78125 49.410156 56.875 51.679688 56.875 C 53.46875 56.875 53.730469 56.847656 54.277344 56.5625 C 54.726562 56.34375 54.976562 56.09375 55.207031 55.644531 C 55.480469 55.097656 55.507812 54.851562 55.507812 52.921875 C 55.507812 50.476562 55.328125 49.875 54.441406 49.328125 C 53.976562 49.039062 53.757812 49.015625 51.816406 48.972656 C 50.257812 48.960938 49.5625 49 49.179688 49.136719 Z M 53.429688 52.9375 L 53.390625 54.757812 L 51.585938 54.796875 L 49.765625 54.835938 L 49.765625 51.132812 L 53.46875 51.132812 Z M 53.429688 52.9375 "/>
<path style=" stroke:none;fill-rule:nonzero;fill:rgb(0%,0%,0%);fill-opacity:1;" d="M 59.40625 49 C 59.335938 49.027344 59.101562 49.09375 58.898438 49.136719 C 58.367188 49.257812 57.558594 50.011719 57.273438 50.65625 C 57.039062 51.160156 57.011719 51.695312 57.011719 57.230469 L 57.011719 63.246094 L 57.367188 63.957031 C 57.777344 64.789062 58.652344 65.433594 59.554688 65.570312 C 59.898438 65.609375 60.730469 65.625 61.429688 65.597656 C 63.203125 65.515625 64.09375 65.007812 64.601562 63.820312 C 64.777344 63.382812 64.804688 62.398438 64.804688 57.148438 C 64.804688 51.367188 64.789062 50.953125 64.546875 50.476562 C 63.96875 49.34375 63.273438 49.039062 61.179688 48.984375 C 60.28125 48.972656 59.484375 48.972656 59.40625 49 Z M 62.589844 51.296875 C 62.851562 51.554688 62.820312 62.875 62.5625 63.246094 C 62.398438 63.464844 62.164062 63.519531 61.058594 63.546875 C 59.8125 63.601562 59.746094 63.585938 59.40625 63.246094 L 59.0625 62.90625 L 59.0625 57.175781 C 59.0625 52.910156 59.101562 51.421875 59.226562 51.296875 C 59.335938 51.1875 59.910156 51.132812 60.90625 51.132812 C 61.90625 51.132812 62.480469 51.1875 62.589844 51.296875 Z M 62.589844 51.296875 "/>
<path style=" stroke:none;fill-rule:nonzero;fill:rgb(0%,0%,0%);fill-opacity:1;" d="M 40.070312 57.820312 C 39.445312 57.984375 38.9375 58.378906 38.664062 58.9375 C 38.460938 59.320312 38.417969 59.789062 38.417969 61.742188 C 38.417969 63.945312 38.429688 64.109375 38.734375 64.53125 C 39.402344 65.515625 39.523438 65.554688 42.300781 65.554688 L 44.804688 65.554688 L 45.308594 65.160156 C 46.140625 64.53125 46.238281 64.148438 46.183594 61.46875 C 46.140625 59.28125 46.128906 59.101562 45.828125 58.679688 C 45.265625 57.898438 44.871094 57.789062 42.585938 57.75 C 41.46875 57.722656 40.332031 57.765625 40.070312 57.820312 Z M 44.132812 61.6875 L 44.09375 63.507812 L 42.289062 63.546875 L 40.46875 63.585938 L 40.46875 59.882812 L 44.171875 59.882812 Z M 44.132812 61.6875 "/>
<path style=" stroke:none;fill-rule:nonzero;fill:rgb(0%,0%,0%);fill-opacity:1;" d="M 49.367188 57.820312 C 48.765625 57.984375 48.261719 58.367188 47.933594 58.925781 C 47.714844 59.28125 47.648438 59.71875 47.605469 60.921875 C 47.507812 63.257812 47.648438 64.175781 48.164062 64.765625 C 48.835938 65.53125 49.21875 65.625 51.585938 65.625 C 53.484375 65.625 53.730469 65.597656 54.277344 65.324219 C 54.726562 65.09375 54.976562 64.84375 55.207031 64.394531 C 55.480469 63.847656 55.507812 63.601562 55.507812 61.671875 C 55.507812 59.253906 55.34375 58.707031 54.46875 58.105469 C 54.003906 57.789062 53.839844 57.777344 51.898438 57.734375 C 50.765625 57.722656 49.628906 57.765625 49.367188 57.820312 Z M 53.429688 61.6875 L 53.390625 63.507812 L 51.585938 63.546875 L 49.765625 63.585938 L 49.765625 59.882812 L 53.46875 59.882812 Z M 53.429688 61.6875 "/>
<path style=" stroke:none;fill-rule:nonzero;fill:rgb(0%,0%,0%);fill-opacity:1;" d="M 12.78125 54.714844 C 12.398438 54.921875 12.167969 55.234375 12.167969 55.5625 C 12.167969 55.753906 12.015625 55.917969 11.742188 56.039062 C 11.523438 56.136719 11.171875 56.464844 10.964844 56.78125 C 10.664062 57.230469 10.59375 57.492188 10.59375 58.160156 C 10.609375 59.515625 11.117188 60.128906 12.714844 60.757812 C 13.742188 61.15625 13.945312 61.34375 13.945312 61.867188 C 13.945312 62.699219 13.085938 62.875 12.234375 62.207031 C 11.621094 61.714844 11.085938 61.6875 10.691406 62.109375 C 10.117188 62.726562 10.40625 63.5625 11.390625 64.121094 C 11.785156 64.339844 12.140625 64.679688 12.277344 64.953125 C 12.726562 65.828125 13.875 65.761719 14.136719 64.84375 C 14.234375 64.558594 14.410156 64.351562 14.65625 64.242188 C 15.953125 63.710938 16.433594 61.507812 15.546875 60.171875 C 15.242188 59.71875 14.929688 59.5 13.945312 59.035156 C 12.703125 58.445312 12.523438 58.28125 12.671875 57.886719 C 12.757812 57.667969 13.195312 57.667969 14.710938 57.898438 C 15.21875 57.984375 15.296875 57.953125 15.570312 57.625 C 15.722656 57.421875 15.859375 57.132812 15.859375 57 C 15.859375 56.628906 15.21875 55.945312 14.75 55.851562 C 14.453125 55.78125 14.289062 55.644531 14.191406 55.359375 C 14.109375 55.140625 13.875 54.867188 13.65625 54.757812 C 13.207031 54.507812 13.140625 54.507812 12.78125 54.714844 Z M 12.78125 54.714844 "/>
</g>
</svg>
