<?xml version="1.0" standalone="no"?>
<!DOCTYPE svg PUBLIC "-//W3C//DTD SVG 20010904//EN"
 "http://www.w3.org/TR/2001/REC-SVG-20010904/DTD/svg10.dtd">
<svg version="1.0" xmlns="http://www.w3.org/2000/svg"
 width="835.000000pt" height="713.000000pt" viewBox="0 0 835.000000 713.000000"
 preserveAspectRatio="xMidYMid meet">

<g transform="translate(0.000000,713.000000) scale(0.100000,-0.100000)"
fill="#000000" stroke="none">
<path d="M4052 7086 c-37 -21 -36 -23 20 -49 103 -49 143 -68 158 -77 8 -5 58
-35 110 -66 52 -31 105 -64 116 -73 12 -9 32 -23 44 -31 135 -92 277 -217 500
-441 168 -169 261 -269 315 -338 10 -14 25 -30 32 -34 7 -4 13 -13 13 -18 0
-6 13 -24 30 -42 16 -18 30 -37 30 -44 0 -6 4 -13 8 -15 12 -4 112 -153 112
-166 0 -6 4 -12 9 -14 11 -4 81 -135 81 -152 0 -8 5 -16 11 -18 5 -2 13 -22
16 -46 3 -23 10 -42 14 -42 5 0 9 -4 9 -10 0 -16 -20 -12 -27 6 -5 14 -29 45
-63 83 -8 9 -26 32 -40 51 -13 19 -34 45 -47 57 -13 12 -23 25 -23 28 0 10
-381 386 -476 471 -100 90 -151 134 -188 165 -16 13 -36 31 -45 40 -9 8 -38
33 -66 55 -27 21 -62 51 -77 66 -15 14 -57 48 -93 74 -36 26 -65 51 -65 56 0
4 -6 8 -14 8 -8 0 -16 3 -18 8 -5 10 -66 52 -77 52 -5 0 -11 3 -13 8 -5 11
-66 52 -78 52 -5 0 -10 4 -10 9 0 5 -10 13 -22 17 -13 4 -25 9 -28 13 -9 10
-142 79 -230 119 -130 58 -202 76 -310 76 l-105 1 -3 -28 c-2 -16 4 -47 13
-70 32 -81 49 -117 56 -117 4 0 9 -8 13 -17 8 -24 19 -42 102 -153 110 -146
337 -369 529 -520 39 -30 79 -63 89 -72 11 -10 38 -30 60 -45 23 -16 50 -36
60 -45 11 -10 38 -30 60 -45 23 -15 43 -30 46 -33 24 -24 386 -262 528 -346
72 -43 132 -84 132 -90 0 -6 -31 -40 -69 -75 -87 -80 -98 -89 -109 -89 -5 0
-15 -6 -21 -14 -7 -8 -30 -17 -52 -21 -21 -4 -41 -11 -45 -16 -7 -12 -161 -12
-168 0 -3 5 -23 12 -43 16 -21 4 -63 18 -93 32 -55 26 -221 121 -230 133 -3 3
-23 17 -45 30 -22 13 -76 47 -120 75 -44 29 -100 63 -125 76 -25 13 -47 26
-50 29 -3 3 -54 29 -115 58 -60 29 -118 58 -127 63 -10 5 -23 9 -30 9 -7 0
-25 6 -40 14 -15 8 -41 17 -59 21 -19 4 -40 11 -49 15 -8 5 -42 15 -75 23
-208 53 -453 76 -624 58 -177 -19 -369 -57 -438 -87 -17 -8 -36 -14 -42 -14
-6 0 -25 -6 -43 -14 -18 -8 -51 -22 -73 -31 -60 -25 -169 -79 -175 -87 -3 -3
-18 -10 -33 -13 -15 -4 -27 -10 -27 -14 0 -3 -20 -17 -45 -31 -25 -14 -45 -28
-45 -32 0 -5 -5 -8 -10 -8 -11 0 -63 -34 -89 -58 -7 -7 -25 -21 -39 -30 -42
-27 -100 -81 -224 -206 -113 -113 -119 -118 -146 -108 -15 6 -53 16 -85 22
-138 27 -297 -56 -359 -187 -19 -40 -23 -65 -23 -143 0 -117 20 -166 100 -245
53 -53 61 -76 34 -110 -4 -6 -11 -30 -15 -53 -4 -23 -10 -42 -14 -42 -4 0 -10
-23 -14 -51 -4 -28 -11 -58 -16 -67 -36 -67 -48 -538 -18 -712 24 -137 37
-202 48 -225 5 -11 12 -35 15 -53 4 -18 13 -45 21 -60 8 -15 14 -33 14 -40 0
-7 4 -20 10 -30 5 -9 17 -35 26 -57 33 -80 118 -245 126 -245 4 0 8 -5 8 -11
0 -6 21 -43 48 -82 46 -70 56 -85 77 -110 6 -7 28 -34 50 -61 51 -63 206 -219
271 -271 27 -22 51 -43 52 -47 2 -5 10 -8 18 -8 8 0 17 -7 20 -15 4 -8 10 -15
14 -15 5 0 37 -19 72 -43 84 -56 96 -62 213 -119 55 -27 108 -54 117 -59 10
-5 23 -9 30 -9 7 0 25 -6 40 -14 15 -8 42 -17 60 -21 18 -4 38 -11 43 -15 6
-4 30 -11 55 -14 25 -4 54 -11 65 -16 92 -42 586 -62 729 -30 22 5 66 14 96
20 99 19 138 29 197 49 109 36 196 71 287 117 96 48 106 53 174 96 24 16 45
28 48 28 8 0 202 148 249 189 60 53 236 231 268 271 l28 35 -28 9 c-15 5 -30
12 -33 15 -5 7 -55 27 -110 44 -19 6 -37 14 -40 18 -3 3 -22 9 -44 13 -21 4
-46 11 -55 16 -9 4 -52 16 -96 26 -108 25 -487 25 -579 0 -43 -11 -62 -13 -67
-5 -8 14 18 66 49 96 12 12 22 24 22 26 0 3 21 27 46 53 56 59 164 199 164
213 0 5 4 11 8 13 12 4 70 113 93 173 11 28 24 59 29 70 30 64 53 374 31 420
-5 11 -12 41 -16 67 -3 26 -10 50 -16 53 -5 4 -9 14 -9 24 0 14 -43 105 -117
244 -8 15 -18 27 -23 27 -5 0 -11 9 -15 20 -10 31 -174 193 -246 243 -80 55
-193 117 -214 117 -8 0 -15 4 -15 9 0 5 -19 12 -42 16 -24 4 -47 11 -53 15
-16 13 -184 35 -260 34 -79 0 -245 -22 -260 -34 -5 -4 -27 -11 -49 -14 -21 -4
-46 -11 -55 -15 -9 -5 -47 -23 -86 -42 -72 -34 -127 -68 -133 -81 -2 -5 -8 -8
-14 -8 -24 0 -189 -165 -235 -236 -65 -101 -83 -137 -122 -254 -12 -36 -26
-78 -32 -95 -16 -46 -23 -300 -10 -380 12 -75 34 -180 43 -205 3 -8 13 -42 23
-75 11 -33 25 -69 32 -80 7 -11 13 -25 13 -33 0 -7 13 -40 30 -74 51 -103 38
-105 -62 -5 -60 58 -168 209 -168 233 0 3 -6 20 -14 37 -62 141 -97 388 -78
550 12 109 31 208 42 222 4 6 11 25 15 43 4 18 13 45 21 60 8 15 14 33 14 40
0 6 4 12 9 12 5 0 12 14 16 30 4 17 11 30 16 30 5 0 9 5 9 12 0 29 101 161
194 253 113 112 187 165 326 232 109 52 116 55 190 76 151 44 194 50 365 51
172 0 281 -15 363 -50 18 -8 39 -14 47 -14 24 0 246 -109 265 -130 3 -3 21
-17 40 -30 19 -14 42 -32 51 -40 9 -8 34 -31 55 -51 42 -38 116 -125 123 -142
2 -6 8 -16 13 -22 4 -5 17 -21 28 -34 11 -13 20 -30 20 -37 0 -7 3 -14 8 -16
12 -5 82 -144 82 -162 0 -9 4 -16 9 -16 5 0 13 -14 16 -32 4 -18 11 -39 16
-48 41 -78 62 -209 63 -385 0 -184 -15 -264 -70 -392 -8 -17 -14 -36 -14 -42
0 -6 -4 -11 -9 -11 -5 0 -12 -14 -16 -30 -4 -17 -11 -30 -16 -30 -5 0 -9 -6
-9 -13 0 -15 -85 -137 -134 -191 -20 -22 -34 -41 -33 -43 2 -1 28 3 58 11 30
7 72 17 94 21 23 4 55 20 75 38 62 55 94 81 141 117 95 72 122 100 109 115
-13 16 -30 115 -20 115 4 0 50 -42 101 -92 52 -51 106 -103 120 -114 46 -38
178 -124 189 -124 5 0 10 -4 10 -9 0 -5 11 -12 25 -15 14 -4 25 -10 25 -15 0
-5 14 -12 30 -16 17 -4 30 -11 30 -16 0 -5 6 -9 13 -9 6 0 23 -6 37 -13 14 -7
48 -21 75 -31 28 -10 64 -24 80 -31 95 -39 246 -66 398 -72 113 -4 144 -2 171
11 19 9 39 16 44 16 19 0 72 74 72 101 0 14 -8 41 -17 60 -20 41 -88 109 -108
109 -8 0 -15 5 -15 10 0 6 -6 10 -12 10 -7 0 -25 7 -40 14 -16 8 -48 18 -73
22 -25 3 -48 10 -51 15 -3 5 -13 9 -22 9 -9 0 -30 7 -46 15 -15 8 -33 15 -40
15 -33 0 -226 152 -226 178 0 6 -3 12 -7 14 -25 10 -99 154 -110 210 -3 18 -9
38 -13 43 -12 16 -16 138 -5 141 6 2 28 -25 50 -59 22 -34 67 -91 101 -126
l61 -64 58 11 c32 7 80 12 107 12 54 0 58 6 26 42 -32 35 -44 54 -79 124 -34
69 -71 207 -57 213 5 2 46 -32 91 -76 45 -43 97 -90 115 -103 19 -14 39 -30
45 -35 21 -19 111 -70 152 -87 104 -43 144 -48 417 -48 243 0 322 5 528 30 85
11 190 32 205 41 6 4 25 10 43 14 18 4 45 13 60 21 15 8 33 14 40 14 6 0 12 4
12 9 0 5 11 12 26 15 31 8 136 109 157 151 37 76 49 140 44 235 -6 112 -26
240 -38 240 -5 0 -9 8 -9 18 0 24 -43 156 -52 160 -5 2 -8 8 -8 13 0 19 -43
105 -87 172 -43 68 -96 132 -142 171 -14 12 -32 28 -40 36 -30 28 -105 74
-176 108 -38 18 -78 38 -89 44 -30 16 -225 78 -246 78 -10 0 -21 4 -25 9 -3 5
-20 12 -38 16 -72 15 -232 79 -292 117 -45 30 -126 120 -146 165 -63 138 -145
300 -160 313 -3 3 -16 23 -29 45 -13 22 -27 42 -30 45 -3 3 -17 23 -30 45 -13
22 -27 42 -30 45 -3 3 -25 30 -48 60 -93 118 -186 227 -239 277 -13 12 -23 24
-23 27 0 6 -99 106 -105 106 -2 0 -19 15 -37 33 -19 17 -62 57 -97 87 -36 30
-72 62 -81 70 -9 9 -63 51 -120 93 -58 42 -110 81 -117 87 -7 5 -15 10 -18 10
-6 0 -66 41 -75 51 -3 3 -12 9 -20 12 -8 4 -28 16 -45 27 -16 11 -42 26 -57
32 -16 7 -28 16 -28 19 0 4 -13 10 -30 14 -16 4 -30 10 -30 15 0 5 -13 11 -30
15 -16 4 -30 10 -30 13 0 8 -44 24 -130 49 -72 21 -198 26 -228 9z m2479
-2176 c49 -14 126 -83 134 -120 4 -16 11 -32 16 -35 32 -20 -13 -150 -59 -170
-12 -5 -22 -13 -22 -17 0 -5 -27 -8 -59 -8 -133 0 -236 115 -217 242 14 91
102 137 207 108z"/>
<path d="M7582 1225 c-38 -32 -57 -99 -40 -146 27 -82 121 -123 186 -82 76 49
100 114 66 181 -26 53 -59 72 -125 72 -47 0 -63 -5 -87 -25z"/>
<path d="M125 1205 c-16 -8 -45 -32 -62 -52 -31 -34 -33 -41 -33 -109 l0 -73
133 -3 132 -3 3 -390 c2 -358 4 -393 21 -430 36 -76 59 -89 171 -93 l100 -4 0
449 c0 336 3 452 12 461 8 8 52 12 130 12 l118 0 0 125 0 125 -347 0 c-290 0
-353 -3 -378 -15z"/>
<path d="M2530 636 l0 -586 130 0 130 0 0 205 c0 113 3 205 6 205 8 0 43 -43
44 -54 0 -4 14 -25 30 -46 17 -21 30 -40 30 -43 0 -12 65 -101 95 -131 41 -40
58 -51 125 -82 30 -14 63 -30 73 -35 10 -6 66 -13 123 -16 l104 -6 0 111 0
112 -56 0 c-54 0 -145 23 -173 44 -27 21 -81 80 -81 89 0 5 -13 26 -30 47 -16
21 -30 41 -30 46 0 4 -7 15 -15 24 -16 18 -19 13 48 90 12 14 44 52 71 85 27
33 57 67 65 76 9 9 27 29 40 45 13 16 37 44 54 63 22 26 26 36 15 42 -22 14
-272 11 -290 -3 -8 -7 -50 -60 -93 -118 -43 -58 -84 -110 -91 -116 -8 -6 -14
-14 -14 -17 0 -10 -33 -47 -42 -47 -4 0 -8 111 -10 248 -3 222 -5 250 -22 275
-36 53 -72 70 -157 75 l-79 5 0 -587z"/>
<path d="M3490 636 l0 -586 139 0 c117 0 140 2 145 16 3 9 6 83 6 165 0 148 6
174 31 127 7 -13 15 -25 19 -28 4 -3 30 -34 59 -70 28 -36 59 -74 69 -85 25
-28 102 -81 132 -90 14 -4 28 -12 32 -18 3 -5 63 -12 132 -15 l126 -5 0 127 0
126 -65 0 c-40 0 -79 7 -102 17 -39 18 -123 99 -123 119 0 6 25 19 55 29 30 9
55 21 55 26 0 5 6 9 14 9 19 0 93 85 117 135 52 105 46 284 -11 390 -31 57
-103 135 -125 135 -8 0 -15 3 -17 8 -1 4 -23 16 -48 26 -40 17 -80 20 -342 24
l-298 4 0 -586z m480 315 c104 -28 150 -149 91 -241 -39 -61 -85 -80 -197 -80
l-84 0 0 163 c0 90 3 167 7 171 10 10 127 2 183 -13z"/>
<path d="M5592 1212 c-31 -10 -92 -60 -92 -77 0 -8 -4 -15 -10 -15 -7 0 -10
-185 -10 -535 l0 -535 120 0 120 0 0 35 c0 42 10 44 47 9 150 -140 441 -90
576 98 25 36 49 78 53 94 4 16 12 35 18 43 15 19 15 290 0 322 -7 13 -20 44
-30 69 -26 61 -127 160 -197 193 -73 35 -172 49 -259 37 -62 -9 -99 -24 -164
-66 l-24 -16 0 176 0 176 -62 -1 c-35 -1 -73 -4 -86 -7z m470 -531 c80 -51
116 -130 103 -226 -10 -78 -53 -139 -126 -177 -59 -30 -162 -22 -213 17 -53
40 -76 78 -90 143 -9 45 -9 67 1 102 33 116 99 169 214 170 55 0 72 -4 111
-29z"/>
<path d="M6625 1213 c-34 -9 -81 -50 -99 -86 -14 -31 -16 -94 -16 -556 l0
-521 120 0 120 0 0 35 c0 42 10 44 47 9 71 -66 178 -93 292 -74 42 7 85 19 96
27 11 7 25 13 33 13 19 0 80 46 125 95 53 57 55 60 63 89 3 14 9 26 13 26 4 0
15 33 25 72 14 56 17 97 13 173 -4 88 -22 180 -37 195 -3 3 -13 21 -24 42 -27
53 -113 131 -180 162 -131 62 -294 55 -398 -16 -14 -10 -31 -18 -37 -18 -7 0
-11 57 -13 168 l-3 167 -60 2 c-33 0 -69 -1 -80 -4z m453 -521 c2 -6 9 -12 16
-12 14 0 53 -41 82 -85 15 -23 19 -48 19 -113 0 -45 -4 -86 -10 -90 -5 -4 -17
-20 -26 -37 -41 -73 -164 -115 -254 -85 -46 15 -111 77 -120 113 -4 15 -11 30
-16 33 -12 7 -11 131 1 139 6 3 10 15 10 25 0 22 63 91 105 114 37 20 186 19
193 -2z"/>
<path d="M8023 1213 c-13 -2 -23 -9 -23 -14 0 -5 -6 -9 -13 -9 -16 0 -48 -37
-64 -74 -10 -21 -13 -122 -13 -388 0 -309 2 -367 17 -411 50 -156 170 -251
333 -264 l80 -6 0 127 c0 108 -2 126 -16 126 -37 0 -110 33 -129 58 -18 25
-20 43 -20 197 l0 170 83 3 83 3 -3 97 -3 97 -80 5 -80 5 -3 143 -3 142 -62
-1 c-34 -1 -72 -4 -84 -6z"/>
<path d="M1060 950 c-30 -5 -69 -16 -85 -24 -17 -9 -36 -16 -42 -16 -7 0 -13
-4 -13 -10 0 -5 -6 -10 -13 -10 -8 0 -36 -22 -63 -49 -63 -63 -66 -66 -93
-126 -12 -27 -28 -61 -34 -74 -8 -15 -12 -75 -11 -160 1 -136 1 -136 39 -215
37 -80 112 -167 167 -193 109 -54 191 -70 285 -54 80 14 126 35 170 77 31 31
53 30 53 -1 0 -7 8 -19 18 -28 15 -14 40 -17 120 -17 l102 0 0 440 0 440 -85
0 c-102 0 -149 -16 -159 -54 -8 -33 -15 -33 -57 5 -69 62 -178 87 -299 69z
m213 -254 c38 -16 76 -50 103 -91 27 -42 28 -203 2 -232 -10 -11 -18 -23 -18
-26 0 -10 -31 -39 -65 -61 -18 -12 -54 -21 -96 -24 -57 -4 -75 -1 -111 18 -95
49 -140 145 -120 254 6 32 18 66 27 76 8 9 15 21 15 26 1 10 38 39 78 60 35
18 143 18 185 0z"/>
<path d="M2015 950 c-70 -11 -112 -31 -168 -81 -146 -128 -124 -319 46 -405
27 -13 54 -24 61 -24 12 0 56 -18 96 -39 9 -5 30 -12 48 -16 18 -3 32 -11 32
-16 0 -5 6 -9 13 -9 22 0 50 -37 50 -65 0 -43 -29 -65 -85 -65 -59 0 -86 13
-98 46 -9 24 -11 24 -140 24 l-130 0 6 -42 c4 -24 10 -45 14 -48 4 -3 11 -15
14 -28 4 -13 23 -39 43 -58 85 -85 225 -126 356 -103 178 31 282 139 282 295
0 42 -6 83 -15 100 -19 38 -71 94 -87 94 -7 0 -13 4 -13 9 0 5 -13 12 -30 16
-16 4 -30 10 -30 14 0 3 -21 12 -47 19 -27 7 -64 17 -83 22 -79 21 -140 64
-140 100 0 19 25 43 54 54 36 13 86 -5 102 -35 l15 -29 124 0 c116 0 125 1
125 19 0 27 -41 131 -51 131 -5 0 -9 7 -9 15 0 8 -3 15 -8 15 -4 0 -19 11 -33
24 -14 13 -36 27 -50 31 -13 4 -26 11 -29 16 -6 9 -130 29 -165 28 -11 -1 -42
-5 -70 -9z"/>
<path d="M4750 951 c-50 -7 -70 -14 -120 -43 -8 -4 -25 -12 -38 -18 -48 -20
-137 -127 -164 -195 -32 -83 -38 -114 -38 -210 0 -108 18 -183 61 -255 5 -8
12 -22 16 -30 9 -19 92 -101 118 -117 155 -95 375 -90 465 10 31 34 42 34 58
-2 16 -36 33 -41 155 -41 l97 0 -2 438 -3 437 -107 0 c-97 0 -109 -2 -127 -22
-12 -12 -21 -29 -21 -38 0 -24 -22 -17 -55 16 -59 60 -169 86 -295 70z m203
-250 c38 -15 96 -70 118 -112 27 -54 26 -155 -2 -209 -51 -97 -146 -138 -267
-114 -44 9 -108 68 -132 121 -49 112 -1 255 103 307 36 17 142 21 180 7z"/>
<path d="M7685 924 c-45 -10 -103 -49 -121 -82 -18 -33 -19 -61 -19 -416 l0
-381 130 0 130 0 3 434 c2 341 0 436 -10 443 -13 8 -77 9 -113 2z"/>
</g>
</svg>
