<?xml version="1.0" standalone="no"?>
<!DOCTYPE svg PUBLIC "-//W3C//DTD SVG 20010904//EN"
 "http://www.w3.org/TR/2001/REC-SVG-20010904/DTD/svg10.dtd">
<svg version="1.0" xmlns="http://www.w3.org/2000/svg"
 width="512.000000pt" height="512.000000pt" viewBox="0 0 512.000000 512.000000"
 preserveAspectRatio="xMidYMid meet">

<g transform="translate(0.000000,512.000000) scale(0.100000,-0.100000)"
fill="#000000" stroke="none">
<path d="M329 4090 c-87 -15 -155 -65 -197 -144 l-27 -51 -3 -1094 c-3 -1232
-7 -1164 71 -1248 69 -75 101 -86 261 -93 l140 -5 12 -48 c30 -119 111 -230
218 -299 164 -106 388 -106 552 0 106 69 203 205 220 310 l7 42 1037 0 1038 0
7 -32 c28 -133 135 -273 254 -337 85 -45 154 -61 255 -61 146 1 258 49 363
157 55 56 116 168 128 236 l7 37 59 0 c127 0 240 79 273 191 22 73 24 681 2
752 -17 58 -589 1039 -635 1090 -19 21 -53 48 -75 60 -40 21 -52 22 -448 25
l-408 3 0 138 c0 93 -5 154 -15 188 -20 66 -80 134 -147 164 l-53 24 -1425 1
c-784 1 -1446 -2 -1471 -6z m2910 -176 c17 -14 34 -40 39 -57 4 -18 6 -465 4
-994 l-4 -963 -916 0 -915 0 -52 40 c-188 145 -442 145 -630 0 l-52 -40 -226
0 -227 0 0 986 0 986 34 34 34 34 1440 0 1440 0 31 -26z m990 -502 c30 -15 75
-86 332 -527 l298 -510 1 -338 c0 -367 -2 -378 -55 -407 -15 -8 -50 -14 -78
-15 l-51 0 -16 55 c-65 216 -241 360 -459 376 -237 18 -456 -135 -524 -363
l-21 -73 -108 0 -108 0 0 910 0 910 378 0 c339 0 380 -2 411 -18z m-3022
-1541 c107 -41 190 -136 219 -251 31 -124 -6 -250 -102 -340 -79 -75 -129 -94
-244 -94 -115 0 -165 19 -244 94 -78 74 -110 150 -110 260 -1 71 4 94 26 142
80 173 281 256 455 189z m3018 18 c84 -15 144 -49 203 -113 71 -79 95 -146 90
-256 -6 -140 -72 -241 -196 -302 -60 -30 -75 -33 -157 -33 -77 0 -98 4 -147
27 -73 34 -142 103 -176 176 -23 49 -27 70 -27 152 0 76 5 104 22 142 47 102
160 189 270 208 26 4 51 8 54 9 3 0 32 -4 64 -10z m-3632 -201 c-9 -29 -17
-59 -19 -67 -6 -21 -230 -11 -265 12 -28 19 -49 56 -49 87 0 19 8 20 174 20
l174 0 -15 -52z m2687 -13 l0 -65 -845 0 c-668 0 -846 3 -849 13 -2 6 -10 36
-19 65 l-15 52 864 0 864 0 0 -65z"/>
<path d="M3607 3268 c-34 -27 -37 -65 -37 -472 0 -415 3 -456 40 -476 12 -6
214 -10 525 -10 l506 0 24 25 c14 13 25 35 25 47 0 22 -464 843 -497 881 -15
15 -42 17 -293 17 -205 0 -280 -3 -293 -12z m658 -430 c92 -161 179 -312 192
-335 l25 -43 -376 0 -376 0 0 335 0 335 184 0 183 0 168 -292z"/>
<path d="M979 1733 c-74 -38 -111 -93 -117 -172 -5 -71 10 -121 51 -167 136
-155 387 -62 387 144 0 91 -44 161 -124 198 -69 32 -128 31 -197 -3z m146
-148 c30 -29 32 -64 5 -93 -41 -44 -120 -15 -120 43 0 31 41 75 70 75 12 0 32
-11 45 -25z"/>
<path d="M4095 1749 c-85 -24 -149 -118 -149 -215 1 -234 321 -302 420 -90 40
86 28 169 -34 238 -62 69 -149 93 -237 67z m98 -150 c64 -29 46 -129 -22 -129
-69 0 -98 77 -45 119 31 24 35 25 67 10z"/>
</g>
</svg>
