<?xml version="1.0" encoding="UTF-8"?>
<svg xmlns="http://www.w3.org/2000/svg" version="1.1" width="580px" height="600px" style="shape-rendering:geometricPrecision; text-rendering:geometricPrecision; image-rendering:optimizeQuality; fill-rule:evenodd; clip-rule:evenodd" xmlns:xlink="http://www.w3.org/1999/xlink">
<g><path style="opacity:0.943" fill="#13c1ab" d="M 366.5,11.5 C 368.509,13.0652 370.843,14.0652 373.5,14.5C 389.953,22.3009 403.786,32.3009 415,44.5C 416.147,43.5419 417.147,43.8753 418,45.5C 418.617,46.4491 418.451,47.2825 417.5,48C 418.743,50.0338 420.243,50.8671 422,50.5C 422.617,51.4491 422.451,52.2825 421.5,53C 423.138,53.242 424.638,54.0753 426,55.5C 429.085,60.0002 431.918,64.6669 434.5,69.5C 434.167,70.1667 433.833,70.8333 433.5,71.5C 436.882,77.597 439.716,83.9303 442,90.5C 442.667,91.8333 443.333,91.8333 444,90.5C 444.496,92.0349 444.33,93.5349 443.5,95C 443.862,96.2247 444.362,97.3914 445,98.5C 445.333,97.8333 445.667,97.1667 446,96.5C 445.004,100.554 445.338,104.554 447,108.5C 447.667,103.167 448.333,103.167 449,108.5C 450.858,120.788 452.025,133.121 452.5,145.5C 452.291,146.086 451.957,146.586 451.5,147C 455.375,150.381 459.375,153.547 463.5,156.5C 463.5,157.167 463.833,157.5 464.5,157.5C 464.5,158.167 464.833,158.5 465.5,158.5C 465.5,159.167 465.833,159.5 466.5,159.5C 466.5,160.167 466.833,160.5 467.5,160.5C 467.5,161.167 467.833,161.5 468.5,161.5C 468.5,162.167 468.833,162.5 469.5,162.5C 469.5,163.167 469.833,163.5 470.5,163.5C 471.851,166.092 473.685,167.426 476,167.5C 475.383,169.095 475.716,170.428 477,171.5C 477.333,171.167 477.667,170.833 478,170.5C 481.627,174.348 483.627,178.681 484,183.5C 487.281,183.38 488.114,185.047 486.5,188.5C 487.333,190.167 488.167,191.833 489,193.5C 489.333,192.833 489.667,192.167 490,191.5C 490.195,193.207 490.195,194.874 490,196.5C 490.667,197.833 491.333,197.833 492,196.5C 492.496,198.035 492.33,199.535 491.5,201C 492,202.5 492.5,204 493,205.5C 493.333,204.5 493.667,203.5 494,202.5C 495.569,206.703 496.402,211.036 496.5,215.5C 495.507,223.984 495.174,232.651 495.5,241.5C 494.539,243.265 494.205,245.265 494.5,247.5C 493.167,248.833 493.167,250.167 494.5,251.5C 494.231,256.264 492.898,260.597 490.5,264.5C 490.167,261.833 489.833,261.833 489.5,264.5C 488.596,265.209 488.263,266.209 488.5,267.5C 487.662,267.842 487.328,268.508 487.5,269.5C 486.167,270.167 486.167,270.833 487.5,271.5C 485.423,277.998 482.09,283.665 477.5,288.5C 477.167,287.167 476.833,287.167 476.5,288.5C 475.167,288.833 475.167,289.167 476.5,289.5C 476.573,291.027 475.906,292.027 474.5,292.5C 474.167,291.167 473.833,291.167 473.5,292.5C 472.833,292.5 472.5,292.833 472.5,293.5C 471.833,293.5 471.5,293.833 471.5,294.5C 470.833,294.5 470.5,294.833 470.5,295.5C 469.833,295.5 469.5,295.833 469.5,296.5C 468.833,296.5 468.5,296.833 468.5,297.5C 467.833,297.5 467.5,297.833 467.5,298.5C 466.833,298.5 466.5,298.833 466.5,299.5C 465.833,299.5 465.5,299.833 465.5,300.5C 464.833,300.5 464.5,300.833 464.5,301.5C 463.833,301.5 463.5,301.833 463.5,302.5C 462.833,302.5 462.5,302.833 462.5,303.5C 461.833,303.5 461.5,303.833 461.5,304.5C 460.508,304.328 459.842,304.662 459.5,305.5C 458.833,305.5 458.5,305.833 458.5,306.5C 457.833,306.5 457.5,306.833 457.5,307.5C 456.508,307.328 455.842,307.662 455.5,308.5C 454.833,308.5 454.5,308.833 454.5,309.5C 453.508,309.328 452.842,309.662 452.5,310.5C 451.833,310.5 451.5,310.833 451.5,311.5C 450.508,311.328 449.842,311.662 449.5,312.5C 448.833,312.5 448.5,312.833 448.5,313.5C 447.508,313.328 446.842,313.662 446.5,314.5C 445.508,314.328 444.842,314.662 444.5,315.5C 443.508,315.328 442.842,315.662 442.5,316.5C 441.508,316.328 440.842,316.662 440.5,317.5C 439.209,317.263 438.209,317.596 437.5,318.5C 436.508,318.328 435.842,318.662 435.5,319.5C 434.209,319.263 433.209,319.596 432.5,320.5C 431.508,320.328 430.842,320.662 430.5,321.5C 427.848,321.41 425.515,322.076 423.5,323.5C 422.209,323.263 421.209,323.596 420.5,324.5C 419.508,324.328 418.842,324.662 418.5,325.5C 417.167,325.833 417.167,326.167 418.5,326.5C 417.273,332.134 416.106,337.801 415,343.5C 414.289,347.521 413.122,349.855 411.5,350.5C 410.596,351.209 410.263,352.209 410.5,353.5C 409.662,353.842 409.328,354.508 409.5,355.5C 408.596,356.209 408.263,357.209 408.5,358.5C 407.662,358.842 407.328,359.508 407.5,360.5C 406.662,360.842 406.328,361.508 406.5,362.5C 405.662,362.842 405.328,363.508 405.5,364.5C 404.662,364.842 404.328,365.508 404.5,366.5C 403.167,367.167 403.167,367.833 404.5,368.5C 402.913,372.683 400.579,376.35 397.5,379.5C 397.167,378.167 396.833,378.167 396.5,379.5C 395.167,379.833 395.167,380.167 396.5,380.5C 396.262,382.404 395.262,383.738 393.5,384.5C 393.167,383.167 392.833,383.167 392.5,384.5C 391.833,384.5 391.5,384.833 391.5,385.5C 390.833,385.5 390.5,385.833 390.5,386.5C 389.833,386.5 389.5,386.833 389.5,387.5C 388.833,387.5 388.5,387.833 388.5,388.5C 387.833,388.5 387.5,388.833 387.5,389.5C 386.833,389.5 386.5,389.833 386.5,390.5C 385.833,390.5 385.5,390.833 385.5,391.5C 384.833,391.5 384.5,391.833 384.5,392.5C 383.833,392.5 383.5,392.833 383.5,393.5C 382.833,393.5 382.5,393.833 382.5,394.5C 381.833,394.5 381.5,394.833 381.5,395.5C 380.833,395.5 380.5,395.833 380.5,396.5C 379.833,396.5 379.5,396.833 379.5,397.5C 378.833,397.5 378.5,397.833 378.5,398.5C 377.167,398.833 377.167,399.167 378.5,399.5C 378.027,400.906 377.027,401.573 375.5,401.5C 375.167,400.167 374.833,400.167 374.5,401.5C 373.833,401.5 373.5,401.833 373.5,402.5C 372.508,402.328 371.842,402.662 371.5,403.5C 370.833,403.5 370.5,403.833 370.5,404.5C 369.508,404.328 368.842,404.662 368.5,405.5C 367.508,405.328 366.842,405.662 366.5,406.5C 365.833,406.5 365.5,406.833 365.5,407.5C 364.508,407.328 363.842,407.662 363.5,408.5C 362.508,408.328 361.842,408.662 361.5,409.5C 360.508,409.328 359.842,409.662 359.5,410.5C 358.508,410.328 357.842,410.662 357.5,411.5C 356.508,411.328 355.842,411.662 355.5,412.5C 354.508,412.328 353.842,412.662 353.5,413.5C 352.209,413.263 351.209,413.596 350.5,414.5C 349.508,414.328 348.842,414.662 348.5,415.5C 347.209,415.263 346.209,415.596 345.5,416.5C 344.209,416.263 343.209,416.596 342.5,417.5C 340.901,417.232 339.568,417.566 338.5,418.5C 325.906,420.226 313.239,420.893 300.5,420.5C 293.582,418.979 286.582,417.312 279.5,415.5C 279.158,414.662 278.492,414.328 277.5,414.5C 274.021,412.597 270.354,410.93 266.5,409.5C 254.82,402.847 244.987,395.18 237,386.5C 235.853,387.458 234.853,387.125 234,385.5C 233.383,384.551 233.549,383.718 234.5,383C 232.862,382.758 231.362,381.925 230,380.5C 229.365,379.034 228.531,377.7 227.5,376.5C 228.101,373.757 226.767,372.424 223.5,372.5C 221.047,371.355 218.713,371.688 216.5,373.5C 213.572,373.565 210.905,374.232 208.5,375.5C 206.585,375.216 204.919,375.549 203.5,376.5C 200.287,376.19 197.287,376.523 194.5,377.5C 186.486,377.432 178.486,377.099 170.5,376.5C 166.385,375.057 162.052,374.057 157.5,373.5C 150.495,370.714 143.495,367.714 136.5,364.5C 134.853,362.674 132.853,361.34 130.5,360.5C 130.5,359.833 130.167,359.5 129.5,359.5C 128.828,358.733 127.995,358.066 127,357.5C 126.282,358.451 125.449,358.617 124.5,358C 124.493,355.881 123.326,354.047 121,352.5C 119.129,353.668 117.629,353.168 116.5,351C 116.833,350.667 117.167,350.333 117.5,350C 115.311,347.056 112.811,345.223 110,344.5C 109.383,343.551 109.549,342.718 110.5,342C 108.816,340.26 106.982,339.094 105,338.5C 100.53,332.396 96.6965,325.896 93.5,319C 93.7355,318.127 94.0688,317.293 94.5,316.5C 93.6557,313.839 92.3223,312.339 90.5,312C 91.3295,310.535 91.4962,309.035 91,307.5C 90.3333,306.167 89.6667,306.167 89,307.5C 89.1823,301.84 88.5156,296.174 87,290.5C 86.6667,292.5 86.3333,294.5 86,296.5C 82.5818,281.427 82.9151,266.427 87,251.5C 87.3333,252.833 87.6667,254.167 88,255.5C 88.4221,253.645 88.9221,251.811 89.5,250C 88.5909,248.211 88.4242,246.377 89,244.5C 89.3333,245.5 89.6667,246.5 90,247.5C 91.7803,243.889 92.447,240.222 92,236.5C 93.1313,237.604 93.9646,237.271 94.5,235.5C 94.1667,234.833 93.8333,234.167 93.5,233.5C 96.3252,228.018 98.9919,222.518 101.5,217C 100.735,213.225 98.7353,210.225 95.5,208C 95.8333,207.667 96.1667,207.333 96.5,207C 93.6891,206.277 91.1891,204.444 89,201.5C 88.3828,200.551 88.5494,199.718 89.5,199C 88.5305,197.242 87.3639,196.742 86,197.5C 84.3831,196.464 84.2164,195.297 85.5,194C 84.7471,192.513 83.9138,192.346 83,193.5C 76.7835,186.087 73.1169,177.754 72,168.5C 71.3333,167.167 70.6667,167.167 70,168.5C 69.5172,167.552 69.3505,166.552 69.5,165.5C 70.4906,162.756 70.1573,160.089 68.5,157.5C 68.1667,150.833 67.8333,150.833 67.5,157.5C 67.7335,146.338 67.4002,135.005 66.5,123.5C 66.6667,122.5 66.8333,121.5 67,120.5C 67.3333,122.167 67.6667,123.833 68,125.5C 68.8256,122.207 69.3256,118.874 69.5,115.5C 71.5228,112.245 72.1895,108.745 71.5,105C 73.2551,99.9892 75.4217,95.1559 78,90.5C 79,90.1667 80,89.8333 81,89.5C 80.3332,86.4065 81.3332,83.7398 84,81.5C 84.9138,82.6537 85.7471,82.487 86.5,81C 85.5494,80.2825 85.3828,79.4491 86,78.5C 88.1193,78.4928 89.9526,77.3261 91.5,75C 90.5494,74.2825 90.3828,73.4491 91,72.5C 93.1667,70.3333 95.3333,68.1667 97.5,66C 99.9849,66.6228 101.985,65.6228 103.5,63C 125.908,46.4066 151.908,40.24 181.5,44.5C 186.272,46.278 191.272,47.6113 196.5,48.5C 197.78,49.9313 199.447,50.5979 201.5,50.5C 206.232,54.0618 211.566,55.8952 217.5,56C 218.416,55.7216 219.082,55.2216 219.5,54.5C 220.167,54.5 220.5,54.1667 220.5,53.5C 221.833,53.1667 221.833,52.8333 220.5,52.5C 220.829,49.9683 221.995,48.9683 224,49.5C 228.729,44.6025 233.562,39.9359 238.5,35.5C 239.167,35.5 239.5,35.1667 239.5,34.5C 242.092,33.1486 243.426,31.3153 243.5,29C 244.449,28.3828 245.282,28.5494 246,29.5C 246.995,28.9341 247.828,28.2674 248.5,27.5C 249.167,27.5 249.5,27.1667 249.5,26.5C 262.574,17.9604 276.574,11.627 291.5,7.5C 293.099,7.76781 294.432,7.43448 295.5,6.5C 319.587,2.61781 343.253,4.28448 366.5,11.5 Z M 336.5,42.5 C 334.473,42.3379 332.473,42.5045 330.5,43C 345.262,45.3857 358.929,50.5523 371.5,58.5C 371.973,59.9063 372.973,60.573 374.5,60.5C 380.14,65.8054 385.807,71.1388 391.5,76.5C 391.427,78.0269 392.094,79.0269 393.5,79.5C 393.5,80.1667 393.833,80.5 394.5,80.5C 394.427,82.0269 395.094,83.0269 396.5,83.5C 396.427,85.0269 397.094,86.0269 398.5,86.5C 398.427,88.0269 399.094,89.0269 400.5,89.5C 400.328,90.4916 400.662,91.1583 401.5,91.5C 402.93,95.3544 404.597,99.0211 406.5,102.5C 406.402,104.553 407.069,106.22 408.5,107.5C 408.263,108.791 408.596,109.791 409.5,110.5C 409.232,112.099 409.566,113.432 410.5,114.5C 410.232,116.099 410.566,117.432 411.5,118.5C 411.205,120.735 411.539,122.735 412.5,124.5C 412.174,133.349 412.507,142.016 413.5,150.5C 413.795,152.735 413.461,154.735 412.5,156.5C 412.167,149.833 411.833,149.833 411.5,156.5C 410.549,157.919 410.216,159.585 410.5,161.5C 408.928,164.215 407.928,167.215 407.5,170.5C 406.596,171.209 406.263,172.209 406.5,173.5C 405.662,173.842 405.328,174.508 405.5,175.5C 404.069,176.78 403.402,178.447 403.5,180.5C 402.662,180.842 402.328,181.508 402.5,182.5C 400.75,183.659 399.75,185.326 399.5,187.5C 398.662,187.842 398.328,188.508 398.5,189.5C 397.094,189.973 396.427,190.973 396.5,192.5C 395.833,192.5 395.5,192.833 395.5,193.5C 394.094,193.973 393.427,194.973 393.5,196.5C 392.833,196.5 392.5,196.833 392.5,197.5C 391.094,197.973 390.427,198.973 390.5,200.5C 388.833,201.5 387.5,202.833 386.5,204.5C 384.833,205.5 383.5,206.833 382.5,208.5C 379.808,210.862 377.141,213.196 374.5,215.5C 372.738,216.262 371.738,217.596 371.5,219.5C 370.662,219.842 370.328,220.508 370.5,221.5C 369.167,222.167 369.167,222.833 370.5,223.5C 370.46,226.881 370.793,230.214 371.5,233.5C 370.167,234.167 370.167,234.833 371.5,235.5C 371.738,237.404 372.738,238.738 374.5,239.5C 376.187,241.166 378.187,242.5 380.5,243.5C 381.107,243.376 381.44,243.043 381.5,242.5C 384.5,242.5 387.5,242.5 390.5,242.5C 391.721,243.465 393.054,243.298 394.5,242C 397.288,240.281 399.621,238.115 401.5,235.5C 403.027,235.573 404.027,234.906 404.5,233.5C 408.833,229.833 412.833,225.833 416.5,221.5C 418.587,220.415 419.92,218.749 420.5,216.5C 421.5,216.167 422.167,215.5 422.5,214.5C 423.906,214.027 424.573,213.027 424.5,211.5C 425.167,211.5 425.5,211.167 425.5,210.5C 426.906,210.027 427.573,209.027 427.5,207.5C 428.906,207.027 429.573,206.027 429.5,204.5C 430.906,204.027 431.573,203.027 431.5,201.5C 432.338,201.158 432.672,200.492 432.5,199.5C 434.588,197.664 435.921,195.331 436.5,192.5C 439.642,190.339 442.975,190.006 446.5,191.5C 447.167,192.833 448.167,193.833 449.5,194.5C 449.992,196.819 450.992,198.819 452.5,200.5C 452.402,202.553 453.069,204.22 454.5,205.5C 454.263,206.791 454.596,207.791 455.5,208.5C 455.263,209.791 455.596,210.791 456.5,211.5C 456.263,212.791 456.596,213.791 457.5,214.5C 457.457,218.893 457.957,219.226 459,215.5C 459.49,216.793 459.657,218.127 459.5,219.5C 462.112,227.828 462.112,236.162 459.5,244.5C 459.663,242.143 459.497,239.81 459,237.5C 458.452,241.17 457.952,244.837 457.5,248.5C 455.928,251.215 454.928,254.215 454.5,257.5C 452.659,259.849 451.326,262.515 450.5,265.5C 449.094,265.973 448.427,266.973 448.5,268.5C 447.662,268.842 447.328,269.508 447.5,270.5C 446.5,270.833 445.833,271.5 445.5,272.5C 444.094,272.973 443.427,273.973 443.5,275.5C 441.167,277.167 439.167,279.167 437.5,281.5C 435.973,281.427 434.973,282.094 434.5,283.5C 422.035,292.555 408.035,297.389 392.5,298C 389.453,298.516 387.12,300.016 385.5,302.5C 384.167,302.5 383.5,303.167 383.5,304.5C 382.094,304.973 381.427,305.973 381.5,307.5C 380.167,308.5 380.167,309.5 381.5,310.5C 381.817,314.702 381.483,318.702 380.5,322.5C 380.665,318.818 380.499,315.152 380,311.5C 379.615,318.236 378.782,324.902 377.5,331.5C 376.596,332.209 376.263,333.209 376.5,334.5C 375.596,335.209 375.263,336.209 375.5,337.5C 373.326,340.515 371.659,343.849 370.5,347.5C 369.094,347.973 368.427,348.973 368.5,350.5C 367.094,350.973 366.427,351.973 366.5,353.5C 365.833,353.5 365.5,353.833 365.5,354.5C 363.086,355.911 361.419,357.911 360.5,360.5C 358.596,360.738 357.262,361.738 356.5,363.5C 351.259,367.618 345.592,370.951 339.5,373.5C 338.508,373.328 337.842,373.662 337.5,374.5C 334.157,375.224 330.824,376.057 327.5,377C 328.793,377.49 330.127,377.657 331.5,377.5C 328.124,379.082 324.458,379.749 320.5,379.5C 297.245,379.707 277.578,371.374 261.5,354.5C 261.573,352.973 260.906,351.973 259.5,351.5C 259.573,349.973 258.906,348.973 257.5,348.5C 257.25,346.326 256.25,344.659 254.5,343.5C 254.598,341.447 253.931,339.78 252.5,338.5C 252.672,337.508 252.338,336.842 251.5,336.5C 251.074,332.573 250.074,328.907 248.5,325.5C 248.802,322.941 248.468,320.607 247.5,318.5C 247.612,311.82 247.946,305.153 248.5,298.5C 249.87,295.381 250.87,292.048 251.5,288.5C 253.07,285.686 254.403,282.686 255.5,279.5C 256.338,279.158 256.672,278.492 256.5,277.5C 257.906,277.027 258.573,276.027 258.5,274.5C 262.5,269.5 262.5,264.5 258.5,259.5C 258.573,257.973 257.906,256.973 256.5,256.5C 248.167,247.167 239.833,247.167 231.5,256.5C 230.094,256.973 229.427,257.973 229.5,259.5C 227.178,260.802 225.845,262.802 225.5,265.5C 223.412,267.336 222.079,269.669 221.5,272.5C 220.662,272.842 220.328,273.508 220.5,274.5C 219.326,275.514 218.66,276.847 218.5,278.5C 217.069,279.78 216.402,281.447 216.5,283.5C 215.596,284.209 215.263,285.209 215.5,286.5C 213.849,288.402 213.516,290.402 214.5,292.5C 214.768,294.099 214.434,295.432 213.5,296.5C 213.784,298.415 213.451,300.081 212.5,301.5C 212.663,303.857 212.497,306.19 212,308.5C 211.667,306.5 211.333,304.5 211,302.5C 209.536,311.12 209.202,319.787 210,328.5C 210.333,322.167 210.667,315.833 211,309.5C 211.5,316.158 211.666,322.825 211.5,329.5C 210.593,331.657 209.927,333.99 209.5,336.5C 182.221,343.763 158.554,337.43 138.5,317.5C 138.262,315.596 137.262,314.262 135.5,313.5C 135.5,312.833 135.167,312.5 134.5,312.5C 134.573,310.973 133.906,309.973 132.5,309.5C 132.25,307.326 131.25,305.659 129.5,304.5C 129.34,302.847 128.674,301.514 127.5,300.5C 127.598,298.447 126.931,296.78 125.5,295.5C 124.179,289.879 123.012,284.212 122,278.5C 121.505,280.473 121.338,282.473 121.5,284.5C 119.437,277.564 119.104,270.564 120.5,263.5C 120.198,260.941 120.532,258.607 121.5,256.5C 121.338,258.527 121.505,260.527 122,262.5C 122.61,259.173 123.11,255.839 123.5,252.5C 125.072,249.785 126.072,246.785 126.5,243.5C 127.931,242.22 128.598,240.553 128.5,238.5C 130.063,237.055 131.396,235.389 132.5,233.5C 133.833,233.167 133.833,232.833 132.5,232.5C 132.842,231.662 133.508,231.328 134.5,231.5C 138.149,232.705 141.983,233.705 146,234.5C 147.07,234.472 147.903,234.139 148.5,233.5C 155.485,234.089 162.485,234.422 169.5,234.5C 170.849,235.797 172.182,235.63 173.5,234C 173.272,233.601 172.938,233.435 172.5,233.5C 172.842,232.662 173.508,232.328 174.5,232.5C 175.758,233.016 176.758,232.35 177.5,230.5C 178.906,230.027 179.573,229.027 179.5,227.5C 180.338,227.158 180.672,226.492 180.5,225.5C 183.167,222.167 183.167,218.833 180.5,215.5C 180.155,212.802 178.822,210.802 176.5,209.5C 176.027,208.094 175.027,207.427 173.5,207.5C 172.22,206.069 170.553,205.402 168.5,205.5C 165.713,204.523 162.713,204.19 159.5,204.5C 157.016,203.631 154.349,202.964 151.5,202.5C 150.584,202.543 149.917,202.876 149.5,203.5C 147.102,203.741 145.102,203.074 143.5,201.5C 144.239,201.631 144.906,201.464 145.5,201C 141.328,199.412 137.328,197.579 133.5,195.5C 133.027,194.094 132.027,193.427 130.5,193.5C 127.192,190.529 123.859,187.529 120.5,184.5C 120.573,182.973 119.906,181.973 118.5,181.5C 118.5,180.833 118.167,180.5 117.5,180.5C 117.573,178.973 116.906,177.973 115.5,177.5C 115.573,175.973 114.906,174.973 113.5,174.5C 112.674,171.515 111.341,168.849 109.5,166.5C 109.737,165.209 109.404,164.209 108.5,163.5C 108.737,162.209 108.404,161.209 107.5,160.5C 107.451,156.922 106.785,153.589 105.5,150.5C 105.5,144.5 105.5,138.5 105.5,132.5C 106.551,129.145 107.551,125.645 108.5,122C 108.43,121.235 108.097,120.735 107.5,120.5C 107.263,119.209 107.596,118.209 108.5,117.5C 108.413,114.402 108.913,114.068 110,116.5C 111.454,113.929 112.62,111.262 113.5,108.5C 114.338,108.158 114.672,107.492 114.5,106.5C 115.906,106.027 116.573,105.027 116.5,103.5C 118.262,102.738 119.262,101.404 119.5,99.5C 120.167,99.5 120.5,99.1667 120.5,98.5C 122.833,96.8333 124.833,94.8333 126.5,92.5C 137.626,83.8434 150.293,79.0101 164.5,78C 161.854,77.5026 159.187,77.3359 156.5,77.5C 159.287,76.5233 162.287,76.19 165.5,76.5C 167.167,77.8333 168.833,77.8333 170.5,76.5C 173.713,76.19 176.713,76.5233 179.5,77.5C 176.813,77.3359 174.146,77.5026 171.5,78C 182.797,78.6146 193.297,81.7812 203,87.5C 203.399,87.2716 203.565,86.9382 203.5,86.5C 204.492,86.3284 205.158,86.6618 205.5,87.5C 205.062,87.4346 204.728,87.6012 204.5,88C 205.693,89.0946 207.027,89.928 208.5,90.5C 208.973,91.9063 209.973,92.573 211.5,92.5C 214.092,95.4559 217.426,96.7892 221.5,96.5C 226.096,96.6995 229.763,95.0328 232.5,91.5C 234.25,90.3406 235.25,88.674 235.5,86.5C 236.338,86.1583 236.672,85.4916 236.5,84.5C 237.906,84.0269 238.573,83.0269 238.5,81.5C 239.906,81.0269 240.573,80.0269 240.5,78.5C 241.167,78.5 241.5,78.1667 241.5,77.5C 243.262,76.7377 244.262,75.4044 244.5,73.5C 250.318,67.4432 256.651,62.1098 263.5,57.5C 264.492,57.6716 265.158,57.3382 265.5,56.5C 268.09,55.8717 270.423,54.705 272.5,53C 271.906,52.5357 271.239,52.369 270.5,52.5C 271.78,51.0687 273.447,50.4021 275.5,50.5C 275.56,51.0431 275.893,51.3764 276.5,51.5C 282.244,48.6407 288.244,46.4741 294.5,45C 293.552,44.5172 292.552,44.3505 291.5,44.5C 293.838,42.9605 296.505,42.2938 299.5,42.5C 305.427,40.9929 311.594,40.3262 318,40.5C 324.406,40.3262 330.573,40.9929 336.5,42.5 Z M 196.5,48.5 C 198.553,48.4021 200.22,49.0687 201.5,50.5C 199.447,50.5979 197.78,49.9313 196.5,48.5 Z M 153.5,204.5 C 155.5,204.5 157.5,204.5 159.5,204.5C 162.287,205.477 165.287,205.81 168.5,205.5C 168.5,205.833 168.5,206.167 168.5,206.5C 163.234,206.811 158.234,206.145 153.5,204.5 Z M 223.5,372.5 C 221.194,372.993 218.861,373.326 216.5,373.5C 218.713,371.688 221.047,371.355 223.5,372.5 Z M 339.5,373.5 C 340.5,373.5 341.5,373.5 342.5,373.5C 341.22,374.931 339.553,375.598 337.5,375.5C 337.5,375.167 337.5,374.833 337.5,374.5C 338.492,374.672 339.158,374.338 339.5,373.5 Z"/></g>
<g><path style="opacity:0.01" fill="#13c1ab" d="M 295.5,6.5 C 293.901,6.23219 292.568,6.56552 291.5,7.5C 287.107,7.54315 286.774,7.04315 290.5,6C 292.387,5.22039 294.054,5.38705 295.5,6.5 Z"/></g>
<g><path style="opacity:0.012" fill="#13c1ab" d="M 366.5,11.5 C 366.897,10.475 367.563,10.3083 368.5,11C 367.906,11.4643 367.239,11.631 366.5,11.5 Z"/></g>
<g><path style="opacity:0.008" fill="#13c1ab" d="M 369.5,12.5 C 369.897,11.475 370.563,11.3083 371.5,12C 370.906,12.4643 370.239,12.631 369.5,12.5 Z"/></g>
<g><path style="opacity:0.008" fill="#13c1ab" d="M 373.5,14.5 C 373.897,13.475 374.563,13.3083 375.5,14C 374.906,14.4643 374.239,14.631 373.5,14.5 Z"/></g>
<g><path style="opacity:0.008" fill="#13c1ab" d="M 265.5,15.5 C 265.897,14.475 266.563,14.3083 267.5,15C 266.906,15.4643 266.239,15.631 265.5,15.5 Z"/></g>
<g><path style="opacity:0.008" fill="#13c1ab" d="M 376.5,15.5 C 376.897,14.475 377.563,14.3083 378.5,15C 377.906,15.4643 377.239,15.631 376.5,15.5 Z"/></g>
<g><path style="opacity:0.008" fill="#13c1ab" d="M 263.5,16.5 C 263.842,15.6618 264.508,15.3284 265.5,15.5C 265.158,16.3382 264.492,16.6716 263.5,16.5 Z"/></g>
<g><path style="opacity:0.012" fill="#13c1ab" d="M 263.5,16.5 C 262.833,17.1667 262.833,17.1667 263.5,16.5 Z"/></g>
<g><path style="opacity:0.008" fill="#13c1ab" d="M 249.5,26.5 C 248.833,26.5 248.5,26.8333 248.5,27.5C 246.025,27.2533 246.025,26.5866 248.5,25.5C 249.107,25.6236 249.44,25.9569 249.5,26.5 Z"/></g>
<g><path style="opacity:0.008" fill="#13c1ab" d="M 239.5,34.5 C 238.833,34.5 238.5,34.8333 238.5,35.5C 236.025,35.2533 236.025,34.5866 238.5,33.5C 239.107,33.6236 239.44,33.9569 239.5,34.5 Z"/></g>
<g><path style="opacity:0.01" fill="#13c1ab" d="M 181.5,44.5 C 182.601,43.4017 183.934,43.235 185.5,44C 184.207,44.49 182.873,44.6567 181.5,44.5 Z"/></g>
<g><path style="opacity:0.01" fill="#13c1ab" d="M 186.5,45.5 C 187.251,44.4265 188.251,44.2599 189.5,45C 188.552,45.4828 187.552,45.6495 186.5,45.5 Z"/></g>
<g><path style="opacity:0.01" fill="#13c1ab" d="M 190.5,46.5 C 191.251,45.4265 192.251,45.2599 193.5,46C 192.552,46.4828 191.552,46.6495 190.5,46.5 Z"/></g>
<g><path style="opacity:0.013" fill="#13c1ab" d="M 220.5,52.5 C 220.5,52.8333 220.5,53.1667 220.5,53.5C 219.833,53.5 219.5,53.8333 219.5,54.5C 217.207,53.6987 217.54,53.032 220.5,52.5 Z"/></g>
<g><path style="opacity:0.009" fill="#13c1ab" d="M 406.5,102.5 C 406.833,102.5 407.167,102.5 407.5,102.5C 407.328,103.492 407.662,104.158 408.5,104.5C 408.5,105.5 408.5,106.5 408.5,107.5C 407.069,106.22 406.402,104.553 406.5,102.5 Z"/></g>
<g><path style="opacity:0.012" fill="#13c1ab" d="M 69.5,109.5 C 70.525,109.897 70.6917,110.563 70,111.5C 69.5357,110.906 69.369,110.239 69.5,109.5 Z"/></g>
<g><path style="opacity:0.01" fill="#13c1ab" d="M 69.5,115.5 C 68.4265,114.749 68.2599,113.749 69,112.5C 69.4828,113.448 69.6495,114.448 69.5,115.5 Z"/></g>
<g><path style="opacity:0.012" fill="#13c1ab" d="M 67.5,116.5 C 68.5735,117.251 68.7401,118.251 68,119.5C 67.5172,118.552 67.3505,117.552 67.5,116.5 Z"/></g>
<g><path style="opacity:0.008" fill="#13c1ab" d="M 463.5,156.5 C 463.897,155.475 464.563,155.308 465.5,156C 467.333,157.833 469.167,159.667 471,161.5C 471.692,162.437 471.525,163.103 470.5,163.5C 469.833,163.5 469.5,163.167 469.5,162.5C 468.833,162.5 468.5,162.167 468.5,161.5C 467.833,161.5 467.5,161.167 467.5,160.5C 466.833,160.5 466.5,160.167 466.5,159.5C 465.833,159.5 465.5,159.167 465.5,158.5C 464.833,158.5 464.5,158.167 464.5,157.5C 463.833,157.5 463.5,157.167 463.5,156.5 Z"/></g>
<g><path style="opacity:0.009" fill="#13c1ab" d="M 67.5,157.5 C 67.8333,157.5 68.1667,157.5 68.5,157.5C 68.1667,162.833 67.8333,162.833 67.5,157.5 Z"/></g>
<g><path style="opacity:0.009" fill="#13c1ab" d="M 69.5,165.5 C 68.4265,164.749 68.2599,163.749 69,162.5C 69.4828,163.448 69.6495,164.448 69.5,165.5 Z"/></g>
<g><path style="opacity:0.011" fill="#13c1ab" d="M 496.5,215.5 C 497.833,224.167 497.833,232.833 496.5,241.5C 496.5,232.833 496.5,224.167 496.5,215.5 Z"/></g>
<g><path style="opacity:0.01" fill="#13c1ab" d="M 495.5,241.5 C 495.833,241.5 496.167,241.5 496.5,241.5C 496.795,243.735 496.461,245.735 495.5,247.5C 495.5,245.5 495.5,243.5 495.5,241.5 Z"/></g>
<g><path style="opacity:0.012" fill="#13c1ab" d="M 494.5,247.5 C 494.833,247.5 495.167,247.5 495.5,247.5C 495.768,249.099 495.434,250.432 494.5,251.5C 494.5,250.167 494.5,248.833 494.5,247.5 Z"/></g>
<g><path style="opacity:0.008" fill="#13c1ab" d="M 489.5,264.5 C 489.833,264.5 490.167,264.5 490.5,264.5C 490.737,265.791 490.404,266.791 489.5,267.5C 489.5,266.5 489.5,265.5 489.5,264.5 Z"/></g>
<g><path style="opacity:0.01" fill="#13c1ab" d="M 488.5,267.5 C 488.833,267.5 489.167,267.5 489.5,267.5C 489.672,268.492 489.338,269.158 488.5,269.5C 488.5,268.833 488.5,268.167 488.5,267.5 Z"/></g>
<g><path style="opacity:0.01" fill="#13c1ab" d="M 487.5,269.5 C 487.833,269.5 488.167,269.5 488.5,269.5C 488.672,270.492 488.338,271.158 487.5,271.5C 487.5,270.833 487.5,270.167 487.5,269.5 Z"/></g>
<g><path style="opacity:0.012" fill="#13c1ab" d="M 476.5,288.5 C 476.833,288.5 477.167,288.5 477.5,288.5C 477.315,289.17 476.981,289.17 476.5,288.5 Z"/></g>
<g><path style="opacity:0.012" fill="#13c1ab" d="M 473.5,292.5 C 473.833,292.5 474.167,292.5 474.5,292.5C 474.315,293.17 473.981,293.17 473.5,292.5 Z"/></g>
<g><path style="opacity:0.012" fill="#13c1ab" d="M 472.5,293.5 C 472.833,293.5 473.167,293.5 473.5,293.5C 473.315,294.17 472.981,294.17 472.5,293.5 Z"/></g>
<g><path style="opacity:0.016" fill="#13c1ab" d="M 471.5,294.5 C 471.833,294.5 472.167,294.5 472.5,294.5C 472.315,295.17 471.981,295.17 471.5,294.5 Z"/></g>
<g><path style="opacity:0.016" fill="#13c1ab" d="M 470.5,295.5 C 470.833,295.5 471.167,295.5 471.5,295.5C 471.315,296.17 470.981,296.17 470.5,295.5 Z"/></g>
<g><path style="opacity:0.016" fill="#13c1ab" d="M 469.5,296.5 C 469.833,296.5 470.167,296.5 470.5,296.5C 470.315,297.17 469.981,297.17 469.5,296.5 Z"/></g>
<g><path style="opacity:0.016" fill="#13c1ab" d="M 468.5,297.5 C 468.833,297.5 469.167,297.5 469.5,297.5C 469.315,298.17 468.981,298.17 468.5,297.5 Z"/></g>
<g><path style="opacity:0.016" fill="#13c1ab" d="M 467.5,298.5 C 467.833,298.5 468.167,298.5 468.5,298.5C 468.315,299.17 467.981,299.17 467.5,298.5 Z"/></g>
<g><path style="opacity:0.016" fill="#13c1ab" d="M 466.5,299.5 C 466.833,299.5 467.167,299.5 467.5,299.5C 467.315,300.17 466.981,300.17 466.5,299.5 Z"/></g>
<g><path style="opacity:0.016" fill="#13c1ab" d="M 465.5,300.5 C 465.833,300.5 466.167,300.5 466.5,300.5C 466.315,301.17 465.981,301.17 465.5,300.5 Z"/></g>
<g><path style="opacity:0.016" fill="#13c1ab" d="M 464.5,301.5 C 464.833,301.5 465.167,301.5 465.5,301.5C 465.315,302.17 464.981,302.17 464.5,301.5 Z"/></g>
<g><path style="opacity:0.009" fill="#13c1ab" d="M 385.5,302.5 C 385.5,302.833 385.5,303.167 385.5,303.5C 384.833,303.5 384.5,303.833 384.5,304.5C 384.167,304.5 383.833,304.5 383.5,304.5C 383.5,303.167 384.167,302.5 385.5,302.5 Z"/></g>
<g><path style="opacity:0.016" fill="#13c1ab" d="M 463.5,302.5 C 463.833,302.5 464.167,302.5 464.5,302.5C 464.315,303.17 463.981,303.17 463.5,302.5 Z"/></g>
<g><path style="opacity:0.012" fill="#13c1ab" d="M 462.5,303.5 C 462.833,303.5 463.167,303.5 463.5,303.5C 463.315,304.17 462.981,304.17 462.5,303.5 Z"/></g>
<g><path style="opacity:0.008" fill="#13c1ab" d="M 461.5,304.5 C 461.833,304.5 462.167,304.5 462.5,304.5C 462.315,305.17 461.981,305.17 461.5,304.5 Z"/></g>
<g><path style="opacity:0.008" fill="#13c1ab" d="M 459.5,306.5 C 459.5,306.167 459.5,305.833 459.5,305.5C 460.167,305.5 460.833,305.5 461.5,305.5C 461.158,306.338 460.492,306.672 459.5,306.5 Z"/></g>
<g><path style="opacity:0.012" fill="#13c1ab" d="M 458.5,306.5 C 458.833,306.5 459.167,306.5 459.5,306.5C 459.315,307.17 458.981,307.17 458.5,306.5 Z"/></g>
<g><path style="opacity:0.012" fill="#13c1ab" d="M 457.5,307.5 C 457.833,307.5 458.167,307.5 458.5,307.5C 458.315,308.17 457.981,308.17 457.5,307.5 Z"/></g>
<g><path style="opacity:0.008" fill="#13c1ab" d="M 455.5,309.5 C 455.5,309.167 455.5,308.833 455.5,308.5C 456.167,308.5 456.833,308.5 457.5,308.5C 457.158,309.338 456.492,309.672 455.5,309.5 Z"/></g>
<g><path style="opacity:0.012" fill="#13c1ab" d="M 454.5,309.5 C 454.833,309.5 455.167,309.5 455.5,309.5C 455.315,310.17 454.981,310.17 454.5,309.5 Z"/></g>
<g><path style="opacity:0.008" fill="#13c1ab" d="M 452.5,311.5 C 452.5,311.167 452.5,310.833 452.5,310.5C 453.167,310.5 453.833,310.5 454.5,310.5C 454.158,311.338 453.492,311.672 452.5,311.5 Z"/></g>
<g><path style="opacity:0.012" fill="#13c1ab" d="M 451.5,311.5 C 451.833,311.5 452.167,311.5 452.5,311.5C 452.315,312.17 451.981,312.17 451.5,311.5 Z"/></g>
<g><path style="opacity:0.008" fill="#13c1ab" d="M 449.5,313.5 C 449.5,313.167 449.5,312.833 449.5,312.5C 450.167,312.5 450.833,312.5 451.5,312.5C 451.158,313.338 450.492,313.672 449.5,313.5 Z"/></g>
<g><path style="opacity:0.008" fill="#13c1ab" d="M 448.5,313.5 C 448.833,313.5 449.167,313.5 449.5,313.5C 449.315,314.17 448.981,314.17 448.5,313.5 Z"/></g>
<g><path style="opacity:0.008" fill="#13c1ab" d="M 446.5,315.5 C 446.5,315.167 446.5,314.833 446.5,314.5C 447.167,314.5 447.833,314.5 448.5,314.5C 448.158,315.338 447.492,315.672 446.5,315.5 Z"/></g>
<g><path style="opacity:0.008" fill="#13c1ab" d="M 444.5,316.5 C 444.5,316.167 444.5,315.833 444.5,315.5C 445.167,315.5 445.833,315.5 446.5,315.5C 446.158,316.338 445.492,316.672 444.5,316.5 Z"/></g>
<g><path style="opacity:0.01" fill="#13c1ab" d="M 442.5,317.5 C 442.5,317.167 442.5,316.833 442.5,316.5C 443.167,316.5 443.833,316.5 444.5,316.5C 444.158,317.338 443.492,317.672 442.5,317.5 Z"/></g>
<g><path style="opacity:0.01" fill="#13c1ab" d="M 440.5,318.5 C 440.5,318.167 440.5,317.833 440.5,317.5C 441.167,317.5 441.833,317.5 442.5,317.5C 442.158,318.338 441.492,318.672 440.5,318.5 Z"/></g>
<g><path style="opacity:0.007" fill="#13c1ab" d="M 437.5,319.5 C 437.5,319.167 437.5,318.833 437.5,318.5C 438.5,318.5 439.5,318.5 440.5,318.5C 439.791,319.404 438.791,319.737 437.5,319.5 Z"/></g>
<g><path style="opacity:0.008" fill="#13c1ab" d="M 435.5,320.5 C 435.5,320.167 435.5,319.833 435.5,319.5C 436.167,319.5 436.833,319.5 437.5,319.5C 437.158,320.338 436.492,320.672 435.5,320.5 Z"/></g>
<g><path style="opacity:0.008" fill="#13c1ab" d="M 432.5,321.5 C 432.5,321.167 432.5,320.833 432.5,320.5C 433.5,320.5 434.5,320.5 435.5,320.5C 434.791,321.404 433.791,321.737 432.5,321.5 Z"/></g>
<g><path style="opacity:0.01" fill="#13c1ab" d="M 430.5,321.5 C 431.167,321.5 431.833,321.5 432.5,321.5C 431.833,322.833 431.167,322.833 430.5,321.5 Z"/></g>
<g><path style="opacity:0.012" fill="#13c1ab" d="M 427.5,323.5 C 427.897,322.475 428.563,322.308 429.5,323C 428.906,323.464 428.239,323.631 427.5,323.5 Z"/></g>
<g><path style="opacity:0.009" fill="#13c1ab" d="M 423.5,324.5 C 423.5,324.167 423.5,323.833 423.5,323.5C 427.5,323.833 427.5,324.167 423.5,324.5 Z"/></g>
<g><path style="opacity:0.009" fill="#13c1ab" d="M 420.5,325.5 C 420.5,325.167 420.5,324.833 420.5,324.5C 421.5,324.5 422.5,324.5 423.5,324.5C 422.791,325.404 421.791,325.737 420.5,325.5 Z"/></g>
<g><path style="opacity:0.014" fill="#13c1ab" d="M 418.5,326.5 C 418.5,326.167 418.5,325.833 418.5,325.5C 419.167,325.5 419.833,325.5 420.5,325.5C 420.158,326.338 419.492,326.672 418.5,326.5 Z"/></g>
<g><path style="opacity:0.012" fill="#13c1ab" d="M 411.5,350.5 C 412.525,350.897 412.692,351.563 412,352.5C 411.536,351.906 411.369,351.239 411.5,350.5 Z"/></g>
<g><path style="opacity:0.012" fill="#13c1ab" d="M 410.5,353.5 C 411.833,354.167 411.833,354.833 410.5,355.5C 410.5,354.833 410.5,354.167 410.5,353.5 Z"/></g>
<g><path style="opacity:0.007" fill="#13c1ab" d="M 409.5,355.5 C 409.833,355.5 410.167,355.5 410.5,355.5C 410.737,356.791 410.404,357.791 409.5,358.5C 409.5,357.5 409.5,356.5 409.5,355.5 Z"/></g>
<g><path style="opacity:0.01" fill="#13c1ab" d="M 408.5,358.5 C 408.833,358.5 409.167,358.5 409.5,358.5C 409.672,359.492 409.338,360.158 408.5,360.5C 408.5,359.833 408.5,359.167 408.5,358.5 Z"/></g>
<g><path style="opacity:0.008" fill="#13c1ab" d="M 129.5,359.5 C 130.167,359.5 130.5,359.833 130.5,360.5C 129.503,361.713 128.503,361.546 127.5,360C 128.094,359.536 128.761,359.369 129.5,359.5 Z"/></g>
<g><path style="opacity:0.01" fill="#13c1ab" d="M 407.5,360.5 C 407.833,360.5 408.167,360.5 408.5,360.5C 408.672,361.492 408.338,362.158 407.5,362.5C 407.5,361.833 407.5,361.167 407.5,360.5 Z"/></g>
<g><path style="opacity:0.01" fill="#13c1ab" d="M 406.5,362.5 C 406.833,362.5 407.167,362.5 407.5,362.5C 407.672,363.492 407.338,364.158 406.5,364.5C 406.5,363.833 406.5,363.167 406.5,362.5 Z"/></g>
<g><path style="opacity:0.012" fill="#13c1ab" d="M 136.5,364.5 C 135.833,365.167 135.833,365.167 136.5,364.5 Z"/></g>
<g><path style="opacity:0.008" fill="#13c1ab" d="M 405.5,364.5 C 405.833,364.5 406.167,364.5 406.5,364.5C 406.672,365.492 406.338,366.158 405.5,366.5C 405.5,365.833 405.5,365.167 405.5,364.5 Z"/></g>
<g><path style="opacity:0.01" fill="#13c1ab" d="M 404.5,366.5 C 404.833,366.5 405.167,366.5 405.5,366.5C 405.672,367.492 405.338,368.158 404.5,368.5C 404.5,367.833 404.5,367.167 404.5,366.5 Z"/></g>
<g><path style="opacity:0.01" fill="#13c1ab" d="M 157.5,373.5 C 157.5,373.833 157.5,374.167 157.5,374.5C 153.5,374.167 153.5,373.833 157.5,373.5 Z"/></g>
<g><path style="opacity:0.009" fill="#13c1ab" d="M 157.5,374.5 C 158.552,374.351 159.552,374.517 160.5,375C 159.251,375.74 158.251,375.573 157.5,374.5 Z"/></g>
<g><path style="opacity:0.01" fill="#13c1ab" d="M 213.5,375.5 C 214.251,374.427 215.251,374.26 216.5,375C 215.552,375.483 214.552,375.649 213.5,375.5 Z"/></g>
<g><path style="opacity:0.009" fill="#13c1ab" d="M 208.5,376.5 C 208.5,376.167 208.5,375.833 208.5,375.5C 213.833,375.833 213.833,376.167 208.5,376.5 Z"/></g>
<g><path style="opacity:0.009" fill="#13c1ab" d="M 170.5,376.5 C 169.054,377.613 167.387,377.78 165.5,377C 167.134,376.506 168.801,376.34 170.5,376.5 Z"/></g>
<g><path style="opacity:0.009" fill="#13c1ab" d="M 203.5,377.5 C 203.5,377.167 203.5,376.833 203.5,376.5C 205.167,376.5 206.833,376.5 208.5,376.5C 207.081,377.451 205.415,377.784 203.5,377.5 Z"/></g>
<g><path style="opacity:0.009" fill="#13c1ab" d="M 194.5,378.5 C 194.5,378.167 194.5,377.833 194.5,377.5C 197.5,377.5 200.5,377.5 203.5,377.5C 200.713,378.477 197.713,378.81 194.5,378.5 Z"/></g>
<g><path style="opacity:0.008" fill="#13c1ab" d="M 194.5,378.5 C 189.684,379.65 184.684,379.816 179.5,379C 184.489,378.501 189.489,378.334 194.5,378.5 Z"/></g>
<g><path style="opacity:0.012" fill="#13c1ab" d="M 396.5,379.5 C 396.833,379.5 397.167,379.5 397.5,379.5C 397.315,380.17 396.981,380.17 396.5,379.5 Z"/></g>
<g><path style="opacity:0.012" fill="#13c1ab" d="M 392.5,384.5 C 392.833,384.5 393.167,384.5 393.5,384.5C 393.315,385.17 392.981,385.17 392.5,384.5 Z"/></g>
<g><path style="opacity:0.016" fill="#13c1ab" d="M 391.5,385.5 C 391.833,385.5 392.167,385.5 392.5,385.5C 392.315,386.17 391.981,386.17 391.5,385.5 Z"/></g>
<g><path style="opacity:0.007" fill="#13c1ab" d="M 390.5,386.5 C 390.833,386.5 391.167,386.5 391.5,386.5C 389.5,390.5 386.5,393.5 382.5,395.5C 382.5,395.167 382.5,394.833 382.5,394.5C 383.167,394.5 383.5,394.167 383.5,393.5C 384.167,393.5 384.5,393.167 384.5,392.5C 385.167,392.5 385.5,392.167 385.5,391.5C 386.167,391.5 386.5,391.167 386.5,390.5C 387.167,390.5 387.5,390.167 387.5,389.5C 388.167,389.5 388.5,389.167 388.5,388.5C 389.167,388.5 389.5,388.167 389.5,387.5C 390.167,387.5 390.5,387.167 390.5,386.5 Z"/></g>
<g><path style="opacity:0.012" fill="#13c1ab" d="M 381.5,395.5 C 381.833,395.5 382.167,395.5 382.5,395.5C 382.315,396.17 381.981,396.17 381.5,395.5 Z"/></g>
<g><path style="opacity:0.016" fill="#13c1ab" d="M 380.5,396.5 C 380.833,396.5 381.167,396.5 381.5,396.5C 381.315,397.17 380.981,397.17 380.5,396.5 Z"/></g>
<g><path style="opacity:0.012" fill="#13c1ab" d="M 379.5,397.5 C 379.833,397.5 380.167,397.5 380.5,397.5C 380.315,398.17 379.981,398.17 379.5,397.5 Z"/></g>
<g><path style="opacity:0.012" fill="#13c1ab" d="M 378.5,398.5 C 378.833,398.5 379.167,398.5 379.5,398.5C 379.315,399.17 378.981,399.17 378.5,398.5 Z"/></g>
<g><path style="opacity:0.012" fill="#13c1ab" d="M 374.5,401.5 C 374.833,401.5 375.167,401.5 375.5,401.5C 375.315,402.17 374.981,402.17 374.5,401.5 Z"/></g>
<g><path style="opacity:0.008" fill="#13c1ab" d="M 373.5,402.5 C 373.833,402.5 374.167,402.5 374.5,402.5C 374.315,403.17 373.981,403.17 373.5,402.5 Z"/></g>
<g><path style="opacity:0.01" fill="#13c1ab" d="M 371.5,404.5 C 371.5,404.167 371.5,403.833 371.5,403.5C 372.167,403.5 372.833,403.5 373.5,403.5C 373.158,404.338 372.492,404.672 371.5,404.5 Z"/></g>
<g><path style="opacity:0.008" fill="#13c1ab" d="M 370.5,404.5 C 370.833,404.5 371.167,404.5 371.5,404.5C 371.315,405.17 370.981,405.17 370.5,404.5 Z"/></g>
<g><path style="opacity:0.008" fill="#13c1ab" d="M 368.5,406.5 C 368.5,406.167 368.5,405.833 368.5,405.5C 369.167,405.5 369.833,405.5 370.5,405.5C 370.158,406.338 369.492,406.672 368.5,406.5 Z"/></g>
<g><path style="opacity:0.006" fill="#13c1ab" d="M 366.5,407.5 C 366.5,407.167 366.5,406.833 366.5,406.5C 367.167,406.5 367.833,406.5 368.5,406.5C 368.158,407.338 367.492,407.672 366.5,407.5 Z"/></g>
<g><path style="opacity:0.012" fill="#13c1ab" d="M 365.5,407.5 C 365.833,407.5 366.167,407.5 366.5,407.5C 366.315,408.17 365.981,408.17 365.5,407.5 Z"/></g>
<g><path style="opacity:0.008" fill="#13c1ab" d="M 363.5,409.5 C 363.5,409.167 363.5,408.833 363.5,408.5C 364.167,408.5 364.833,408.5 365.5,408.5C 365.158,409.338 364.492,409.672 363.5,409.5 Z"/></g>
<g><path style="opacity:0.008" fill="#13c1ab" d="M 266.5,409.5 C 266.5,409.833 266.5,410.167 266.5,410.5C 263.833,410.167 263.833,409.833 266.5,409.5 Z"/></g>
<g><path style="opacity:0.008" fill="#13c1ab" d="M 361.5,410.5 C 361.5,410.167 361.5,409.833 361.5,409.5C 362.167,409.5 362.833,409.5 363.5,409.5C 363.158,410.338 362.492,410.672 361.5,410.5 Z"/></g>
<g><path style="opacity:0.012" fill="#13c1ab" d="M 266.5,410.5 C 267.833,411.167 267.833,411.167 266.5,410.5 Z"/></g>
<g><path style="opacity:0.01" fill="#13c1ab" d="M 359.5,411.5 C 359.5,411.167 359.5,410.833 359.5,410.5C 360.167,410.5 360.833,410.5 361.5,410.5C 361.158,411.338 360.492,411.672 359.5,411.5 Z"/></g>
<g><path style="opacity:0.01" fill="#13c1ab" d="M 357.5,412.5 C 357.5,412.167 357.5,411.833 357.5,411.5C 358.167,411.5 358.833,411.5 359.5,411.5C 359.158,412.338 358.492,412.672 357.5,412.5 Z"/></g>
<g><path style="opacity:0.01" fill="#13c1ab" d="M 355.5,413.5 C 355.5,413.167 355.5,412.833 355.5,412.5C 356.167,412.5 356.833,412.5 357.5,412.5C 357.158,413.338 356.492,413.672 355.5,413.5 Z"/></g>
<g><path style="opacity:0.01" fill="#13c1ab" d="M 353.5,414.5 C 353.5,414.167 353.5,413.833 353.5,413.5C 354.167,413.5 354.833,413.5 355.5,413.5C 355.158,414.338 354.492,414.672 353.5,414.5 Z"/></g>
<g><path style="opacity:0.008" fill="#13c1ab" d="M 277.5,414.5 C 277.842,415.338 278.508,415.672 279.5,415.5C 277.911,416.621 276.244,416.454 274.5,415C 275.448,414.517 276.448,414.351 277.5,414.5 Z"/></g>
<g><path style="opacity:0.008" fill="#13c1ab" d="M 350.5,414.5 C 351.5,414.5 352.5,414.5 353.5,414.5C 352.22,415.931 350.553,416.598 348.5,416.5C 348.5,416.167 348.5,415.833 348.5,415.5C 349.492,415.672 350.158,415.338 350.5,414.5 Z"/></g>
<g><path style="opacity:0.01" fill="#13c1ab" d="M 345.5,417.5 C 345.5,417.167 345.5,416.833 345.5,416.5C 346.5,416.5 347.5,416.5 348.5,416.5C 347.791,417.404 346.791,417.737 345.5,417.5 Z"/></g>
<g><path style="opacity:0.01" fill="#13c1ab" d="M 342.5,418.5 C 342.5,418.167 342.5,417.833 342.5,417.5C 343.5,417.5 344.5,417.5 345.5,417.5C 344.791,418.404 343.791,418.737 342.5,418.5 Z"/></g>
<g><path style="opacity:0.009" fill="#13c1ab" d="M 338.5,419.5 C 338.5,419.167 338.5,418.833 338.5,418.5C 339.833,418.5 341.167,418.5 342.5,418.5C 341.432,419.434 340.099,419.768 338.5,419.5 Z"/></g>
<g><path style="opacity:0.01" fill="#13c1ab" d="M 338.5,419.5 C 337.399,420.598 336.066,420.765 334.5,420C 335.793,419.51 337.127,419.343 338.5,419.5 Z"/></g>
<g><path style="opacity:0.008" fill="#13c1ab" d="M 300.5,420.5 C 298.712,421.622 296.712,421.789 294.5,421C 296.473,420.505 298.473,420.338 300.5,420.5 Z"/></g>
<g><path style="opacity:0.01" fill="#13c1ab" d="M 328.5,421.5 C 329.946,420.387 331.613,420.22 333.5,421C 331.866,421.494 330.199,421.66 328.5,421.5 Z"/></g>
<g><path style="opacity:0.009" fill="#13c1ab" d="M 301.5,422.5 C 309.99,421.343 318.657,421.176 327.5,422C 318.84,422.5 310.173,422.666 301.5,422.5 Z"/></g>
<g><path style="opacity:0.896" fill="#13c1ab" d="M 215.5,459.5 C 214.167,461.5 214.167,463.5 215.5,465.5C 215.173,474.682 215.507,483.682 216.5,492.5C 216.268,506.527 216.768,520.527 218,534.5C 217.834,520.512 217.667,506.512 217.5,492.5C 218.277,507.386 219.277,522.386 220.5,537.5C 220.291,538.086 219.957,538.586 219.5,539C 224.188,542.614 228.522,542.28 232.5,538C 231.884,536.6 231.551,535.1 231.5,533.5C 232.234,523.182 232.734,512.848 233,502.5C 233.333,511.5 233.667,520.5 234,529.5C 235.371,506.5 235.704,483.5 235,460.5C 235.333,465.167 235.667,469.833 236,474.5C 236.215,469.085 236.715,463.752 237.5,458.5C 238.167,458.5 238.5,458.167 238.5,457.5C 242.718,453.914 246.885,454.247 251,458.5C 252.107,457.288 252.607,457.621 252.5,459.5C 251.167,460.167 251.167,460.833 252.5,461.5C 252.81,486.183 253.643,510.85 255,535.5C 255.333,529.5 255.667,523.5 256,517.5C 256.202,524.55 256.702,531.55 257.5,538.5C 256.429,540.624 257.263,541.624 260,541.5C 261.404,541.491 262.57,540.991 263.5,540C 264.122,533.42 264.122,526.587 263.5,519.5C 264.833,518.167 264.833,516.833 263.5,515.5C 263.979,509.314 266.646,505.147 271.5,503C 271.043,502.586 270.709,502.086 270.5,501.5C 271.976,498.435 274.143,497.102 277,497.5C 286.115,490.643 296.282,488.31 307.5,490.5C 314.796,492.606 320.963,496.606 326,502.5C 326.333,502.167 326.667,501.833 327,501.5C 329.639,504.45 331.473,507.783 332.5,511.5C 331.167,512.167 331.167,512.833 332.5,513.5C 333.223,518.84 334.057,524.173 335,529.5C 335.333,527.5 335.667,525.5 336,523.5C 336.093,527.841 336.093,532.174 336,536.5C 337.949,538.257 340.615,539.59 344,540.5C 344.5,540 345,539.5 345.5,539C 344.355,532.248 344.189,525.414 345,518.5C 345.333,524.833 345.667,531.167 346,537.5C 346.218,530.297 346.718,523.13 347.5,516C 347.147,510.507 348.98,505.673 353,501.5C 353.333,501.833 353.667,502.167 354,502.5C 364.962,491.014 378.129,487.347 393.5,491.5C 396.985,492.848 400.152,494.848 403,497.5C 403.718,496.549 404.551,496.383 405.5,497C 406.833,497.667 406.833,498.333 405.5,499C 406.253,500.487 407.086,500.654 408,499.5C 416.573,509.659 420.24,520.659 419,532.5C 418.722,531.584 418.222,530.918 417.5,530.5C 417.167,515.833 416.833,515.833 416.5,530.5C 415.167,531.833 415.167,533.167 416.5,534.5C 415.786,539.195 413.786,543.195 410.5,546.5C 410.167,545.167 409.833,545.167 409.5,546.5C 408.833,546.5 408.5,546.833 408.5,547.5C 407.833,547.5 407.5,547.833 407.5,548.5C 406.833,548.5 406.5,548.833 406.5,549.5C 405.833,549.5 405.5,549.833 405.5,550.5C 404.833,550.5 404.5,550.833 404.5,551.5C 403.833,551.5 403.5,551.833 403.5,552.5C 402.833,552.5 402.5,552.833 402.5,553.5C 401.508,553.328 400.842,553.662 400.5,554.5C 399.833,554.5 399.5,554.833 399.5,555.5C 398.508,555.328 397.842,555.662 397.5,556.5C 396.508,556.328 395.842,556.662 395.5,557.5C 394.209,557.263 393.209,557.596 392.5,558.5C 391.209,558.263 390.209,558.596 389.5,559.5C 383.974,559.179 378.64,559.512 373.5,560.5C 369.987,559.876 367.153,560.876 365,563.5C 364.5,571.827 364.334,580.16 364.5,588.5C 363.662,588.842 363.328,589.508 363.5,590.5C 362.833,590.5 362.5,590.833 362.5,591.5C 361.833,591.5 361.5,591.833 361.5,592.5C 360.833,592.5 360.5,592.833 360.5,593.5C 359.508,593.328 358.842,593.662 358.5,594.5C 355.138,594.93 352.305,593.93 350,591.5C 348.375,592.412 347.541,591.745 347.5,589.5C 348.163,587.359 348.497,585.025 348.5,582.5C 347.978,575.168 347.478,567.835 347,560.5C 346.667,565.167 346.333,569.833 346,574.5C 345.194,568.916 345.361,563.416 346.5,558C 342.882,556.339 339.215,556.505 335.5,558.5C 333.929,557.691 332.262,557.357 330.5,557.5C 328.684,555.863 326.684,554.363 324.5,553C 322.119,552.262 320.119,552.762 318.5,554.5C 317.508,554.328 316.842,554.662 316.5,555.5C 315.508,555.328 314.842,555.662 314.5,556.5C 313.508,556.328 312.842,556.662 312.5,557.5C 311.508,557.328 310.842,557.662 310.5,558.5C 308.901,558.232 307.568,558.566 306.5,559.5C 296.772,560.84 287.772,559.007 279.5,554C 277.613,553.22 275.946,553.387 274.5,554.5C 273.833,554.5 273.5,554.833 273.5,555.5C 272.833,555.5 272.5,555.833 272.5,556.5C 271.508,556.328 270.842,556.662 270.5,557.5C 269.833,557.5 269.5,557.833 269.5,558.5C 264.871,559.481 260.204,559.648 255.5,559C 251.37,557.029 247.37,554.862 243.5,552.5C 241.829,552.668 240.496,553.335 239.5,554.5C 238.833,554.5 238.5,554.833 238.5,555.5C 237.833,555.5 237.5,555.833 237.5,556.5C 236.508,556.328 235.842,556.662 235.5,557.5C 234.508,557.328 233.842,557.662 233.5,558.5C 232.508,558.328 231.842,558.662 231.5,559.5C 223.269,561.077 216.269,558.911 210.5,553C 208.613,552.22 206.946,552.387 205.5,553.5C 204.833,553.5 204.5,553.833 204.5,554.5C 203.508,554.328 202.842,554.662 202.5,555.5C 201.833,555.5 201.5,555.833 201.5,556.5C 200.833,556.5 200.5,556.833 200.5,557.5C 199.508,557.328 198.842,557.662 198.5,558.5C 197.508,558.328 196.842,558.662 196.5,559.5C 192.486,559.666 188.486,559.499 184.5,559C 180.448,557.314 176.781,555.148 173.5,552.5C 173.167,551.167 172.833,551.167 172.5,552.5C 171.508,552.328 170.842,552.662 170.5,553.5C 169.508,553.328 168.842,553.662 168.5,554.5C 167.833,554.5 167.5,554.833 167.5,555.5C 166.508,555.328 165.842,555.662 165.5,556.5C 164.508,556.328 163.842,556.662 163.5,557.5C 162.209,557.263 161.209,557.596 160.5,558.5C 150.47,560.521 140.803,559.521 131.5,555.5C 130.828,554.733 129.995,554.066 129,553.5C 128.282,554.451 127.449,554.617 126.5,554C 125.167,553.333 125.167,552.667 126.5,552C 124.635,549.369 122.468,547.869 120,547.5C 118.247,544.995 116.747,542.329 115.5,539.5C 114.168,529.512 114.168,519.512 115.5,509.5C 116.467,507.37 117.634,505.37 119,503.5C 122.15,502.429 124.983,500.262 127.5,497C 133.028,493.06 139.028,490.56 145.5,489.5C 156.247,489.081 165.58,492.414 173.5,499.5C 173.5,500.167 173.833,500.5 174.5,500.5C 175.851,503.092 177.685,504.426 180,504.5C 180.791,505.745 181.291,507.078 181.5,508.5C 180.167,509.167 180.167,509.833 181.5,510.5C 181.328,511.492 181.662,512.158 182.5,512.5C 182.802,515.373 183.469,518.039 184.5,520.5C 184.444,525.731 185.111,530.731 186.5,535.5C 187.795,536.031 188.462,537.364 188.5,539.5C 190.467,539.739 192.301,539.406 194,538.5C 195.374,514.52 196.374,490.52 197,466.5C 197.186,463.964 197.686,461.631 198.5,459.5C 198.886,456.738 200.219,455.738 202.5,456.5C 206.066,454.266 209.566,454.599 213,457.5C 214.625,456.588 215.459,457.255 215.5,459.5 Z M 198.5,459.5 C 198.833,459.5 199.167,459.5 199.5,459.5C 199.06,472.666 198.393,485.666 197.5,498.5C 197.339,485.482 197.673,472.482 198.5,459.5 Z M 216.5,492.5 C 216.833,492.5 217.167,492.5 217.5,492.5C 217.667,506.512 217.834,520.512 218,534.5C 216.768,520.527 216.268,506.527 216.5,492.5 Z M 295.5,508.5 C 298.959,507.135 302.292,507.469 305.5,509.5C 304.448,509.351 303.448,509.517 302.5,510C 304.154,510.608 305.821,511.108 307.5,511.5C 308.833,513.5 310.5,515.167 312.5,516.5C 312.782,517.778 313.449,518.778 314.5,519.5C 313.518,522.962 313.185,526.629 313.5,530.5C 312.326,531.514 311.66,532.847 311.5,534.5C 310.5,534.833 309.833,535.5 309.5,536.5C 306.341,538.438 303.008,539.771 299.5,540.5C 294.609,540.194 290.276,538.527 286.5,535.5C 286.008,533.181 285.008,531.181 283.5,529.5C 283.5,526.5 283.5,523.5 283.5,520.5C 284.537,519.07 285.204,517.403 285.5,515.5C 289.877,511.227 295.21,509.06 301.5,509C 299.527,508.505 297.527,508.338 295.5,508.5 Z M 384.5,508.5 C 382.473,508.338 380.473,508.505 378.5,509C 384.79,509.06 390.123,511.227 394.5,515.5C 394.796,517.403 395.463,519.07 396.5,520.5C 396.5,523.5 396.5,526.5 396.5,529.5C 395.596,530.209 395.263,531.209 395.5,532.5C 394.094,532.973 393.427,533.973 393.5,535.5C 389.724,538.527 385.391,540.194 380.5,540.5C 378.657,539.717 376.657,539.05 374.5,538.5C 373.893,538.624 373.56,538.957 373.5,539.5C 372.508,539.672 371.842,539.338 371.5,538.5C 371.628,536.871 370.628,535.538 368.5,534.5C 366.758,529.692 366.091,524.692 366.5,519.5C 367.909,517.028 369.576,514.695 371.5,512.5C 373.359,511.406 375.359,510.573 377.5,510C 376.552,509.517 375.552,509.351 374.5,509.5C 377.708,507.469 381.041,507.135 384.5,508.5 Z M 155.5,509.5 C 156.492,509.328 157.158,509.662 157.5,510.5C 157.062,510.435 156.728,510.601 156.5,511C 158.196,512.176 159.862,513.343 161.5,514.5C 161.427,516.027 162.094,517.027 163.5,517.5C 163.232,519.099 163.566,520.432 164.5,521.5C 164.5,523.833 164.5,526.167 164.5,528.5C 163.264,530.649 162.264,532.982 161.5,535.5C 158.131,538.021 154.464,539.688 150.5,540.5C 148.236,539.781 145.903,539.448 143.5,539.5C 142.329,538.655 140.995,537.989 139.5,537.5C 138.5,535.833 137.167,534.5 135.5,533.5C 135.405,531.214 134.738,529.214 133.5,527.5C 133.5,525.833 133.5,524.167 133.5,522.5C 134.458,520.698 135.125,518.698 135.5,516.5C 136.906,516.027 137.573,515.027 137.5,513.5C 143.23,510.029 149.23,508.696 155.5,509.5 Z M 299.5,540.5 C 301.167,540.5 302.833,540.5 304.5,540.5C 302.863,541.38 301.03,542.046 299,542.5C 298.235,542.43 297.735,542.097 297.5,541.5C 298.492,541.672 299.158,541.338 299.5,540.5 Z M 375.5,540.5 C 377.167,540.5 378.833,540.5 380.5,540.5C 380.842,541.338 381.508,541.672 382.5,541.5C 382.265,542.097 381.765,542.43 381,542.5C 378.97,542.046 377.137,541.38 375.5,540.5 Z"/></g>
<g><path style="opacity:0.007" fill="#13c1ab" d="M 238.5,457.5 C 237.833,457.5 237.5,457.833 237.5,458.5C 236.957,458.44 236.624,458.107 236.5,457.5C 237.257,456.227 237.923,456.227 238.5,457.5 Z"/></g>
<g><path style="opacity:0.01" fill="#13c1ab" d="M 215.5,459.5 C 216.268,460.263 216.768,461.263 217,462.5C 217.5,472.494 217.666,482.494 217.5,492.5C 217.167,492.5 216.833,492.5 216.5,492.5C 216.827,483.318 216.493,474.318 215.5,465.5C 215.5,463.5 215.5,461.5 215.5,459.5 Z"/></g>
<g><path style="opacity:0.01" fill="#13c1ab" d="M 252.5,459.5 C 253.338,459.842 253.672,460.508 253.5,461.5C 253.167,461.5 252.833,461.5 252.5,461.5C 252.5,460.833 252.5,460.167 252.5,459.5 Z"/></g>
<g><path style="opacity:0.01" fill="#13c1ab" d="M 253.5,461.5 C 254.656,469.323 254.823,477.323 254,485.5C 253.5,477.507 253.334,469.507 253.5,461.5 Z"/></g>
<g><path style="opacity:0.004" fill="#13c1ab" d="M 99.5,488.5 C 99.8966,487.475 100.563,487.308 101.5,488C 100.906,488.464 100.239,488.631 99.5,488.5 Z"/></g>
<g><path style="opacity:0.007" fill="#13c1ab" d="M 145.5,488.5 C 147.628,487.371 149.961,487.204 152.5,488C 150.19,488.497 147.857,488.663 145.5,488.5 Z"/></g>
<g><path style="opacity:0.007" fill="#13c1ab" d="M 526.5,488.5 C 528.628,487.371 530.961,487.204 533.5,488C 531.19,488.497 528.857,488.663 526.5,488.5 Z"/></g>
<g><path style="opacity:0.01" fill="#13c1ab" d="M 102.5,489.5 C 102.897,488.475 103.563,488.308 104.5,489C 103.906,489.464 103.239,489.631 102.5,489.5 Z"/></g>
<g><path style="opacity:0.009" fill="#13c1ab" d="M 145.5,488.5 C 145.5,488.833 145.5,489.167 145.5,489.5C 138.833,489.167 138.833,488.833 145.5,488.5 Z"/></g>
<g><path style="opacity:0.009" fill="#13c1ab" d="M 153.5,489.5 C 154.946,488.387 156.613,488.22 158.5,489C 156.866,489.494 155.199,489.66 153.5,489.5 Z"/></g>
<g><path style="opacity:0.009" fill="#13c1ab" d="M 254.5,488.5 C 255.657,496.656 255.823,504.99 255,513.5C 254.5,505.173 254.334,496.84 254.5,488.5 Z"/></g>
<g><path style="opacity:0.009" fill="#13c1ab" d="M 534.5,489.5 C 535.946,488.387 537.613,488.22 539.5,489C 537.866,489.494 536.199,489.66 534.5,489.5 Z"/></g>
<g><path style="opacity:0.897" fill="#13c1ab" d="M 47.5,515.5 C 47.1326,511.033 47.6326,506.7 49,502.5C 50.7566,502.867 52.2566,502.034 53.5,500C 57.2739,498.817 60.4406,499.651 63,502.5C 64.3671,501.476 65.2005,501.976 65.5,504C 64.5119,511.491 64.6786,518.991 66,526.5C 66.3333,523.167 66.6667,519.833 67,516.5C 67.0044,523.081 68.171,529.414 70.5,535.5C 69.3318,536.906 69.6652,538.072 71.5,539C 77.9119,541.731 83.5786,540.731 88.5,536C 88.0426,535.586 87.7093,535.086 87.5,534.5C 88.0269,531.79 89.0269,530.123 90.5,529.5C 91.9095,518.306 92.7428,506.973 93,495.5C 96.5051,489.377 101.005,488.377 106.5,492.5C 106.5,493.167 106.833,493.5 107.5,493.5C 107.328,494.492 107.662,495.158 108.5,495.5C 109.411,510.187 109.411,524.854 108.5,539.5C 107.167,540.167 107.167,540.833 108.5,541.5C 107.617,544.704 105.95,547.371 103.5,549.5C 103.167,548.167 102.833,548.167 102.5,549.5C 101.833,549.5 101.5,549.833 101.5,550.5C 100.833,550.5 100.5,550.833 100.5,551.5C 99.8333,551.5 99.5,551.833 99.5,552.5C 98.8333,552.5 98.5,552.833 98.5,553.5C 97.1667,553.833 97.1667,554.167 98.5,554.5C 98.0269,555.906 97.0269,556.573 95.5,556.5C 94.8333,555.167 94.1667,555.167 93.5,556.5C 92.8333,556.5 92.5,556.833 92.5,557.5C 91.209,557.263 90.209,557.596 89.5,558.5C 82.8754,560.709 76.2087,560.876 69.5,559C 65.2319,557.28 61.0653,555.447 57,553.5C 55.124,553.525 53.624,554.191 52.5,555.5C 51.5084,555.328 50.8417,555.662 50.5,556.5C 49.8333,556.5 49.5,556.833 49.5,557.5C 48.209,557.263 47.209,557.596 46.5,558.5C 34.1695,562.168 23.1695,559.835 13.5,551.5C 13.5,550.833 13.1667,550.5 12.5,550.5C 11.4579,548.209 9.95788,547.209 8,547.5C 6.63384,545.63 5.46717,543.63 4.5,541.5C 4.9312,540.707 5.26454,539.873 5.5,539C 4.57737,535.72 3.9107,532.387 3.5,529C 4.22417,517.119 5.22417,505.286 6.5,493.5C 7.16667,493.5 7.5,493.167 7.5,492.5C 9.08161,491.124 10.9149,490.124 13,489.5C 16.4276,490.78 19.4276,492.114 22,493.5C 21.5784,505.457 21.9118,517.457 23,529.5C 23.3333,523.833 23.6667,518.167 24,512.5C 24.0889,519.944 24.9223,527.278 26.5,534.5C 25.7176,536.329 26.3843,537.829 28.5,539C 34.3085,541.488 39.6419,540.821 44.5,537C 44.0426,536.586 43.7093,536.086 43.5,535.5C 44.9696,532.692 45.8029,529.692 46,526.5C 46.6667,534.5 47.3333,534.5 48,526.5C 48.8099,522.642 48.6433,518.976 47.5,515.5 Z"/></g>
<g><path style="opacity:0.009" fill="#13c1ab" d="M 307.5,490.5 C 308.251,489.427 309.251,489.26 310.5,490C 309.552,490.483 308.552,490.649 307.5,490.5 Z"/></g>
<g><path style="opacity:0.898" fill="#13c1ab" d="M 467.5,491.5 C 468.209,492.404 469.209,492.737 470.5,492.5C 472.619,494.4 474.953,496.066 477.5,497.5C 477.5,498.167 477.833,498.5 478.5,498.5C 480.299,499.748 482.133,500.748 484,501.5C 485.777,504.059 487.277,506.726 488.5,509.5C 487.167,510.167 487.167,510.833 488.5,511.5C 488.413,514.598 488.913,514.932 490,512.5C 490.977,514.74 491.477,517.073 491.5,519.5C 490.518,522.962 490.185,526.629 490.5,530.5C 489.167,531.833 489.167,533.167 490.5,534.5C 490.737,535.791 490.404,536.791 489.5,537.5C 489.167,534.833 488.833,534.833 488.5,537.5C 487.167,538.167 487.167,538.833 488.5,539.5C 488.672,540.492 488.338,541.158 487.5,541.5C 487.167,540.167 486.833,540.167 486.5,541.5C 485.167,542.167 485.167,542.833 486.5,543.5C 486.573,545.027 485.906,546.027 484.5,546.5C 484.167,545.167 483.833,545.167 483.5,546.5C 482.833,546.5 482.5,546.833 482.5,547.5C 481.833,547.5 481.5,547.833 481.5,548.5C 480.833,548.5 480.5,548.833 480.5,549.5C 479.833,549.5 479.5,549.833 479.5,550.5C 478.833,550.5 478.5,550.833 478.5,551.5C 477.833,551.5 477.5,551.833 477.5,552.5C 476.833,552.5 476.5,552.833 476.5,553.5C 475.508,553.328 474.842,553.662 474.5,554.5C 473.833,554.5 473.5,554.833 473.5,555.5C 472.508,555.328 471.842,555.662 471.5,556.5C 470.508,556.328 469.842,556.662 469.5,557.5C 468.209,557.263 467.209,557.596 466.5,558.5C 465.209,558.263 464.209,558.596 463.5,559.5C 452.466,561.199 442.466,558.866 433.5,552.5C 433.5,551.833 433.167,551.5 432.5,551.5C 431.154,549.873 429.654,549.206 428,549.5C 427.383,548.551 427.549,547.718 428.5,547C 427.257,544.966 425.757,544.133 424,544.5C 422.697,542.06 421.53,539.56 420.5,537C 420.5,529 420.5,521 420.5,513C 420.944,511.238 421.444,511.405 422,513.5C 423.964,510.982 424.63,508.316 424,505.5C 425.093,503.651 426.426,501.984 428,500.5C 428.333,500.833 428.667,501.167 429,501.5C 439.874,490.757 452.708,487.423 467.5,491.5 Z M 458.5,508.5 C 456.473,508.338 454.473,508.505 452.5,509C 458.79,509.06 464.123,511.227 468.5,515.5C 468.75,517.674 469.75,519.341 471.5,520.5C 470.523,523.287 470.19,526.287 470.5,529.5C 469.596,530.209 469.263,531.209 469.5,532.5C 468.094,532.973 467.427,533.973 467.5,535.5C 463.724,538.527 459.391,540.194 454.5,540.5C 452.657,539.717 450.657,539.05 448.5,538.5C 447.893,538.624 447.56,538.957 447.5,539.5C 446.508,539.672 445.842,539.338 445.5,538.5C 445.628,536.871 444.628,535.538 442.5,534.5C 442.34,532.847 441.674,531.514 440.5,530.5C 440.5,526.833 440.5,523.167 440.5,519.5C 442.084,516.574 444.084,513.908 446.5,511.5C 448.179,511.108 449.846,510.608 451.5,510C 450.552,509.517 449.552,509.351 448.5,509.5C 451.708,507.469 455.041,507.135 458.5,508.5 Z M 449.5,540.5 C 451.167,540.5 452.833,540.5 454.5,540.5C 454.842,541.338 455.508,541.672 456.5,541.5C 456.265,542.097 455.765,542.43 455,542.5C 452.97,542.046 451.137,541.38 449.5,540.5 Z"/></g>
<g><path style="opacity:0.9" fill="#13c1ab" d="M 564.5,515.5 C 565.74,521.506 565.74,527.506 564.5,533.5C 563.167,534.5 563.167,535.5 564.5,536.5C 563.786,540.933 561.786,544.6 558.5,547.5C 558.167,546.167 557.833,546.167 557.5,547.5C 556.833,547.5 556.5,547.833 556.5,548.5C 555.833,548.5 555.5,548.833 555.5,549.5C 554.833,549.5 554.5,549.833 554.5,550.5C 553.833,550.5 553.5,550.833 553.5,551.5C 552.833,551.5 552.5,551.833 552.5,552.5C 551.508,552.328 550.842,552.662 550.5,553.5C 549.833,553.5 549.5,553.833 549.5,554.5C 548.508,554.328 547.842,554.662 547.5,555.5C 546.833,555.5 546.5,555.833 546.5,556.5C 545.508,556.328 544.842,556.662 544.5,557.5C 543.209,557.263 542.209,557.596 541.5,558.5C 540.209,558.263 539.209,558.596 538.5,559.5C 532.642,559.178 526.975,559.511 521.5,560.5C 519.5,560.5 517.5,560.5 515.5,560.5C 515.208,570.174 514.708,579.841 514,589.5C 513.623,590.942 512.79,591.942 511.5,592.5C 511.167,591.167 510.833,591.167 510.5,592.5C 509.833,592.5 509.5,592.833 509.5,593.5C 505.763,594.542 502.263,594.542 499,593.5C 498.647,591.926 497.98,590.259 497,588.5C 495.854,562.929 495.354,537.429 495.5,512C 496.611,508.945 498.111,506.112 500,503.5C 500.667,502.167 501.333,502.167 502,503.5C 520.667,484.833 539.333,484.833 558,503.5C 558.333,503.167 558.667,502.833 559,502.5C 561.935,505.003 563.102,508.003 562.5,511.5C 562.994,513.026 563.661,514.359 564.5,515.5 Z M 536.5,509.5 C 537.492,509.328 538.158,509.662 538.5,510.5C 538.062,510.435 537.728,510.601 537.5,511C 539.196,512.176 540.862,513.343 542.5,514.5C 543.264,517.018 544.264,519.351 545.5,521.5C 545.5,523.833 545.5,526.167 545.5,528.5C 544.186,531.128 542.853,533.795 541.5,536.5C 539.973,536.427 538.973,537.094 538.5,538.5C 535.99,538.927 533.657,539.593 531.5,540.5C 529.236,539.781 526.903,539.448 524.5,539.5C 523.329,538.655 521.995,537.989 520.5,537.5C 519.5,535.833 518.167,534.5 516.5,533.5C 516.125,531.302 515.458,529.302 514.5,527.5C 514.5,525.833 514.5,524.167 514.5,522.5C 515.488,519.924 516.488,517.257 517.5,514.5C 523.319,510.164 529.653,508.497 536.5,509.5 Z"/></g>
<g><path style="opacity:0.01" fill="#13c1ab" d="M 311.5,491.5 C 311.897,490.475 312.563,490.308 313.5,491C 312.906,491.464 312.239,491.631 311.5,491.5 Z"/></g>
<g><path style="opacity:0.01" fill="#13c1ab" d="M 393.5,491.5 C 393.897,490.475 394.563,490.308 395.5,491C 394.906,491.464 394.239,491.631 393.5,491.5 Z"/></g>
<g><path style="opacity:0.01" fill="#13c1ab" d="M 467.5,491.5 C 467.897,490.475 468.563,490.308 469.5,491C 468.906,491.464 468.239,491.631 467.5,491.5 Z"/></g>
<g><path style="opacity:0.007" fill="#13c1ab" d="M 7.5,492.5 C 6.83333,492.5 6.5,492.833 6.5,493.5C 5.95691,493.44 5.62358,493.107 5.5,492.5C 6.2565,491.227 6.92317,491.227 7.5,492.5 Z"/></g>
<g><path style="opacity:0.007" fill="#13c1ab" d="M 106.5,492.5 C 107.623,491.243 108.289,491.576 108.5,493.5C 108.167,493.5 107.833,493.5 107.5,493.5C 106.833,493.5 106.5,493.167 106.5,492.5 Z"/></g>
<g><path style="opacity:0.012" fill="#13c1ab" d="M 282.5,491.5 C 283.833,492.167 283.833,492.167 282.5,491.5 Z"/></g>
<g><path style="opacity:0.012" fill="#13c1ab" d="M 396.5,491.5 C 397.833,492.167 397.833,492.167 396.5,491.5 Z"/></g>
<g><path style="opacity:0.012" fill="#13c1ab" d="M 470.5,491.5 C 471.833,492.167 471.833,492.167 470.5,491.5 Z"/></g>
<g><path style="opacity:0.012" fill="#13c1ab" d="M 472.5,492.5 C 473.833,493.167 473.833,493.167 472.5,492.5 Z"/></g>
<g><path style="opacity:0.01" fill="#13c1ab" d="M 108.5,493.5 C 109.338,493.842 109.672,494.508 109.5,495.5C 109.167,495.5 108.833,495.5 108.5,495.5C 108.5,494.833 108.5,494.167 108.5,493.5 Z"/></g>
<g><path style="opacity:0.01" fill="#13c1ab" d="M 109.5,495.5 C 110.651,500.65 110.817,505.984 110,511.5C 109.501,506.177 109.334,500.844 109.5,495.5 Z"/></g>
<g><path style="opacity:0.005" fill="#13c1ab" d="M 477.5,497.5 C 478.497,496.287 479.497,496.454 480.5,498C 479.906,498.464 479.239,498.631 478.5,498.5C 477.833,498.5 477.5,498.167 477.5,497.5 Z"/></g>
<g><path style="opacity:0.009" fill="#13c1ab" d="M 173.5,499.5 C 173.56,498.957 173.893,498.624 174.5,498.5C 175.773,499.257 175.773,499.923 174.5,500.5C 173.833,500.5 173.5,500.167 173.5,499.5 Z"/></g>
<g><path style="opacity:0.009" fill="#13c1ab" d="M 181.5,508.5 C 183.519,509.538 183.853,510.872 182.5,512.5C 182.672,511.508 182.338,510.842 181.5,510.5C 181.5,509.833 181.5,509.167 181.5,508.5 Z"/></g>
<g><path style="opacity:0.01" fill="#13c1ab" d="M 488.5,509.5 C 489.833,510.167 489.833,510.833 488.5,511.5C 488.5,510.833 488.5,510.167 488.5,509.5 Z"/></g>
<g><path style="opacity:0.012" fill="#13c1ab" d="M 332.5,511.5 C 333.833,512.167 333.833,512.833 332.5,513.5C 332.5,512.833 332.5,512.167 332.5,511.5 Z"/></g>
<g><path style="opacity:0.009" fill="#13c1ab" d="M 565.5,515.5 C 565.167,515.5 564.833,515.5 564.5,515.5C 564.833,511.5 565.167,511.5 565.5,515.5 Z"/></g>
<g><path style="opacity:0.01" fill="#13c1ab" d="M 110.5,513.5 C 111.655,520.655 111.822,527.988 111,535.5C 110.5,528.174 110.334,520.841 110.5,513.5 Z"/></g>
<g><path style="opacity:0.01" fill="#13c1ab" d="M 136.5,513.5 C 136.833,513.5 137.167,513.5 137.5,513.5C 137.573,515.027 136.906,516.027 135.5,516.5C 135.5,515.833 135.5,515.167 135.5,514.5C 136.167,514.5 136.5,514.167 136.5,513.5 Z"/></g>
<g><path style="opacity:0.009" fill="#13c1ab" d="M 90.5,529.5 C 89.3503,524.684 89.1837,519.684 90,514.5C 90.4993,519.489 90.6659,524.489 90.5,529.5 Z"/></g>
<g><path style="opacity:0.01" fill="#13c1ab" d="M 47.5,515.5 C 47.665,518.85 47.4983,522.183 47,525.5C 46.1925,521.973 46.3592,518.64 47.5,515.5 Z"/></g>
<g><path style="opacity:0.009" fill="#13c1ab" d="M 184.5,520.5 C 184.492,514.792 184.992,514.459 186,519.5C 186.667,522.167 186.667,524.833 186,527.5C 185.814,524.964 185.314,522.631 184.5,520.5 Z"/></g>
<g><path style="opacity:0.009" fill="#13c1ab" d="M 263.5,515.5 C 263.5,516.833 263.5,518.167 263.5,519.5C 262.677,522.977 262.177,526.644 262,530.5C 261.833,528.5 261.667,526.5 261.5,524.5C 261.343,521.186 262.009,518.186 263.5,515.5 Z"/></g>
<g><path style="opacity:0.009" fill="#13c1ab" d="M 565.5,515.5 C 566.451,516.919 566.784,518.585 566.5,520.5C 565.549,519.081 565.216,517.415 565.5,515.5 Z"/></g>
<g><path style="opacity:0.008" fill="#13c1ab" d="M 112.5,516.5 C 113.651,521.65 113.817,526.984 113,532.5C 112.501,527.177 112.334,521.844 112.5,516.5 Z"/></g>
<g><path style="opacity:0.009" fill="#13c1ab" d="M 493.5,516.5 C 494.622,518.288 494.789,520.288 494,522.5C 493.505,520.527 493.338,518.527 493.5,516.5 Z"/></g>
<g><path style="opacity:0.011" fill="#13c1ab" d="M 491.5,519.5 C 492.833,523.167 492.833,526.833 491.5,530.5C 491.5,526.833 491.5,523.167 491.5,519.5 Z"/></g>
<g><path style="opacity:0.004" fill="#13c1ab" d="M 566.5,520.5 C 567.634,522.966 567.801,525.633 567,528.5C 566.503,525.854 566.336,523.187 566.5,520.5 Z"/></g>
<g><path style="opacity:0.01" fill="#13c1ab" d="M 186.5,535.5 C 186.337,533.143 186.503,530.81 187,528.5C 187.796,531.039 187.629,533.372 186.5,535.5 Z"/></g>
<g><path style="opacity:0.009" fill="#13c1ab" d="M 493.5,529.5 C 494.659,539.658 494.825,549.992 494,560.5C 493.5,550.172 493.334,539.839 493.5,529.5 Z"/></g>
<g><path style="opacity:0.01" fill="#13c1ab" d="M 564.5,536.5 C 564.5,535.5 564.5,534.5 564.5,533.5C 565.29,532.391 565.79,531.058 566,529.5C 566.826,532.212 566.326,534.545 564.5,536.5 Z"/></g>
<g><path style="opacity:0.01" fill="#13c1ab" d="M 416.5,530.5 C 416.833,530.5 417.167,530.5 417.5,530.5C 417.768,532.099 417.434,533.432 416.5,534.5C 416.5,533.167 416.5,531.833 416.5,530.5 Z"/></g>
<g><path style="opacity:0.011" fill="#13c1ab" d="M 490.5,530.5 C 490.833,530.5 491.167,530.5 491.5,530.5C 491.768,532.099 491.434,533.432 490.5,534.5C 490.5,533.167 490.5,531.833 490.5,530.5 Z"/></g>
<g><path style="opacity:0.011" fill="#13c1ab" d="M 395.5,532.5 C 395.5,533.167 395.5,533.833 395.5,534.5C 394.833,534.5 394.5,534.833 394.5,535.5C 394.167,535.5 393.833,535.5 393.5,535.5C 393.427,533.973 394.094,532.973 395.5,532.5 Z"/></g>
<g><path style="opacity:0.009" fill="#13c1ab" d="M 113.5,533.5 C 114.573,534.251 114.74,535.251 114,536.5C 113.517,535.552 113.351,534.552 113.5,533.5 Z"/></g>
<g><path style="opacity:0.009" fill="#13c1ab" d="M 109.5,539.5 C 109.351,538.448 109.517,537.448 110,536.5C 110.74,537.749 110.573,538.749 109.5,539.5 Z"/></g>
<g><path style="opacity:0.01" fill="#13c1ab" d="M 541.5,536.5 C 541.5,536.833 541.5,537.167 541.5,537.5C 540.833,537.5 540.5,537.833 540.5,538.5C 539.833,538.5 539.167,538.5 538.5,538.5C 538.973,537.094 539.973,536.427 541.5,536.5 Z"/></g>
<g><path style="opacity:0.008" fill="#13c1ab" d="M 488.5,537.5 C 488.833,537.5 489.167,537.5 489.5,537.5C 489.672,538.492 489.338,539.158 488.5,539.5C 488.5,538.833 488.5,538.167 488.5,537.5 Z"/></g>
<g><path style="opacity:0.01" fill="#13c1ab" d="M 108.5,539.5 C 108.833,539.5 109.167,539.5 109.5,539.5C 109.672,540.492 109.338,541.158 108.5,541.5C 108.5,540.833 108.5,540.167 108.5,539.5 Z"/></g>
<g><path style="opacity:0.007" fill="#13c1ab" d="M 143.5,540.5 C 143.5,540.167 143.5,539.833 143.5,539.5C 145.903,539.448 148.236,539.781 150.5,540.5C 150.5,540.833 150.5,541.167 150.5,541.5C 149.5,541.5 148.5,541.5 147.5,541.5C 146.432,540.566 145.099,540.232 143.5,540.5 Z"/></g>
<g><path style="opacity:0.007" fill="#13c1ab" d="M 524.5,540.5 C 524.5,540.167 524.5,539.833 524.5,539.5C 526.903,539.448 529.236,539.781 531.5,540.5C 531.5,540.833 531.5,541.167 531.5,541.5C 530.5,541.5 529.5,541.5 528.5,541.5C 527.432,540.566 526.099,540.232 524.5,540.5 Z"/></g>
<g><path style="opacity:0.01" fill="#13c1ab" d="M 486.5,541.5 C 486.833,541.5 487.167,541.5 487.5,541.5C 487.672,542.492 487.338,543.158 486.5,543.5C 486.5,542.833 486.5,542.167 486.5,541.5 Z"/></g>
<g><path style="opacity:0.012" fill="#13c1ab" d="M 409.5,546.5 C 409.833,546.5 410.167,546.5 410.5,546.5C 410.315,547.17 409.981,547.17 409.5,546.5 Z"/></g>
<g><path style="opacity:0.012" fill="#13c1ab" d="M 483.5,546.5 C 483.833,546.5 484.167,546.5 484.5,546.5C 484.315,547.17 483.981,547.17 483.5,546.5 Z"/></g>
<g><path style="opacity:0.016" fill="#13c1ab" d="M 408.5,547.5 C 408.833,547.5 409.167,547.5 409.5,547.5C 409.315,548.17 408.981,548.17 408.5,547.5 Z"/></g>
<g><path style="opacity:0.016" fill="#13c1ab" d="M 482.5,547.5 C 482.833,547.5 483.167,547.5 483.5,547.5C 483.315,548.17 482.981,548.17 482.5,547.5 Z"/></g>
<g><path style="opacity:0.012" fill="#13c1ab" d="M 557.5,547.5 C 557.833,547.5 558.167,547.5 558.5,547.5C 558.315,548.17 557.981,548.17 557.5,547.5 Z"/></g>
<g><path style="opacity:0.016" fill="#13c1ab" d="M 407.5,548.5 C 407.833,548.5 408.167,548.5 408.5,548.5C 408.315,549.17 407.981,549.17 407.5,548.5 Z"/></g>
<g><path style="opacity:0.016" fill="#13c1ab" d="M 481.5,548.5 C 481.833,548.5 482.167,548.5 482.5,548.5C 482.315,549.17 481.981,549.17 481.5,548.5 Z"/></g>
<g><path style="opacity:0.012" fill="#13c1ab" d="M 556.5,548.5 C 556.833,548.5 557.167,548.5 557.5,548.5C 557.315,549.17 556.981,549.17 556.5,548.5 Z"/></g>
<g><path style="opacity:0.012" fill="#13c1ab" d="M 102.5,549.5 C 102.833,549.5 103.167,549.5 103.5,549.5C 103.315,550.17 102.981,550.17 102.5,549.5 Z"/></g>
<g><path style="opacity:0.012" fill="#13c1ab" d="M 406.5,549.5 C 406.833,549.5 407.167,549.5 407.5,549.5C 407.315,550.17 406.981,550.17 406.5,549.5 Z"/></g>
<g><path style="opacity:0.016" fill="#13c1ab" d="M 480.5,549.5 C 480.833,549.5 481.167,549.5 481.5,549.5C 481.315,550.17 480.981,550.17 480.5,549.5 Z"/></g>
<g><path style="opacity:0.016" fill="#13c1ab" d="M 555.5,549.5 C 555.833,549.5 556.167,549.5 556.5,549.5C 556.315,550.17 555.981,550.17 555.5,549.5 Z"/></g>
<g><path style="opacity:0.009" fill="#13c1ab" d="M 12.5,550.5 C 13.1667,550.5 13.5,550.833 13.5,551.5C 13.44,552.043 13.1067,552.376 12.5,552.5C 11.2267,551.743 11.2267,551.077 12.5,550.5 Z"/></g>
<g><path style="opacity:0.012" fill="#13c1ab" d="M 101.5,550.5 C 101.833,550.5 102.167,550.5 102.5,550.5C 102.315,551.17 101.981,551.17 101.5,550.5 Z"/></g>
<g><path style="opacity:0.016" fill="#13c1ab" d="M 405.5,550.5 C 405.833,550.5 406.167,550.5 406.5,550.5C 406.315,551.17 405.981,551.17 405.5,550.5 Z"/></g>
<g><path style="opacity:0.016" fill="#13c1ab" d="M 479.5,550.5 C 479.833,550.5 480.167,550.5 480.5,550.5C 480.315,551.17 479.981,551.17 479.5,550.5 Z"/></g>
<g><path style="opacity:0.016" fill="#13c1ab" d="M 554.5,550.5 C 554.833,550.5 555.167,550.5 555.5,550.5C 555.315,551.17 554.981,551.17 554.5,550.5 Z"/></g>
<g><path style="opacity:0.012" fill="#13c1ab" d="M 100.5,551.5 C 100.833,551.5 101.167,551.5 101.5,551.5C 101.315,552.17 100.981,552.17 100.5,551.5 Z"/></g>
<g><path style="opacity:0.012" fill="#13c1ab" d="M 404.5,551.5 C 404.833,551.5 405.167,551.5 405.5,551.5C 405.315,552.17 404.981,552.17 404.5,551.5 Z"/></g>
<g><path style="opacity:0.006" fill="#13c1ab" d="M 432.5,551.5 C 433.167,551.5 433.5,551.833 433.5,552.5C 432.503,553.713 431.503,553.546 430.5,552C 431.094,551.536 431.761,551.369 432.5,551.5 Z"/></g>
<g><path style="opacity:0.012" fill="#13c1ab" d="M 478.5,551.5 C 478.833,551.5 479.167,551.5 479.5,551.5C 479.315,552.17 478.981,552.17 478.5,551.5 Z"/></g>
<g><path style="opacity:0.012" fill="#13c1ab" d="M 553.5,551.5 C 553.833,551.5 554.167,551.5 554.5,551.5C 554.315,552.17 553.981,552.17 553.5,551.5 Z"/></g>
<g><path style="opacity:0.012" fill="#13c1ab" d="M 99.5,552.5 C 99.8333,552.5 100.167,552.5 100.5,552.5C 100.315,553.17 99.9813,553.17 99.5,552.5 Z"/></g>
<g><path style="opacity:0.004" fill="#13c1ab" d="M 172.5,552.5 C 172.833,552.5 173.167,552.5 173.5,552.5C 173.315,553.17 172.981,553.17 172.5,552.5 Z"/></g>
<g><path style="opacity:0.012" fill="#13c1ab" d="M 403.5,552.5 C 403.833,552.5 404.167,552.5 404.5,552.5C 404.315,553.17 403.981,553.17 403.5,552.5 Z"/></g>
<g><path style="opacity:0.012" fill="#13c1ab" d="M 477.5,552.5 C 477.833,552.5 478.167,552.5 478.5,552.5C 478.315,553.17 477.981,553.17 477.5,552.5 Z"/></g>
<g><path style="opacity:0.012" fill="#13c1ab" d="M 552.5,552.5 C 552.833,552.5 553.167,552.5 553.5,552.5C 553.315,553.17 552.981,553.17 552.5,552.5 Z"/></g>
<g><path style="opacity:0.012" fill="#13c1ab" d="M 98.5,553.5 C 98.8333,553.5 99.1667,553.5 99.5,553.5C 99.3147,554.17 98.9813,554.17 98.5,553.5 Z"/></g>
<g><path style="opacity:0.012" fill="#13c1ab" d="M 170.5,553.5 C 171.833,554.167 171.833,554.167 170.5,553.5 Z"/></g>
<g><path style="opacity:0.011" fill="#13c1ab" d="M 205.5,554.5 C 205.5,554.167 205.5,553.833 205.5,553.5C 210.833,553.833 210.833,554.167 205.5,554.5 Z"/></g>
<g><path style="opacity:0.012" fill="#13c1ab" d="M 402.5,553.5 C 402.833,553.5 403.167,553.5 403.5,553.5C 403.315,554.17 402.981,554.17 402.5,553.5 Z"/></g>
<g><path style="opacity:0.012" fill="#13c1ab" d="M 476.5,553.5 C 476.833,553.5 477.167,553.5 477.5,553.5C 477.315,554.17 476.981,554.17 476.5,553.5 Z"/></g>
<g><path style="opacity:0.008" fill="#13c1ab" d="M 550.5,554.5 C 550.5,554.167 550.5,553.833 550.5,553.5C 551.167,553.5 551.833,553.5 552.5,553.5C 552.158,554.338 551.492,554.672 550.5,554.5 Z"/></g>
<g><path style="opacity:0.008" fill="#13c1ab" d="M 168.5,555.5 C 168.5,555.167 168.5,554.833 168.5,554.5C 169.167,554.5 169.833,554.5 170.5,554.5C 170.158,555.338 169.492,555.672 168.5,555.5 Z"/></g>
<g><path style="opacity:0.012" fill="#13c1ab" d="M 204.5,554.5 C 204.833,554.5 205.167,554.5 205.5,554.5C 205.315,555.17 204.981,555.17 204.5,554.5 Z"/></g>
<g><path style="opacity:0.012" fill="#13c1ab" d="M 239.5,555.5 C 239.5,555.167 239.5,554.833 239.5,554.5C 242.167,554.833 242.167,555.167 239.5,555.5 Z"/></g>
<g><path style="opacity:0.012" fill="#13c1ab" d="M 274.5,555.5 C 274.5,555.167 274.5,554.833 274.5,554.5C 277.167,554.833 277.167,555.167 274.5,555.5 Z"/></g>
<g><path style="opacity:0.012" fill="#13c1ab" d="M 318.5,554.5 C 319.833,555.167 319.833,555.167 318.5,554.5 Z"/></g>
<g><path style="opacity:0.008" fill="#13c1ab" d="M 400.5,555.5 C 400.5,555.167 400.5,554.833 400.5,554.5C 401.167,554.5 401.833,554.5 402.5,554.5C 402.158,555.338 401.492,555.672 400.5,555.5 Z"/></g>
<g><path style="opacity:0.006" fill="#13c1ab" d="M 474.5,555.5 C 474.5,555.167 474.5,554.833 474.5,554.5C 475.167,554.5 475.833,554.5 476.5,554.5C 476.158,555.338 475.492,555.672 474.5,555.5 Z"/></g>
<g><path style="opacity:0.012" fill="#13c1ab" d="M 549.5,554.5 C 549.833,554.5 550.167,554.5 550.5,554.5C 550.315,555.17 549.981,555.17 549.5,554.5 Z"/></g>
<g><path style="opacity:0.01" fill="#13c1ab" d="M 52.5,556.5 C 52.5,556.167 52.5,555.833 52.5,555.5C 55.1667,555.833 55.1667,556.167 52.5,556.5 Z"/></g>
<g><path style="opacity:0.008" fill="#13c1ab" d="M 131.5,555.5 C 131.5,555.833 131.5,556.167 131.5,556.5C 128.833,556.167 128.833,555.833 131.5,555.5 Z"/></g>
<g><path style="opacity:0.012" fill="#13c1ab" d="M 167.5,555.5 C 167.833,555.5 168.167,555.5 168.5,555.5C 168.315,556.17 167.981,556.17 167.5,555.5 Z"/></g>
<g><path style="opacity:0.006" fill="#13c1ab" d="M 202.5,556.5 C 202.5,556.167 202.5,555.833 202.5,555.5C 203.167,555.5 203.833,555.5 204.5,555.5C 204.158,556.338 203.492,556.672 202.5,556.5 Z"/></g>
<g><path style="opacity:0.008" fill="#13c1ab" d="M 238.5,555.5 C 238.833,555.5 239.167,555.5 239.5,555.5C 239.315,556.17 238.981,556.17 238.5,555.5 Z"/></g>
<g><path style="opacity:0.012" fill="#13c1ab" d="M 273.5,555.5 C 273.833,555.5 274.167,555.5 274.5,555.5C 274.315,556.17 273.981,556.17 273.5,555.5 Z"/></g>
<g><path style="opacity:0.008" fill="#13c1ab" d="M 316.5,556.5 C 316.5,556.167 316.5,555.833 316.5,555.5C 317.167,555.5 317.833,555.5 318.5,555.5C 318.158,556.338 317.492,556.672 316.5,556.5 Z"/></g>
<g><path style="opacity:0.012" fill="#13c1ab" d="M 399.5,555.5 C 399.833,555.5 400.167,555.5 400.5,555.5C 400.315,556.17 399.981,556.17 399.5,555.5 Z"/></g>
<g><path style="opacity:0.012" fill="#13c1ab" d="M 473.5,555.5 C 473.833,555.5 474.167,555.5 474.5,555.5C 474.315,556.17 473.981,556.17 473.5,555.5 Z"/></g>
<g><path style="opacity:0.006" fill="#13c1ab" d="M 547.5,556.5 C 547.5,556.167 547.5,555.833 547.5,555.5C 548.167,555.5 548.833,555.5 549.5,555.5C 549.158,556.338 548.492,556.672 547.5,556.5 Z"/></g>
<g><path style="opacity:0.006" fill="#13c1ab" d="M 50.5,557.5 C 50.5,557.167 50.5,556.833 50.5,556.5C 51.1667,556.5 51.8333,556.5 52.5,556.5C 52.1583,557.338 51.4916,557.672 50.5,557.5 Z"/></g>
<g><path style="opacity:0.006" fill="#13c1ab" d="M 93.5,557.5 C 93.5,557.167 93.5,556.833 93.5,556.5C 94.1667,556.5 94.8333,556.5 95.5,556.5C 95.1583,557.338 94.4916,557.672 93.5,557.5 Z"/></g>
<g><path style="opacity:0.012" fill="#13c1ab" d="M 131.5,556.5 C 132.833,557.167 132.833,557.167 131.5,556.5 Z"/></g>
<g><path style="opacity:0.008" fill="#13c1ab" d="M 165.5,557.5 C 165.5,557.167 165.5,556.833 165.5,556.5C 166.167,556.5 166.833,556.5 167.5,556.5C 167.158,557.338 166.492,557.672 165.5,557.5 Z"/></g>
<g><path style="opacity:0.012" fill="#13c1ab" d="M 201.5,556.5 C 201.833,556.5 202.167,556.5 202.5,556.5C 202.315,557.17 201.981,557.17 201.5,556.5 Z"/></g>
<g><path style="opacity:0.008" fill="#13c1ab" d="M 237.5,556.5 C 237.833,556.5 238.167,556.5 238.5,556.5C 238.315,557.17 237.981,557.17 237.5,556.5 Z"/></g>
<g><path style="opacity:0.012" fill="#13c1ab" d="M 272.5,556.5 C 272.833,556.5 273.167,556.5 273.5,556.5C 273.315,557.17 272.981,557.17 272.5,556.5 Z"/></g>
<g><path style="opacity:0.008" fill="#13c1ab" d="M 314.5,557.5 C 314.5,557.167 314.5,556.833 314.5,556.5C 315.167,556.5 315.833,556.5 316.5,556.5C 316.158,557.338 315.492,557.672 314.5,557.5 Z"/></g>
<g><path style="opacity:0.008" fill="#13c1ab" d="M 397.5,557.5 C 397.5,557.167 397.5,556.833 397.5,556.5C 398.167,556.5 398.833,556.5 399.5,556.5C 399.158,557.338 398.492,557.672 397.5,557.5 Z"/></g>
<g><path style="opacity:0.008" fill="#13c1ab" d="M 471.5,557.5 C 471.5,557.167 471.5,556.833 471.5,556.5C 472.167,556.5 472.833,556.5 473.5,556.5C 473.158,557.338 472.492,557.672 471.5,557.5 Z"/></g>
<g><path style="opacity:0.012" fill="#13c1ab" d="M 546.5,556.5 C 546.833,556.5 547.167,556.5 547.5,556.5C 547.315,557.17 546.981,557.17 546.5,556.5 Z"/></g>
<g><path style="opacity:0.012" fill="#13c1ab" d="M 49.5,557.5 C 49.8333,557.5 50.1667,557.5 50.5,557.5C 50.3147,558.17 49.9813,558.17 49.5,557.5 Z"/></g>
<g><path style="opacity:0.012" fill="#13c1ab" d="M 92.5,557.5 C 92.8333,557.5 93.1667,557.5 93.5,557.5C 93.3147,558.17 92.9813,558.17 92.5,557.5 Z"/></g>
<g><path style="opacity:0.008" fill="#13c1ab" d="M 163.5,558.5 C 163.5,558.167 163.5,557.833 163.5,557.5C 164.167,557.5 164.833,557.5 165.5,557.5C 165.158,558.338 164.492,558.672 163.5,558.5 Z"/></g>
<g><path style="opacity:0.012" fill="#13c1ab" d="M 200.5,557.5 C 200.833,557.5 201.167,557.5 201.5,557.5C 201.315,558.17 200.981,558.17 200.5,557.5 Z"/></g>
<g><path style="opacity:0.008" fill="#13c1ab" d="M 235.5,558.5 C 235.5,558.167 235.5,557.833 235.5,557.5C 236.167,557.5 236.833,557.5 237.5,557.5C 237.158,558.338 236.492,558.672 235.5,558.5 Z"/></g>
<g><path style="opacity:0.006" fill="#13c1ab" d="M 270.5,558.5 C 270.5,558.167 270.5,557.833 270.5,557.5C 271.167,557.5 271.833,557.5 272.5,557.5C 272.158,558.338 271.492,558.672 270.5,558.5 Z"/></g>
<g><path style="opacity:0.01" fill="#13c1ab" d="M 312.5,558.5 C 312.5,558.167 312.5,557.833 312.5,557.5C 313.167,557.5 313.833,557.5 314.5,557.5C 314.158,558.338 313.492,558.672 312.5,558.5 Z"/></g>
<g><path style="opacity:0.01" fill="#13c1ab" d="M 330.5,557.5 C 330.5,557.833 330.5,558.167 330.5,558.5C 327.833,558.167 327.833,557.833 330.5,557.5 Z"/></g>
<g><path style="opacity:0.01" fill="#13c1ab" d="M 395.5,558.5 C 395.5,558.167 395.5,557.833 395.5,557.5C 396.167,557.5 396.833,557.5 397.5,557.5C 397.158,558.338 396.492,558.672 395.5,558.5 Z"/></g>
<g><path style="opacity:0.01" fill="#13c1ab" d="M 469.5,558.5 C 469.5,558.167 469.5,557.833 469.5,557.5C 470.167,557.5 470.833,557.5 471.5,557.5C 471.158,558.338 470.492,558.672 469.5,558.5 Z"/></g>
<g><path style="opacity:0.008" fill="#13c1ab" d="M 544.5,558.5 C 544.5,558.167 544.5,557.833 544.5,557.5C 545.167,557.5 545.833,557.5 546.5,557.5C 546.158,558.338 545.492,558.672 544.5,558.5 Z"/></g>
<g><path style="opacity:0.008" fill="#13c1ab" d="M 46.5,558.5 C 47.5,558.5 48.5,558.5 49.5,558.5C 48.5,559.833 47.5,559.833 46.5,558.5 Z"/></g>
<g><path style="opacity:0.008" fill="#13c1ab" d="M 89.5,558.5 C 90.5,558.5 91.5,558.5 92.5,558.5C 91.5,559.833 90.5,559.833 89.5,558.5 Z"/></g>
<g><path style="opacity:0.008" fill="#13c1ab" d="M 160.5,558.5 C 161.5,558.5 162.5,558.5 163.5,558.5C 162.5,559.833 161.5,559.833 160.5,558.5 Z"/></g>
<g><path style="opacity:0.008" fill="#13c1ab" d="M 198.5,559.5 C 198.5,559.167 198.5,558.833 198.5,558.5C 199.167,558.5 199.833,558.5 200.5,558.5C 200.158,559.338 199.492,559.672 198.5,559.5 Z"/></g>
<g><path style="opacity:0.006" fill="#13c1ab" d="M 233.5,559.5 C 233.5,559.167 233.5,558.833 233.5,558.5C 234.167,558.5 234.833,558.5 235.5,558.5C 235.158,559.338 234.492,559.672 233.5,559.5 Z"/></g>
<g><path style="opacity:0.012" fill="#13c1ab" d="M 269.5,558.5 C 269.833,558.5 270.167,558.5 270.5,558.5C 270.315,559.17 269.981,559.17 269.5,558.5 Z"/></g>
<g><path style="opacity:0.01" fill="#13c1ab" d="M 310.5,559.5 C 310.5,559.167 310.5,558.833 310.5,558.5C 311.167,558.5 311.833,558.5 312.5,558.5C 312.158,559.338 311.492,559.672 310.5,559.5 Z"/></g>
<g><path style="opacity:0.01" fill="#13c1ab" d="M 330.5,558.5 C 331.552,558.351 332.552,558.517 333.5,559C 332.251,559.74 331.251,559.573 330.5,558.5 Z"/></g>
<g><path style="opacity:0.01" fill="#13c1ab" d="M 337.5,559.5 C 338.251,558.427 339.251,558.26 340.5,559C 339.552,559.483 338.552,559.649 337.5,559.5 Z"/></g>
<g><path style="opacity:0.007" fill="#13c1ab" d="M 392.5,559.5 C 392.5,559.167 392.5,558.833 392.5,558.5C 393.5,558.5 394.5,558.5 395.5,558.5C 394.791,559.404 393.791,559.737 392.5,559.5 Z"/></g>
<g><path style="opacity:0.007" fill="#13c1ab" d="M 466.5,559.5 C 466.5,559.167 466.5,558.833 466.5,558.5C 467.5,558.5 468.5,558.5 469.5,558.5C 468.791,559.404 467.791,559.737 466.5,559.5 Z"/></g>
<g><path style="opacity:0.009" fill="#13c1ab" d="M 541.5,559.5 C 541.5,559.167 541.5,558.833 541.5,558.5C 542.5,558.5 543.5,558.5 544.5,558.5C 543.791,559.404 542.791,559.737 541.5,559.5 Z"/></g>
<g><path style="opacity:0.01" fill="#13c1ab" d="M 196.5,560.5 C 196.5,560.167 196.5,559.833 196.5,559.5C 197.167,559.5 197.833,559.5 198.5,559.5C 198.158,560.338 197.492,560.672 196.5,560.5 Z"/></g>
<g><path style="opacity:0.012" fill="#13c1ab" d="M 231.5,560.5 C 231.5,560.167 231.5,559.833 231.5,559.5C 232.167,559.5 232.833,559.5 233.5,559.5C 233.158,560.338 232.492,560.672 231.5,560.5 Z"/></g>
<g><path style="opacity:0.009" fill="#13c1ab" d="M 306.5,560.5 C 306.5,560.167 306.5,559.833 306.5,559.5C 307.833,559.5 309.167,559.5 310.5,559.5C 309.432,560.434 308.099,560.768 306.5,560.5 Z"/></g>
<g><path style="opacity:0.004" fill="#13c1ab" d="M 337.5,559.5 C 336.749,560.573 335.749,560.74 334.5,560C 335.448,559.517 336.448,559.351 337.5,559.5 Z"/></g>
<g><path style="opacity:0.01" fill="#13c1ab" d="M 389.5,560.5 C 389.5,560.167 389.5,559.833 389.5,559.5C 390.5,559.5 391.5,559.5 392.5,559.5C 391.791,560.404 390.791,560.737 389.5,560.5 Z"/></g>
<g><path style="opacity:0.01" fill="#13c1ab" d="M 463.5,560.5 C 463.5,560.167 463.5,559.833 463.5,559.5C 464.5,559.5 465.5,559.5 466.5,559.5C 465.791,560.404 464.791,560.737 463.5,560.5 Z"/></g>
<g><path style="opacity:0.012" fill="#13c1ab" d="M 538.5,560.5 C 538.5,560.167 538.5,559.833 538.5,559.5C 539.5,559.5 540.5,559.5 541.5,559.5C 540.791,560.404 539.791,560.737 538.5,560.5 Z"/></g>
<g><path style="opacity:0.009" fill="#13c1ab" d="M 140.5,561.5 C 145.985,560.348 151.651,560.182 157.5,561C 154.905,561.226 152.405,561.726 150,562.5C 147.201,561.802 144.034,561.468 140.5,561.5 Z"/></g>
<g><path style="opacity:0.008" fill="#13c1ab" d="M 196.5,560.5 C 194.657,561.283 192.657,561.95 190.5,562.5C 188.556,561.811 186.556,561.311 184.5,561C 188.486,560.501 192.486,560.334 196.5,560.5 Z"/></g>
<g><path style="opacity:0.008" fill="#13c1ab" d="M 231.5,560.5 C 229.657,561.283 227.657,561.95 225.5,562.5C 223.556,561.811 221.556,561.311 219.5,561C 223.486,560.501 227.486,560.334 231.5,560.5 Z"/></g>
<g><path style="opacity:0.009" fill="#13c1ab" d="M 254.5,561.5 C 258.311,560.355 262.311,560.188 266.5,561C 264.899,561.273 263.399,561.773 262,562.5C 259.859,561.925 257.359,561.592 254.5,561.5 Z"/></g>
<g><path style="opacity:0.009" fill="#13c1ab" d="M 306.5,560.5 C 304.444,561.216 302.277,561.883 300,562.5C 297.095,562.102 293.928,561.602 290.5,561C 295.823,560.501 301.156,560.334 306.5,560.5 Z"/></g>
<g><path style="opacity:0.009" fill="#13c1ab" d="M 373.5,560.5 C 378.833,560.5 384.167,560.5 389.5,560.5C 387.444,561.216 385.277,561.883 383,562.5C 379.897,562.227 376.73,561.56 373.5,560.5 Z"/></g>
<g><path style="opacity:0.009" fill="#13c1ab" d="M 463.5,560.5 C 461.444,561.216 459.277,561.883 457,562.5C 454.095,562.102 450.928,561.602 447.5,561C 452.823,560.501 458.156,560.334 463.5,560.5 Z"/></g>
<g><path style="opacity:0.009" fill="#13c1ab" d="M 521.5,560.5 C 527.167,560.5 532.833,560.5 538.5,560.5C 536.107,561.21 533.607,561.877 531,562.5C 527.98,562.08 524.813,561.413 521.5,560.5 Z"/></g>
<g><path style="opacity:0.011" fill="#13c1ab" d="M 494.5,563.5 C 495.657,571.656 495.823,579.99 495,588.5C 494.5,580.173 494.334,571.84 494.5,563.5 Z"/></g>
<g><path style="opacity:0.011" fill="#13c1ab" d="M 365.5,588.5 C 365.334,581.159 365.5,573.826 366,566.5C 366.822,574.012 366.655,581.345 365.5,588.5 Z"/></g>
<g><path style="opacity:0.01" fill="#13c1ab" d="M 347.5,589.5 C 346.355,585.689 346.188,581.689 347,577.5C 347.499,581.486 347.666,585.486 347.5,589.5 Z"/></g>
<g><path style="opacity:0.012" fill="#13c1ab" d="M 364.5,588.5 C 364.833,588.5 365.167,588.5 365.5,588.5C 365.672,589.492 365.338,590.158 364.5,590.5C 364.5,589.833 364.5,589.167 364.5,588.5 Z"/></g>
<g><path style="opacity:0.012" fill="#13c1ab" d="M 363.5,590.5 C 363.833,590.5 364.167,590.5 364.5,590.5C 364.315,591.17 363.981,591.17 363.5,590.5 Z"/></g>
<g><path style="opacity:0.012" fill="#13c1ab" d="M 362.5,591.5 C 362.833,591.5 363.167,591.5 363.5,591.5C 363.315,592.17 362.981,592.17 362.5,591.5 Z"/></g>
<g><path style="opacity:0.008" fill="#13c1ab" d="M 361.5,592.5 C 361.833,592.5 362.167,592.5 362.5,592.5C 362.315,593.17 361.981,593.17 361.5,592.5 Z"/></g>
<g><path style="opacity:0.004" fill="#13c1ab" d="M 510.5,592.5 C 510.833,592.5 511.167,592.5 511.5,592.5C 511.315,593.17 510.981,593.17 510.5,592.5 Z"/></g>
<g><path style="opacity:0.008" fill="#13c1ab" d="M 360.5,593.5 C 360.833,593.5 361.167,593.5 361.5,593.5C 361.315,594.17 360.981,594.17 360.5,593.5 Z"/></g>
<g><path style="opacity:0.004" fill="#13c1ab" d="M 509.5,593.5 C 509.833,593.5 510.167,593.5 510.5,593.5C 510.315,594.17 509.981,594.17 509.5,593.5 Z"/></g>
<g><path style="opacity:0.008" fill="#13c1ab" d="M 358.5,594.5 C 359.167,594.5 359.833,594.5 360.5,594.5C 359.688,595.993 358.355,596.66 356.5,596.5C 355.5,596.333 354.5,596.167 353.5,596C 355.382,595.802 357.048,595.302 358.5,594.5 Z"/></g>
</svg>
