<?xml version="1.0" encoding="UTF-8"?>
<svg xmlns="http://www.w3.org/2000/svg" xmlns:xlink="http://www.w3.org/1999/xlink" width="70px" height="70px" viewBox="0 0 70 70" version="1.1">
<g id="surface1">
<path style=" stroke:none;fill-rule:nonzero;fill:rgb(0%,0%,0%);fill-opacity:1;" d="M 4.5 14.082031 C 3.308594 14.289062 2.378906 14.96875 1.804688 16.050781 L 1.4375 16.75 L 1.394531 31.703125 C 1.351562 48.546875 1.296875 47.617188 2.367188 48.765625 C 3.308594 49.792969 3.746094 49.945312 5.933594 50.039062 L 7.847656 50.109375 L 8.011719 50.765625 C 8.421875 52.390625 9.53125 53.90625 10.992188 54.851562 C 13.234375 56.300781 16.296875 56.300781 18.539062 54.851562 C 19.988281 53.90625 21.3125 52.046875 21.546875 50.613281 L 21.640625 50.039062 L 50.011719 50.039062 L 50.109375 50.476562 C 50.492188 52.296875 51.953125 54.210938 53.578125 55.085938 C 54.742188 55.699219 55.6875 55.917969 57.066406 55.917969 C 59.0625 55.90625 60.59375 55.25 62.03125 53.773438 C 62.78125 53.007812 63.617188 51.476562 63.78125 50.546875 L 63.875 50.039062 L 64.679688 50.039062 C 66.417969 50.039062 67.960938 48.960938 68.414062 47.429688 C 68.714844 46.429688 68.742188 38.117188 68.441406 37.148438 C 68.210938 36.351562 60.390625 22.941406 59.757812 22.242188 C 59.5 21.957031 59.035156 21.585938 58.734375 21.421875 C 58.1875 21.136719 58.023438 21.125 52.609375 21.082031 L 47.03125 21.039062 L 47.03125 19.15625 C 47.03125 17.882812 46.960938 17.046875 46.828125 16.585938 C 46.554688 15.679688 45.734375 14.75 44.816406 14.34375 L 44.09375 14.015625 L 24.609375 14 C 13.890625 13.984375 4.839844 14.027344 4.5 14.082031 Z M 44.28125 16.488281 C 44.515625 16.679688 44.75 17.035156 44.816406 17.265625 C 44.871094 17.515625 44.898438 23.625 44.871094 30.859375 L 44.816406 44.023438 L 19.78125 44.023438 L 19.070312 43.476562 C 16.5 41.492188 13.03125 41.492188 10.460938 43.476562 L 9.75 44.023438 L 3.554688 44.023438 L 3.554688 17.0625 L 4.484375 16.132812 L 43.859375 16.132812 Z M 57.820312 23.351562 C 58.226562 23.554688 58.84375 24.527344 62.359375 30.554688 L 66.429688 37.53125 L 66.445312 42.148438 C 66.445312 47.167969 66.417969 47.320312 65.695312 47.714844 C 65.488281 47.824219 65.007812 47.90625 64.625 47.921875 L 63.929688 47.921875 L 63.710938 47.167969 C 62.820312 44.214844 60.414062 42.246094 57.4375 42.027344 C 54.195312 41.78125 51.203125 43.875 50.273438 46.992188 L 49.984375 47.988281 L 47.03125 47.988281 L 47.03125 23.105469 L 52.199219 23.105469 C 56.835938 23.105469 57.394531 23.132812 57.820312 23.351562 Z M 16.5 44.421875 C 17.964844 44.980469 19.101562 46.28125 19.496094 47.851562 C 19.921875 49.546875 19.414062 51.269531 18.101562 52.5 C 17.023438 53.523438 16.335938 53.785156 14.765625 53.785156 C 13.195312 53.785156 12.507812 53.523438 11.429688 52.5 C 10.363281 51.488281 9.925781 50.449219 9.925781 48.945312 C 9.914062 47.976562 9.980469 47.660156 10.28125 47.003906 C 11.375 44.640625 14.125 43.503906 16.5 44.421875 Z M 57.765625 44.171875 C 58.914062 44.378906 59.734375 44.84375 60.539062 45.71875 C 61.507812 46.796875 61.835938 47.714844 61.769531 49.21875 C 61.6875 51.132812 60.785156 52.515625 59.089844 53.347656 C 58.269531 53.757812 58.0625 53.796875 56.945312 53.796875 C 55.890625 53.796875 55.601562 53.742188 54.933594 53.429688 C 53.9375 52.964844 52.992188 52.023438 52.527344 51.023438 C 52.210938 50.351562 52.15625 50.066406 52.15625 48.945312 C 52.15625 47.90625 52.226562 47.523438 52.460938 47.003906 C 53.101562 45.609375 54.648438 44.421875 56.148438 44.160156 C 56.507812 44.105469 56.847656 44.050781 56.890625 44.039062 C 56.929688 44.039062 57.328125 44.09375 57.765625 44.171875 Z M 8.109375 46.921875 C 7.984375 47.320312 7.875 47.726562 7.847656 47.835938 C 7.765625 48.125 4.703125 47.988281 4.226562 47.671875 C 3.84375 47.414062 3.554688 46.90625 3.554688 46.484375 C 3.554688 46.226562 3.664062 46.210938 5.933594 46.210938 L 8.3125 46.210938 Z M 44.84375 47.101562 L 44.84375 47.988281 L 33.289062 47.988281 C 24.15625 47.988281 21.726562 47.945312 21.683594 47.8125 C 21.65625 47.726562 21.546875 47.320312 21.421875 46.921875 L 21.21875 46.210938 L 44.84375 46.210938 Z M 44.84375 47.101562 "/>
<path style=" stroke:none;fill-rule:nonzero;fill:rgb(0%,0%,0%);fill-opacity:1;" d="M 49.3125 25.320312 C 48.851562 25.6875 48.808594 26.210938 48.808594 31.773438 C 48.808594 37.445312 48.851562 38.007812 49.355469 38.28125 C 49.519531 38.363281 52.28125 38.417969 56.53125 38.417969 L 63.453125 38.417969 L 63.78125 38.078125 C 63.96875 37.898438 64.121094 37.597656 64.121094 37.433594 C 64.121094 37.132812 57.777344 25.90625 57.328125 25.390625 C 57.121094 25.183594 56.75 25.15625 53.320312 25.15625 C 50.515625 25.15625 49.492188 25.195312 49.3125 25.320312 Z M 58.3125 31.199219 C 59.570312 33.398438 60.757812 35.464844 60.9375 35.78125 L 61.277344 36.367188 L 50.996094 36.367188 L 50.996094 27.207031 L 56.015625 27.207031 Z M 58.3125 31.199219 "/>
<path style=" stroke:none;fill-rule:nonzero;fill:rgb(0%,0%,0%);fill-opacity:1;" d="M 13.382812 46.304688 C 12.375 46.828125 11.867188 47.578125 11.785156 48.65625 C 11.71875 49.628906 11.921875 50.3125 12.484375 50.941406 C 14.34375 53.0625 17.773438 51.789062 17.773438 48.972656 C 17.773438 47.726562 17.171875 46.773438 16.078125 46.265625 C 15.132812 45.828125 14.328125 45.84375 13.382812 46.304688 Z M 15.382812 48.328125 C 15.789062 48.726562 15.820312 49.203125 15.449219 49.601562 C 14.890625 50.203125 13.808594 49.804688 13.808594 49.015625 C 13.808594 48.589844 14.367188 47.988281 14.765625 47.988281 C 14.929688 47.988281 15.203125 48.140625 15.382812 48.328125 Z M 15.382812 48.328125 "/>
<path style=" stroke:none;fill-rule:nonzero;fill:rgb(0%,0%,0%);fill-opacity:1;" d="M 55.984375 46.085938 C 54.824219 46.414062 53.949219 47.703125 53.949219 49.027344 C 53.960938 52.226562 58.335938 53.15625 59.691406 50.257812 C 60.238281 49.082031 60.074219 47.945312 59.226562 47.003906 C 58.378906 46.0625 57.1875 45.734375 55.984375 46.085938 Z M 57.328125 48.140625 C 58.203125 48.535156 57.953125 49.902344 57.023438 49.902344 C 56.082031 49.902344 55.6875 48.851562 56.410156 48.273438 C 56.835938 47.945312 56.890625 47.933594 57.328125 48.140625 Z M 57.328125 48.140625 "/>
</g>
</svg>
