<?xml version="1.0" encoding="UTF-8"?>
<svg xmlns="http://www.w3.org/2000/svg" xmlns:xlink="http://www.w3.org/1999/xlink" width="70px" height="70px" viewBox="0 0 70 70" version="1.1">
<g id="surface1">
<path style=" stroke:none;fill-rule:nonzero;fill:rgb(0%,0%,0%);fill-opacity:1;" d="M 56.875 0 C 49.640625 0 43.75 5.890625 43.75 13.125 C 43.75 20.359375 49.640625 26.25 56.875 26.25 C 64.109375 26.25 70 20.359375 70 13.125 C 70 5.890625 64.109375 0 56.875 0 Z M 56.875 17.5 C 54.453125 17.5 52.5 15.546875 52.5 13.125 C 52.5 10.703125 54.453125 8.75 56.875 8.75 C 59.296875 8.75 61.25 10.703125 61.25 13.125 C 61.25 15.546875 59.296875 17.5 56.875 17.5 Z M 35 15.3125 C 35 6.851562 28.148438 0 19.6875 0 C 11.226562 0 4.375 6.851562 4.375 15.3125 L 4.375 38.078125 C 1.679688 41.453125 0 45.664062 0 50.3125 C 0 61.179688 8.820312 70 19.6875 70 C 30.554688 70 39.375 61.179688 39.375 50.3125 C 39.375 45.664062 37.695312 41.4375 35 38.078125 Z M 19.6875 61.25 C 13.65625 61.25 8.75 56.34375 8.75 50.3125 C 8.75 46.828125 10.417969 43.625 13.125 41.589844 L 13.125 15.3125 C 13.125 11.6875 16.0625 8.75 19.6875 8.75 C 23.3125 8.75 26.25 11.6875 26.25 15.3125 L 26.25 41.589844 C 28.957031 43.613281 30.625 46.828125 30.625 50.3125 C 30.625 56.34375 25.71875 61.25 19.6875 61.25 Z M 21.875 44.148438 L 21.875 15.3125 C 21.875 14.109375 20.890625 13.125 19.6875 13.125 C 18.484375 13.125 17.5 14.109375 17.5 15.3125 L 17.5 44.148438 C 14.957031 45.046875 13.125 47.453125 13.125 50.3125 C 13.125 53.9375 16.0625 56.875 19.6875 56.875 C 23.3125 56.875 26.25 53.9375 26.25 50.3125 C 26.25 47.453125 24.417969 45.046875 21.875 44.148438 Z M 21.875 44.148438 "/>
</g>
</svg>
