<?xml version="1.0" encoding="UTF-8"?>
<svg xmlns="http://www.w3.org/2000/svg" xmlns:xlink="http://www.w3.org/1999/xlink" width="70px" height="70px" viewBox="0 0 70 70" version="1.1">
<g id="surface1">
<path style=" stroke:none;fill-rule:nonzero;fill:rgb(0%,0%,0%);fill-opacity:1;" d="M 9.324219 3.429688 C 8.328125 3.71875 7.382812 5.070312 7.382812 6.195312 C 7.382812 6.710938 8.175781 7.519531 8.667969 7.519531 C 9.421875 7.519531 10.117188 6.890625 10.117188 6.21875 C 10.117188 6.054688 10.363281 6.015625 11.347656 6.015625 L 12.578125 6.015625 L 12.578125 12.304688 L 11.347656 12.304688 C 10.210938 12.304688 10.117188 12.277344 10.117188 12.03125 C 10.117188 11.882812 9.9375 11.566406 9.71875 11.320312 C 9.390625 10.953125 9.226562 10.867188 8.75 10.867188 C 8.273438 10.867188 8.109375 10.953125 7.78125 11.320312 C 6.917969 12.289062 7.601562 14.082031 9.09375 14.78125 C 9.53125 14.984375 9.980469 15.039062 11.429688 15.039062 C 13.042969 15.039062 13.273438 15.011719 13.820312 14.726562 C 14.148438 14.546875 14.617188 14.136719 14.835938 13.820312 C 15.21875 13.289062 15.242188 13.125 15.285156 11.882812 L 15.339844 10.527344 L 22.695312 10.527344 L 23.105469 10.144531 C 23.652344 9.652344 23.75 9.09375 23.378906 8.503906 C 23.226562 8.257812 22.941406 8 22.75 7.929688 C 22.558594 7.847656 20.835938 7.792969 18.851562 7.792969 L 15.3125 7.792969 L 15.3125 6.699219 C 15.3125 5.46875 15.109375 4.8125 14.519531 4.183594 C 13.835938 3.460938 13.234375 3.28125 11.414062 3.296875 C 10.515625 3.296875 9.570312 3.363281 9.324219 3.429688 Z M 9.324219 3.429688 "/>
<path style=" stroke:none;fill-rule:nonzero;fill:rgb(0%,0%,0%);fill-opacity:1;" d="M 22.625 3.539062 C 22.039062 3.800781 21.257812 4.609375 21.039062 5.15625 C 20.972656 5.332031 20.917969 5.757812 20.917969 6.085938 C 20.917969 6.875 21.328125 7.367188 22.09375 7.476562 C 22.546875 7.53125 22.710938 7.492188 23.0625 7.191406 C 23.296875 6.984375 23.53125 6.644531 23.585938 6.425781 L 23.679688 6.015625 L 26.113281 6.015625 L 26.113281 12.304688 L 23.695312 12.304688 L 23.488281 11.773438 C 23.09375 10.757812 22.023438 10.554688 21.257812 11.320312 C 20.929688 11.648438 20.890625 11.757812 20.945312 12.46875 C 21.015625 13.453125 21.546875 14.257812 22.40625 14.726562 C 22.953125 15.011719 23.1875 15.039062 24.800781 15.039062 C 26.851562 15.039062 27.398438 14.875 28.125 14.039062 C 28.671875 13.425781 28.847656 12.796875 28.847656 11.511719 L 28.847656 10.527344 L 36.257812 10.527344 L 36.65625 10.132812 C 37.078125 9.707031 37.1875 8.996094 36.914062 8.460938 C 36.585938 7.847656 36.1875 7.792969 32.402344 7.792969 L 28.847656 7.792969 L 28.847656 6.820312 C 28.847656 5.496094 28.628906 4.828125 27.945312 4.140625 C 27.21875 3.417969 26.703125 3.28125 24.746094 3.28125 C 23.515625 3.28125 23.050781 3.335938 22.625 3.539062 Z M 22.625 3.539062 "/>
<path style=" stroke:none;fill-rule:nonzero;fill:rgb(0%,0%,0%);fill-opacity:1;" d="M 36.296875 3.445312 C 35.191406 3.828125 34.414062 4.894531 34.398438 6.054688 C 34.382812 6.644531 34.4375 6.765625 34.835938 7.125 C 35.09375 7.355469 35.4375 7.519531 35.65625 7.519531 C 36.230469 7.519531 36.886719 7.054688 37.023438 6.535156 L 37.132812 6.085938 L 38.320312 6.042969 L 39.511719 6 L 39.511719 12.304688 L 38.28125 12.304688 C 37.132812 12.304688 37.050781 12.289062 37.050781 12.03125 C 37.050781 11.195312 35.945312 10.582031 35.164062 10.992188 C 34.917969 11.117188 34.632812 11.414062 34.507812 11.648438 C 34.03125 12.578125 34.820312 14.246094 36.011719 14.78125 C 36.460938 14.984375 36.914062 15.039062 38.363281 15.039062 C 39.976562 15.039062 40.210938 15.011719 40.757812 14.726562 C 41.085938 14.546875 41.535156 14.136719 41.765625 13.820312 C 42.136719 13.304688 42.179688 13.109375 42.246094 11.921875 L 42.3125 10.59375 L 46.007812 10.527344 C 48.042969 10.484375 49.804688 10.40625 49.945312 10.335938 C 50.640625 9.992188 50.734375 8.789062 50.09375 8.1875 C 49.738281 7.859375 49.738281 7.859375 46.007812 7.820312 L 42.273438 7.78125 L 42.21875 6.4375 C 42.179688 5.234375 42.136719 5.046875 41.78125 4.539062 C 41.546875 4.183594 41.140625 3.84375 40.703125 3.625 C 40.070312 3.308594 39.851562 3.28125 38.363281 3.296875 C 37.445312 3.296875 36.53125 3.363281 36.296875 3.445312 Z M 36.296875 3.445312 "/>
<path style=" stroke:none;fill-rule:nonzero;fill:rgb(0%,0%,0%);fill-opacity:1;" d="M 49.710938 3.484375 C 47.960938 4.101562 47.195312 6.632812 48.546875 7.328125 C 49.164062 7.640625 49.617188 7.5625 50.121094 7.054688 C 50.382812 6.796875 50.585938 6.46875 50.585938 6.304688 C 50.585938 6.03125 50.65625 6.015625 51.816406 6.015625 L 53.046875 6.015625 L 53.046875 12.304688 L 50.613281 12.304688 L 50.515625 11.90625 C 50.382812 11.292969 49.847656 10.867188 49.191406 10.867188 C 48.453125 10.867188 47.851562 11.511719 47.851562 12.277344 C 47.851562 13.054688 48.4375 14.125 49.125 14.574219 C 49.683594 14.957031 49.765625 14.96875 51.625 15.011719 C 53.347656 15.054688 53.621094 15.023438 54.085938 14.792969 C 55.304688 14.164062 55.78125 13.261719 55.78125 11.621094 L 55.78125 10.527344 L 57.351562 10.527344 C 59.1875 10.527344 59.746094 10.691406 60.15625 11.375 C 60.402344 11.796875 60.429688 12.058594 60.429688 15 L 60.429688 18.183594 L 2.734375 18.183594 L 2.734375 15 C 2.734375 10.472656 2.679688 10.527344 6.699219 10.527344 C 8.132812 10.527344 9.28125 10.472656 9.445312 10.390625 C 9.773438 10.210938 10.117188 9.554688 10.117188 9.078125 C 10.117188 8.859375 9.9375 8.546875 9.640625 8.242188 L 9.160156 7.765625 L 6.261719 7.820312 C 3.625 7.859375 3.296875 7.890625 2.707031 8.164062 C 1.804688 8.570312 0.890625 9.476562 0.453125 10.375 L 0.0703125 11.140625 L 0.0703125 56.125 L 0.421875 56.890625 C 0.875 57.832031 1.640625 58.625 2.542969 59.078125 L 3.210938 59.40625 L 23.078125 59.445312 C 36.667969 59.460938 43.023438 59.429688 43.203125 59.335938 C 43.941406 58.9375 44.050781 57.75 43.394531 57.132812 L 43.039062 56.804688 L 23.367188 56.738281 L 3.691406 56.671875 L 3.253906 56.21875 L 2.804688 55.78125 L 2.761719 38.417969 L 2.734375 21.054688 L 60.429688 21.054688 L 60.429688 30.828125 C 60.429688 41.328125 60.414062 41.195312 61.101562 41.5625 C 61.632812 41.835938 62.34375 41.726562 62.765625 41.304688 L 63.164062 40.90625 L 63.164062 26.195312 C 63.164062 11.5 63.164062 11.5 62.875 10.703125 C 62.492188 9.71875 61.59375 8.734375 60.578125 8.242188 C 59.867188 7.890625 59.664062 7.859375 57.804688 7.804688 L 55.78125 7.765625 L 55.78125 6.644531 C 55.78125 5.332031 55.523438 4.648438 54.78125 4.007812 C 54.507812 3.757812 54.058594 3.5 53.773438 3.429688 C 53.019531 3.210938 50.351562 3.253906 49.710938 3.484375 Z M 49.710938 3.484375 "/>
<path style=" stroke:none;fill-rule:nonzero;fill:rgb(0%,0%,0%);fill-opacity:1;" d="M 8.394531 27.617188 C 7.75 27.820312 7.453125 28.234375 7.453125 28.945312 C 7.453125 29.449219 7.519531 29.613281 7.835938 29.886719 C 8.21875 30.214844 8.230469 30.214844 11.359375 30.214844 L 14.519531 30.214844 L 14.914062 29.820312 C 15.460938 29.273438 15.460938 28.601562 14.914062 28 L 14.519531 27.546875 L 11.664062 27.523438 C 10.101562 27.507812 8.625 27.546875 8.394531 27.617188 Z M 8.394531 27.617188 "/>
<path style=" stroke:none;fill-rule:nonzero;fill:rgb(0%,0%,0%);fill-opacity:1;" d="M 21.984375 27.578125 C 21.78125 27.601562 21.453125 27.820312 21.257812 28.039062 C 20.808594 28.585938 20.808594 29.242188 21.273438 29.789062 L 21.628906 30.214844 L 28.039062 30.214844 L 28.367188 29.886719 C 28.859375 29.394531 28.945312 28.890625 28.628906 28.3125 C 28.246094 27.589844 27.808594 27.492188 24.882812 27.507812 C 23.488281 27.523438 22.1875 27.546875 21.984375 27.578125 Z M 21.984375 27.578125 "/>
<path style=" stroke:none;fill-rule:nonzero;fill:rgb(0%,0%,0%);fill-opacity:1;" d="M 35.273438 27.65625 C 34.601562 27.890625 34.234375 28.640625 34.453125 29.328125 C 34.742188 30.1875 34.835938 30.214844 38.363281 30.214844 L 41.523438 30.214844 L 41.890625 29.859375 C 42.640625 29.109375 42.203125 27.78125 41.140625 27.5625 C 40.375 27.414062 35.78125 27.480469 35.273438 27.65625 Z M 35.273438 27.65625 "/>
<path style=" stroke:none;fill-rule:nonzero;fill:rgb(0%,0%,0%);fill-opacity:1;" d="M 48.851562 27.632812 C 47.851562 27.917969 47.523438 29.09375 48.25 29.820312 L 48.644531 30.214844 L 54.988281 30.214844 L 55.382812 29.820312 C 56.125 29.066406 55.78125 27.917969 54.714844 27.617188 C 54.101562 27.453125 49.453125 27.453125 48.851562 27.632812 Z M 48.851562 27.632812 "/>
<path style=" stroke:none;fill-rule:nonzero;fill:rgb(0%,0%,0%);fill-opacity:1;" d="M 8.339844 37.609375 C 7.804688 37.828125 7.53125 38.144531 7.4375 38.625 C 7.34375 39.128906 7.640625 39.839844 8.054688 40.058594 C 8.21875 40.140625 9.554688 40.195312 11.414062 40.195312 L 14.519531 40.195312 L 14.914062 39.796875 C 15.460938 39.25 15.460938 38.582031 14.914062 37.980469 L 14.519531 37.53125 L 11.59375 37.5 C 9.859375 37.488281 8.546875 37.53125 8.339844 37.609375 Z M 8.339844 37.609375 "/>
<path style=" stroke:none;fill-rule:nonzero;fill:rgb(0%,0%,0%);fill-opacity:1;" d="M 21.683594 37.664062 C 21.125 37.96875 20.929688 38.265625 20.917969 38.867188 C 20.917969 39.265625 21.015625 39.484375 21.3125 39.796875 L 21.710938 40.195312 L 24.882812 40.195312 C 28.039062 40.195312 28.039062 40.195312 28.367188 39.867188 C 29.011719 39.226562 28.957031 38.335938 28.246094 37.816406 C 27.90625 37.554688 27.65625 37.53125 24.976562 37.488281 C 22.570312 37.460938 22.011719 37.488281 21.683594 37.664062 Z M 21.683594 37.664062 "/>
<path style=" stroke:none;fill-rule:nonzero;fill:rgb(0%,0%,0%);fill-opacity:1;" d="M 35.179688 37.664062 C 34.546875 37.9375 34.25 38.59375 34.4375 39.25 C 34.710938 40.15625 34.875 40.195312 38.335938 40.195312 L 41.398438 40.195312 L 41.820312 39.839844 C 42.164062 39.554688 42.246094 39.390625 42.246094 38.9375 C 42.246094 37.609375 41.835938 37.460938 38.320312 37.460938 C 36.328125 37.476562 35.507812 37.515625 35.179688 37.664062 Z M 35.179688 37.664062 "/>
<path style=" stroke:none;fill-rule:nonzero;fill:rgb(0%,0%,0%);fill-opacity:1;" d="M 48.851562 37.554688 C 48.6875 37.585938 48.382812 37.804688 48.195312 38.023438 C 47.714844 38.609375 47.726562 39.28125 48.25 39.796875 L 48.644531 40.195312 L 51.804688 40.195312 C 54.867188 40.195312 54.960938 40.179688 55.304688 39.882812 C 55.535156 39.6875 55.6875 39.390625 55.742188 39.019531 C 55.808594 38.527344 55.753906 38.390625 55.398438 37.992188 L 54.988281 37.53125 L 52.0625 37.515625 C 50.460938 37.5 49.015625 37.515625 48.851562 37.554688 Z M 48.851562 37.554688 "/>
<path style=" stroke:none;fill-rule:nonzero;fill:rgb(0%,0%,0%);fill-opacity:1;" d="M 55.851562 42.125 C 51.804688 42.710938 48.289062 45.320312 46.484375 49.09375 C 45.609375 50.953125 45.351562 52.101562 45.351562 54.34375 C 45.351562 56.585938 45.609375 57.734375 46.484375 59.59375 C 47.222656 61.140625 48.03125 62.25 49.257812 63.382812 C 53.429688 67.265625 59.746094 67.785156 64.503906 64.613281 C 65.789062 63.765625 67.59375 61.824219 68.34375 60.511719 C 70.683594 56.398438 70.492188 51.335938 67.839844 47.429688 C 65.242188 43.570312 60.46875 41.453125 55.851562 42.125 Z M 59.363281 44.898438 C 62.90625 45.582031 65.664062 48.015625 66.8125 51.476562 C 67.140625 52.445312 67.183594 52.773438 67.183594 54.34375 C 67.171875 56.382812 66.898438 57.476562 65.96875 59.15625 C 65.28125 60.375 63.65625 62 62.4375 62.6875 C 60.742188 63.617188 59.664062 63.890625 57.625 63.902344 C 55.984375 63.902344 55.753906 63.875 54.648438 63.476562 C 53.046875 62.917969 52.089844 62.328125 50.929688 61.179688 C 47.058594 57.394531 47.058594 51.269531 50.929688 47.507812 C 52.0625 46.402344 53.046875 45.773438 54.386719 45.308594 C 56.125 44.707031 57.679688 44.585938 59.363281 44.898438 Z M 59.363281 44.898438 "/>
<path style=" stroke:none;fill-rule:nonzero;fill:rgb(0%,0%,0%);fill-opacity:1;" d="M 51.542969 47.6875 C 50.875 48.015625 50.613281 48.742188 50.914062 49.382812 C 51.242188 50.078125 56.847656 55.589844 57.3125 55.671875 C 57.640625 55.726562 60.226562 55.140625 61.550781 54.703125 C 62.546875 54.375 62.917969 53.335938 62.328125 52.582031 C 61.8125 51.925781 61.523438 51.898438 59.71875 52.375 L 58.078125 52.8125 L 55.535156 50.273438 C 53.335938 48.085938 52.554688 47.441406 52.117188 47.441406 C 52.0625 47.441406 51.804688 47.550781 51.542969 47.6875 Z M 51.542969 47.6875 "/>
<path style=" stroke:none;fill-rule:nonzero;fill:rgb(0%,0%,0%);fill-opacity:1;" d="M 8.257812 47.578125 C 7.847656 47.742188 7.382812 48.371094 7.382812 48.765625 C 7.382812 49.203125 7.738281 49.859375 8.054688 50.039062 C 8.21875 50.121094 9.554688 50.175781 11.414062 50.175781 L 14.519531 50.175781 L 14.914062 49.78125 C 15.585938 49.09375 15.351562 47.890625 14.476562 47.59375 C 13.960938 47.414062 8.695312 47.398438 8.257812 47.578125 Z M 8.257812 47.578125 "/>
<path style=" stroke:none;fill-rule:nonzero;fill:rgb(0%,0%,0%);fill-opacity:1;" d="M 21.738281 47.59375 C 20.851562 47.945312 20.632812 49.09375 21.3125 49.78125 L 21.710938 50.175781 L 24.84375 50.175781 C 27.589844 50.175781 28 50.148438 28.246094 49.929688 C 28.957031 49.367188 29 48.4375 28.355469 47.835938 C 28.015625 47.507812 27.972656 47.507812 25.046875 47.484375 C 23.296875 47.46875 21.945312 47.507812 21.738281 47.59375 Z M 21.738281 47.59375 "/>
<path style=" stroke:none;fill-rule:nonzero;fill:rgb(0%,0%,0%);fill-opacity:1;" d="M 35.109375 47.660156 C 34.742188 47.851562 34.316406 48.480469 34.316406 48.808594 C 34.316406 49.179688 34.765625 49.875 35.082031 50.023438 C 35.300781 50.121094 36.476562 50.175781 38.429688 50.175781 L 41.453125 50.175781 L 41.851562 49.78125 C 42.507812 49.109375 42.367188 48.070312 41.5625 47.648438 C 40.988281 47.34375 35.65625 47.359375 35.109375 47.660156 Z M 35.109375 47.660156 "/>
</g>
</svg>
