<?xml version="1.0" encoding="UTF-8"?>
<svg xmlns="http://www.w3.org/2000/svg" xmlns:xlink="http://www.w3.org/1999/xlink" width="97px" height="90px" viewBox="0 0 97 90" version="1.1">
<g id="surface1">
<path style=" stroke:none;fill-rule:nonzero;fill:rgb(0%,0%,0%);fill-opacity:1;" d="M 47.734375 11.925781 C 47.097656 12.261719 37.328125 18.34375 35.496094 19.5625 C 34.824219 19.992188 32.621094 21.394531 30.601562 22.667969 C 28.566406 23.941406 26.378906 25.328125 25.726562 25.738281 C 25.070312 26.148438 23.691406 27.03125 22.644531 27.667969 C 21.597656 28.320312 20.699219 28.921875 20.664062 28.996094 C 20.53125 29.183594 22.0625 31.449219 22.308594 31.449219 C 22.417969 31.429688 23.203125 31 24.0625 30.457031 C 24.902344 29.914062 27.425781 28.339844 29.667969 26.9375 C 31.890625 25.53125 34.695312 23.773438 35.871094 23.023438 C 42.074219 19.074219 46.667969 16.191406 47.117188 15.96875 C 47.398438 15.816406 47.679688 15.628906 47.734375 15.519531 C 48.015625 15.085938 48.875 15.480469 51.65625 17.238281 C 53.300781 18.269531 55.019531 19.355469 55.449219 19.617188 C 56.179688 20.066406 64.808594 25.457031 66.230469 26.375 C 66.546875 26.5625 68.546875 27.835938 70.695312 29.203125 C 72.863281 30.566406 74.730469 31.691406 74.878906 31.710938 C 75.011719 31.726562 75.476562 31.242188 75.890625 30.660156 C 76.523438 29.761719 76.617188 29.539062 76.410156 29.296875 C 76.28125 29.144531 73.816406 27.535156 70.917969 25.71875 C 68.042969 23.902344 65.484375 22.238281 65.257812 22.03125 C 64.867188 21.695312 64.828125 21.46875 64.792969 19.300781 L 64.734375 16.941406 L 62.324219 16.882812 C 59.691406 16.828125 59.410156 16.921875 59.410156 17.820312 C 59.410156 18.324219 59.375 18.34375 59 18.136719 C 58.457031 17.859375 53.675781 14.863281 51.378906 13.382812 C 49.769531 12.335938 48.5 11.585938 48.351562 11.605469 C 48.3125 11.625 48.050781 11.753906 47.734375 11.925781 Z M 47.734375 11.925781 "/>
<path style=" stroke:none;fill-rule:nonzero;fill:rgb(0%,0%,0%);fill-opacity:1;" d="M 49.976562 19.597656 C 48.386719 20.421875 47.359375 22.199219 47.492188 23.886719 C 47.566406 24.691406 47.714844 25.066406 48.351562 25.871094 C 49.976562 27.984375 49.902344 27.460938 49.996094 38.054688 C 50.089844 48.519531 50.199219 47.527344 48.78125 49.511719 C 48.257812 50.261719 48.125 50.597656 48.070312 51.644531 C 48.015625 52.582031 48.070312 53.03125 48.332031 53.515625 C 48.761719 54.359375 49.097656 54.453125 49.230469 53.777344 C 49.285156 53.5 49.488281 52.957031 49.660156 52.601562 C 49.957031 51.980469 50.03125 51.945312 50.910156 51.964844 C 51.433594 51.964844 52.179688 52.113281 52.574219 52.28125 L 53.300781 52.601562 L 53.171875 54.097656 C 53.019531 55.855469 53.132812 55.933594 54.386719 54.996094 C 55.394531 54.210938 55.917969 53.21875 55.898438 52.09375 C 55.878906 51.402344 55.730469 51.007812 55.113281 50.148438 C 53.710938 48.144531 53.769531 48.554688 53.730469 38 C 53.730469 30.921875 53.769531 28.453125 53.9375 28.152344 C 54.066406 27.929688 54.535156 27.3125 55 26.785156 C 56.085938 25.515625 56.367188 24.484375 56.105469 22.894531 C 55.878906 21.621094 55.449219 20.777344 55.039062 20.777344 C 54.890625 20.777344 54.664062 21.226562 54.476562 21.882812 C 54.308594 22.480469 54.011719 23.117188 53.824219 23.285156 C 52.945312 24.089844 51.078125 23.714844 50.628906 22.648438 C 50.441406 22.21875 50.460938 21.863281 50.6875 20.851562 C 51.078125 19.1875 50.984375 19.054688 49.976562 19.597656 Z M 49.191406 25.214844 C 49.863281 25.964844 51.023438 26.28125 52.683594 26.148438 C 54.160156 26.039062 54.554688 26.1875 53.824219 26.582031 C 53.003906 27.011719 50.3125 26.617188 49.210938 25.90625 C 48.742188 25.589844 48.199219 24.558594 48.199219 24.015625 C 48.21875 23.773438 48.292969 23.828125 48.519531 24.242188 C 48.667969 24.539062 48.984375 24.988281 49.191406 25.214844 Z M 53.058594 39.757812 C 53.058594 45.75 52.945312 47.359375 52.535156 47.359375 C 52.460938 47.359375 52.238281 47.414062 52.011719 47.472656 C 51.5625 47.582031 51.003906 47.132812 51.003906 46.664062 C 51.003906 46.402344 51.058594 46.421875 51.394531 46.722656 C 51.675781 46.984375 51.84375 47.023438 52.085938 46.851562 C 52.367188 46.683594 52.40625 46.03125 52.460938 40.226562 C 52.480469 36.6875 52.535156 33.675781 52.589844 33.542969 C 52.628906 33.433594 52.757812 33.320312 52.871094 33.320312 C 53.003906 33.320312 53.058594 35.453125 53.058594 39.757812 Z M 55.078125 52.507812 C 55.039062 52.898438 54.945312 53.253906 54.832031 53.292969 C 54.722656 53.328125 54.664062 52.972656 54.722656 52.394531 C 54.757812 51.777344 54.851562 51.515625 54.964844 51.625 C 55.058594 51.71875 55.113281 52.113281 55.078125 52.507812 Z M 55.078125 52.507812 "/>
<path style=" stroke:none;fill-rule:nonzero;fill:rgb(0%,0%,0%);fill-opacity:1;" d="M 34.785156 27.199219 C 34.433594 27.609375 34.355469 29.183594 34.5625 32.085938 C 34.898438 36.800781 35.347656 38.859375 37.066406 43.296875 C 37.625 44.757812 38.148438 46.292969 38.222656 46.703125 C 38.300781 47.171875 38.578125 47.675781 38.972656 48.070312 C 40.429688 49.53125 42.820312 48.292969 42.539062 46.214844 C 42.410156 45.167969 41.773438 44.417969 40.859375 44.15625 C 39.253906 43.726562 39.328125 43.820312 38.410156 41.050781 C 36.859375 36.257812 36.429688 33.789062 36.429688 29.632812 C 36.429688 28.566406 36.335938 27.515625 36.246094 27.3125 C 36.019531 26.898438 35.085938 26.824219 34.785156 27.199219 Z M 40.914062 46.011719 C 41.476562 46.480469 41.308594 47.300781 40.617188 47.472656 C 39.625 47.714844 39.121094 46.554688 39.945312 45.898438 C 40.335938 45.597656 40.429688 45.617188 40.914062 46.011719 Z M 40.914062 46.011719 "/>
<path style=" stroke:none;fill-rule:nonzero;fill:rgb(0%,0%,0%);fill-opacity:1;" d="M 40.074219 46.421875 C 39.925781 46.683594 40.128906 46.984375 40.464844 46.984375 C 40.617188 46.984375 40.726562 46.816406 40.726562 46.609375 C 40.726562 46.214844 40.28125 46.085938 40.074219 46.421875 Z M 40.074219 46.421875 "/>
<path style=" stroke:none;fill-rule:nonzero;fill:rgb(0%,0%,0%);fill-opacity:1;" d="M 44.761719 27.234375 C 44.390625 27.628906 44.316406 28.191406 44.203125 31.820312 C 44.089844 35.339844 43.699219 37.585938 42.671875 40.527344 C 41.476562 43.894531 41.53125 43.484375 42.242188 44.34375 C 42.597656 44.757812 42.933594 45.113281 42.988281 45.113281 C 43.15625 45.113281 44.128906 42.546875 44.820312 40.339844 C 45.753906 37.363281 46.164062 34.722656 46.277344 31.128906 C 46.371094 28.320312 46.351562 27.835938 46.070312 27.421875 C 45.714844 26.898438 45.191406 26.824219 44.761719 27.234375 Z M 44.761719 27.234375 "/>
<path style=" stroke:none;fill-rule:nonzero;fill:rgb(0%,0%,0%);fill-opacity:1;" d="M 63.726562 27.761719 C 62.886719 28.191406 62.53125 30.324219 63.054688 31.820312 C 63.277344 32.457031 63.332031 33.730469 63.332031 38.390625 L 63.332031 44.15625 L 62.828125 44.402344 C 62.082031 44.757812 62.0625 45.355469 62.753906 46.160156 C 63.074219 46.515625 63.332031 47.003906 63.332031 47.226562 C 63.332031 47.453125 63.109375 48.519531 62.847656 49.605469 C 62.214844 52.152344 62.15625 54.042969 62.699219 54.789062 C 62.902344 55.070312 63.332031 55.425781 63.613281 55.574219 C 64.285156 55.894531 64.882812 55.613281 65.519531 54.675781 C 66.117188 53.796875 66.082031 52.617188 65.390625 49.734375 C 64.773438 47.171875 64.792969 46.851562 65.667969 45.824219 C 66.265625 45.113281 66.25 44.8125 65.59375 44.457031 C 65.296875 44.308594 65.015625 44.082031 64.960938 43.953125 C 64.902344 43.785156 64.792969 43.820312 64.585938 44.082031 C 64.324219 44.417969 64.285156 44.417969 64.175781 44.15625 C 64.117188 43.988281 64.101562 40.996094 64.175781 37.511719 C 64.324219 28.527344 64.34375 28.171875 64.546875 28.117188 C 64.867188 28.003906 65.222656 29.59375 65.144531 30.699219 L 65.070312 31.726562 L 65.351562 31.128906 C 65.613281 30.585938 65.613281 30.417969 65.296875 29.296875 C 64.996094 28.171875 64.625 27.515625 64.304688 27.515625 C 64.230469 27.515625 63.96875 27.628906 63.726562 27.761719 Z M 65.574219 52.507812 C 65.574219 52.863281 65.5 53.199219 65.390625 53.253906 C 65.277344 53.328125 65.203125 53.03125 65.203125 52.507812 C 65.203125 51.980469 65.277344 51.683594 65.390625 51.757812 C 65.5 51.8125 65.574219 52.152344 65.574219 52.507812 Z M 65.574219 52.507812 "/>
<path style=" stroke:none;fill-rule:nonzero;fill:rgb(0%,0%,0%);fill-opacity:1;" d="M 22.457031 32.796875 C 22.214844 33.039062 22.140625 35.863281 22.382812 36.015625 C 22.457031 36.050781 23.316406 36.128906 24.289062 36.144531 C 26.230469 36.203125 26.714844 36.277344 26.714844 36.519531 C 26.714844 36.613281 25.707031 36.6875 24.492188 36.6875 C 23.261719 36.6875 22.140625 36.746094 21.972656 36.800781 C 21.726562 36.894531 21.671875 37.269531 21.671875 38.933594 C 21.671875 41.199219 21.746094 41.367188 22.921875 41.742188 C 23.746094 42.003906 24.566406 42.714844 24.980469 43.519531 C 25.238281 44.007812 25.238281 44.53125 25.035156 48.238281 C 24.828125 51.71875 24.828125 52.542969 25.035156 53.179688 C 25.351562 54.097656 26.605469 55.40625 27.183594 55.40625 C 27.761719 55.40625 28.492188 54.789062 29.070312 53.777344 C 29.574219 52.957031 29.574219 52.9375 29.445312 50.109375 C 29.386719 48.539062 29.277344 46.609375 29.21875 45.824219 C 29.144531 45.039062 29.144531 44.175781 29.21875 43.914062 C 29.40625 43.148438 30.398438 42.171875 31.347656 41.816406 C 32.75 41.3125 32.882812 41.050781 32.882812 38.953125 C 32.882812 37.53125 32.804688 37.042969 32.5625 36.6875 C 32.320312 36.351562 32.207031 35.714844 32.132812 34.441406 L 32.039062 32.664062 L 27.371094 32.609375 C 23.875 32.570312 22.625 32.625 22.457031 32.796875 Z M 23.726562 37.25 C 23.726562 37.34375 23.390625 37.4375 22.960938 37.4375 C 22.511719 37.4375 22.25 37.363281 22.324219 37.25 C 22.382812 37.136719 22.738281 37.0625 23.089844 37.0625 C 23.445312 37.0625 23.726562 37.136719 23.726562 37.25 Z M 27.613281 53.328125 C 27.761719 53.40625 27.835938 53.683594 27.800781 53.929688 C 27.761719 54.285156 27.632812 54.378906 27.183594 54.378906 C 26.566406 54.378906 26.34375 53.910156 26.714844 53.441406 C 26.976562 53.125 27.257812 53.085938 27.613281 53.328125 Z M 27.613281 53.328125 "/>
<path style=" stroke:none;fill-rule:nonzero;fill:rgb(0%,0%,0%);fill-opacity:1;" d="M 72.320312 39.253906 C 72.359375 42.546875 72.28125 46.851562 72.132812 49.8125 C 71.984375 52.542969 71.910156 54.921875 71.984375 55.089844 C 72.113281 55.425781 73.066406 55.667969 73.589844 55.5 C 73.796875 55.445312 74.019531 55.238281 74.078125 55.035156 C 74.132812 54.847656 74.078125 52.863281 73.945312 50.617188 C 73.816406 48.351562 73.703125 43.652344 73.703125 40.152344 L 73.703125 33.789062 L 72.972656 33.730469 L 72.246094 33.675781 Z M 72.320312 39.253906 "/>
<path style=" stroke:none;fill-rule:nonzero;fill:rgb(0%,0%,0%);fill-opacity:1;" d="M 64.714844 40.058594 C 64.714844 41.96875 64.753906 42.734375 64.773438 41.78125 C 64.808594 40.84375 64.808594 39.273438 64.773438 38.316406 C 64.753906 37.382812 64.714844 38.148438 64.714844 40.058594 Z M 64.714844 40.058594 "/>
<path style=" stroke:none;fill-rule:nonzero;fill:rgb(0%,0%,0%);fill-opacity:1;" d="M 37.980469 48.988281 C 37.886719 49.285156 37.832031 50.617188 37.832031 51.980469 L 37.832031 54.453125 L 38.375 55.015625 C 39.140625 55.820312 39.421875 55.761719 39.421875 54.828125 C 39.421875 54.285156 39.289062 53.890625 38.953125 53.5 C 38.394531 52.84375 38.355469 52.152344 38.839844 51.738281 C 40 50.746094 40.167969 50.523438 40.167969 50.035156 C 40.167969 49.605469 40 49.417969 39.328125 48.988281 C 38.261719 48.351562 38.148438 48.351562 37.980469 48.988281 Z M 37.980469 48.988281 "/>
<path style=" stroke:none;fill-rule:nonzero;fill:rgb(0%,0%,0%);fill-opacity:1;" d="M 41.53125 49.003906 C 40.859375 49.417969 40.726562 49.605469 40.726562 50.109375 C 40.726562 50.578125 40.878906 50.820312 41.476562 51.289062 C 42.390625 52.019531 42.484375 52.824219 41.753906 53.683594 C 41.289062 54.246094 41.121094 55.277344 41.476562 55.5 C 41.792969 55.707031 42.390625 55.21875 42.78125 54.472656 C 43.0625 53.929688 43.15625 53.367188 43.15625 52.300781 C 43.15625 50.523438 42.820312 48.480469 42.523438 48.5 C 42.410156 48.5 41.960938 48.742188 41.53125 49.003906 Z M 41.53125 49.003906 "/>
<path style=" stroke:none;fill-rule:nonzero;fill:rgb(0%,0%,0%);fill-opacity:1;" d="M 20.550781 57.746094 L 20.550781 58.589844 L 76.597656 58.589844 L 76.597656 56.90625 L 20.550781 56.90625 Z M 20.550781 57.746094 "/>
<path style=" stroke:none;fill-rule:nonzero;fill:rgb(0%,0%,0%);fill-opacity:1;" d="M 26.15625 62.332031 C 25.800781 62.410156 24.960938 62.425781 24.289062 62.371094 C 23.183594 62.296875 23.035156 62.332031 22.660156 62.746094 C 22.308594 63.121094 22.214844 63.496094 22.121094 64.878906 C 21.972656 66.902344 22.15625 68.699219 22.492188 68.699219 C 22.832031 68.699219 22.980469 67.6875 22.980469 65.402344 C 22.980469 64.207031 23.054688 63.457031 23.203125 63.308594 C 23.503906 63.007812 24.378906 63.027344 24.625 63.324219 C 24.734375 63.457031 24.867188 64.484375 24.886719 65.609375 C 24.941406 67.386719 24.980469 67.667969 25.277344 67.726562 C 25.558594 67.78125 25.59375 67.59375 25.59375 65.757812 C 25.613281 64.375 25.6875 63.625 25.855469 63.402344 C 26.191406 62.953125 27.203125 62.96875 27.464844 63.4375 C 27.558594 63.644531 27.648438 64.898438 27.648438 66.246094 C 27.648438 68.566406 27.667969 68.699219 28.023438 68.699219 C 28.378906 68.699219 28.398438 68.566406 28.398438 66.113281 C 28.398438 64.449219 28.304688 63.382812 28.15625 63.101562 C 27.875 62.519531 26.996094 62.183594 26.15625 62.332031 Z M 26.15625 62.332031 "/>
<path style=" stroke:none;fill-rule:nonzero;fill:rgb(0%,0%,0%);fill-opacity:1;" d="M 36.730469 62.277344 C 36.675781 62.351562 36.617188 62.6875 36.617188 63.046875 C 36.617188 63.511719 36.523438 63.699219 36.246094 63.773438 C 35.832031 63.886719 35.722656 64.578125 36.132812 64.578125 C 36.523438 64.578125 36.617188 65.011719 36.617188 66.640625 C 36.617188 67.726562 36.691406 68.191406 36.917969 68.398438 C 37.328125 68.808594 37.738281 68.773438 37.738281 68.324219 C 37.738281 68.117188 37.664062 67.949219 37.550781 67.949219 C 37.441406 67.949219 37.363281 67.257812 37.363281 66.265625 C 37.363281 64.898438 37.421875 64.578125 37.644531 64.578125 C 37.792969 64.578125 37.925781 64.410156 37.925781 64.207031 C 37.925781 64 37.792969 63.832031 37.644531 63.832031 C 37.441406 63.832031 37.363281 63.625 37.363281 63.101562 C 37.363281 62.425781 37.027344 61.996094 36.730469 62.277344 Z M 36.730469 62.277344 "/>
<path style=" stroke:none;fill-rule:nonzero;fill:rgb(0%,0%,0%);fill-opacity:1;" d="M 34.375 65.140625 C 34.375 67.707031 34.414062 67.988281 34.75 68.324219 C 34.957031 68.53125 35.199219 68.699219 35.292969 68.699219 C 35.644531 68.699219 35.722656 68.285156 35.421875 67.96875 C 35.179688 67.707031 35.125 67.164062 35.125 64.992188 C 35.125 62.464844 35.105469 62.332031 34.75 62.332031 C 34.394531 62.332031 34.375 62.464844 34.375 65.140625 Z M 34.375 65.140625 "/>
<path style=" stroke:none;fill-rule:nonzero;fill:rgb(0%,0%,0%);fill-opacity:1;" d="M 38.804688 62.445312 C 38.730469 62.519531 38.671875 62.746094 38.671875 62.933594 C 38.671875 63.195312 38.785156 63.289062 39.101562 63.230469 C 39.363281 63.195312 39.515625 63.046875 39.515625 62.800781 C 39.515625 62.425781 39.046875 62.203125 38.804688 62.445312 Z M 38.804688 62.445312 "/>
<path style=" stroke:none;fill-rule:nonzero;fill:rgb(0%,0%,0%);fill-opacity:1;" d="M 58.363281 62.613281 C 58.289062 62.78125 58.328125 63.007812 58.4375 63.121094 C 58.71875 63.402344 59.261719 63.136719 59.1875 62.765625 C 59.113281 62.332031 58.515625 62.222656 58.363281 62.613281 Z M 58.363281 62.613281 "/>
<path style=" stroke:none;fill-rule:nonzero;fill:rgb(0%,0%,0%);fill-opacity:1;" d="M 64.902344 62.613281 C 64.828125 62.78125 64.867188 63.007812 64.976562 63.121094 C 65.257812 63.402344 65.800781 63.136719 65.726562 62.765625 C 65.652344 62.332031 65.054688 62.222656 64.902344 62.613281 Z M 64.902344 62.613281 "/>
<path style=" stroke:none;fill-rule:nonzero;fill:rgb(0%,0%,0%);fill-opacity:1;" d="M 29.519531 65.835938 C 29.519531 66.9375 29.59375 67.949219 29.667969 68.0625 C 30.058594 68.640625 31.273438 68.867188 31.984375 68.492188 C 32.265625 68.34375 32.488281 68.34375 32.804688 68.53125 C 33.441406 68.867188 33.835938 68.492188 33.386719 67.988281 C 33.125 67.707031 33.066406 67.257812 33.066406 65.722656 C 33.066406 64 33.03125 63.8125 32.75 63.867188 C 32.46875 63.925781 32.394531 64.207031 32.320312 65.796875 C 32.226562 67.59375 32.207031 67.667969 31.722656 67.910156 C 31.386719 68.0625 31.085938 68.082031 30.75 67.949219 C 30.285156 67.78125 30.285156 67.726562 30.226562 65.851562 C 30.171875 64.1875 30.136719 63.925781 29.855469 63.867188 C 29.554688 63.8125 29.519531 64 29.519531 65.835938 Z M 29.519531 65.835938 "/>
<path style=" stroke:none;fill-rule:nonzero;fill:rgb(0%,0%,0%);fill-opacity:1;" d="M 38.804688 63.960938 C 38.730469 64.019531 38.671875 65.121094 38.671875 66.394531 C 38.671875 68.566406 38.691406 68.699219 39.046875 68.699219 C 39.421875 68.699219 39.457031 68.53125 39.457031 67.199219 C 39.457031 64.523438 39.402344 63.832031 39.175781 63.832031 C 39.027344 63.832031 38.859375 63.886719 38.804688 63.960938 Z M 38.804688 63.960938 "/>
<path style=" stroke:none;fill-rule:nonzero;fill:rgb(0%,0%,0%);fill-opacity:1;" d="M 41.289062 63.960938 C 40.542969 64.222656 40.28125 65.421875 40.878906 65.925781 C 41.046875 66.078125 41.585938 66.339844 42.074219 66.527344 C 43.25 66.957031 43.472656 67.257812 42.988281 67.742188 C 42.671875 68.0625 42.464844 68.097656 41.585938 68.003906 C 40.726562 67.910156 40.542969 67.949219 40.542969 68.191406 C 40.542969 68.566406 40.933594 68.699219 42.148438 68.699219 C 42.988281 68.699219 43.25 68.625 43.625 68.230469 C 44.164062 67.707031 44.183594 67.554688 43.8125 66.824219 C 43.605469 66.433594 43.304688 66.207031 42.726562 66.058594 C 41.773438 65.777344 41.195312 65.292969 41.34375 64.878906 C 41.4375 64.65625 41.738281 64.578125 42.597656 64.578125 C 43.4375 64.578125 43.71875 64.503906 43.71875 64.316406 C 43.71875 64.167969 43.585938 64 43.417969 63.945312 C 43.0625 63.8125 41.679688 63.8125 41.289062 63.960938 Z M 41.289062 63.960938 "/>
<path style=" stroke:none;fill-rule:nonzero;fill:rgb(0%,0%,0%);fill-opacity:1;" d="M 45.828125 64.054688 C 45.285156 64.316406 45.023438 65.121094 45.023438 66.582031 C 45.023438 67.613281 45.101562 67.835938 45.492188 68.25 C 45.921875 68.679688 46.070312 68.714844 47.304688 68.660156 C 48.96875 68.585938 49.097656 68.25 47.492188 68.175781 C 46.5 68.117188 46.296875 68.0625 46.035156 67.667969 C 45.511719 66.863281 45.792969 66.65625 47.398438 66.601562 L 48.855469 66.546875 L 48.816406 65.925781 C 48.78125 64.84375 48.574219 64.410156 48.015625 64.113281 C 47.398438 63.792969 46.425781 63.757812 45.828125 64.054688 Z M 47.769531 64.730469 C 47.902344 64.804688 48.03125 65.085938 48.050781 65.328125 C 48.109375 65.777344 48.050781 65.796875 46.949219 65.851562 C 45.679688 65.910156 45.511719 65.742188 45.996094 64.953125 C 46.238281 64.5625 47.304688 64.429688 47.769531 64.730469 Z M 47.769531 64.730469 "/>
<path style=" stroke:none;fill-rule:nonzero;fill:rgb(0%,0%,0%);fill-opacity:1;" d="M 49.695312 64.148438 C 49.695312 64.335938 49.789062 64.597656 49.917969 64.730469 C 50.050781 64.859375 50.164062 65.648438 50.179688 66.75 C 50.199219 67.726562 50.273438 68.585938 50.332031 68.640625 C 50.386719 68.699219 50.554688 68.699219 50.722656 68.640625 C 50.949219 68.546875 51.003906 68.191406 51.003906 66.863281 C 51.003906 65.046875 51.191406 64.671875 52.125 64.542969 C 52.890625 64.449219 52.722656 63.90625 51.9375 63.980469 C 50.703125 64.074219 50.535156 64.054688 50.125 63.925781 C 49.769531 63.8125 49.695312 63.851562 49.695312 64.148438 Z M 49.695312 64.148438 "/>
<path style=" stroke:none;fill-rule:nonzero;fill:rgb(0%,0%,0%);fill-opacity:1;" d="M 53.414062 64.054688 C 53.359375 65.234375 53.488281 67.3125 53.65625 67.554688 C 53.769531 67.742188 54.140625 68.082031 54.476562 68.304688 C 55.28125 68.867188 55.804688 68.734375 56.683594 67.761719 C 57.375 66.996094 57.375 66.996094 57.316406 65.460938 C 57.28125 64.242188 57.207031 63.925781 56.964844 63.867188 C 56.71875 63.832031 56.644531 64.074219 56.550781 65.292969 C 56.421875 67.050781 56.347656 67.273438 55.730469 67.667969 C 55.320312 67.949219 55.246094 67.949219 54.816406 67.6875 C 54.273438 67.332031 54.160156 66.917969 54.125 65.214844 C 54.085938 64.148438 54.03125 63.925781 53.769531 63.867188 C 53.582031 63.832031 53.433594 63.90625 53.414062 64.054688 Z M 53.414062 64.054688 "/>
<path style=" stroke:none;fill-rule:nonzero;fill:rgb(0%,0%,0%);fill-opacity:1;" d="M 58.457031 64 C 58.421875 64.113281 58.402344 65.214844 58.4375 66.453125 C 58.496094 68.472656 58.53125 68.714844 58.8125 68.660156 C 59.09375 68.605469 59.128906 68.304688 59.128906 66.265625 C 59.128906 64.242188 59.09375 63.925781 58.832031 63.867188 C 58.644531 63.832031 58.476562 63.90625 58.457031 64 Z M 58.457031 64 "/>
<path style=" stroke:none;fill-rule:nonzero;fill:rgb(0%,0%,0%);fill-opacity:1;" d="M 61.054688 64.113281 C 60.417969 64.46875 60.289062 64.972656 60.382812 66.65625 C 60.4375 67.78125 60.53125 68.042969 60.886719 68.34375 C 61.597656 68.921875 63.746094 68.714844 63.855469 68.082031 C 63.914062 67.78125 63.800781 67.761719 62.679688 67.875 C 61.167969 68.023438 61.09375 67.96875 61.09375 66.246094 C 61.09375 64.730469 61.296875 64.484375 62.457031 64.636719 C 62.902344 64.691406 63.410156 64.804688 63.578125 64.878906 C 63.820312 64.953125 63.894531 64.898438 63.894531 64.617188 C 63.894531 64.1875 63.652344 64.074219 62.457031 63.925781 C 61.839844 63.851562 61.410156 63.90625 61.054688 64.113281 Z M 61.054688 64.113281 "/>
<path style=" stroke:none;fill-rule:nonzero;fill:rgb(0%,0%,0%);fill-opacity:1;" d="M 64.902344 64.09375 C 64.753906 64.484375 64.882812 68.453125 65.054688 68.625 C 65.128906 68.679688 65.3125 68.699219 65.484375 68.625 C 65.726562 68.53125 65.761719 68.175781 65.726562 66.226562 C 65.667969 64.207031 65.632812 63.925781 65.332031 63.867188 C 65.164062 63.832031 64.960938 63.945312 64.902344 64.09375 Z M 64.902344 64.09375 "/>
<path style=" stroke:none;fill-rule:nonzero;fill:rgb(0%,0%,0%);fill-opacity:1;" d="M 67.707031 64.035156 C 67.125 64.335938 66.882812 64.992188 66.882812 66.285156 C 66.882812 68.175781 67.351562 68.699219 69.089844 68.699219 C 69.6875 68.699219 70.003906 68.585938 70.320312 68.265625 C 71.105469 67.480469 71.179688 65.273438 70.453125 64.355469 C 70.078125 63.886719 68.378906 63.699219 67.707031 64.035156 Z M 69.949219 64.992188 C 70.285156 65.460938 70.339844 66.75 70.058594 67.460938 C 69.890625 67.910156 69.78125 67.949219 68.863281 67.949219 C 68.117188 67.949219 67.835938 67.875 67.742188 67.648438 C 67.539062 67.125 67.632812 65.027344 67.855469 64.804688 C 67.984375 64.671875 68.433594 64.578125 68.863281 64.578125 C 69.480469 64.578125 69.742188 64.671875 69.949219 64.992188 Z M 69.949219 64.992188 "/>
<path style=" stroke:none;fill-rule:nonzero;fill:rgb(0%,0%,0%);fill-opacity:1;" d="M 72.488281 64.074219 C 71.777344 64.429688 71.742188 65.515625 72.414062 66.058594 C 72.695312 66.265625 73.03125 66.453125 73.179688 66.453125 C 73.777344 66.453125 74.542969 67.03125 74.542969 67.460938 C 74.542969 68.003906 74.09375 68.15625 72.84375 68.003906 C 72.097656 67.910156 71.929688 67.949219 71.929688 68.191406 C 71.929688 68.566406 72.320312 68.699219 73.496094 68.699219 C 74.75 68.699219 75.289062 68.324219 75.289062 67.480469 C 75.289062 66.695312 74.972656 66.359375 73.777344 65.945312 C 72.898438 65.628906 72.507812 65.179688 72.769531 64.765625 C 72.824219 64.671875 73.386719 64.578125 74 64.578125 C 74.824219 64.578125 75.105469 64.503906 75.105469 64.316406 C 75.105469 64.167969 74.972656 64 74.804688 63.945312 C 74.300781 63.757812 72.972656 63.832031 72.488281 64.074219 Z M 72.488281 64.074219 "/>
<path style=" stroke:none;fill-rule:nonzero;fill:rgb(0%,0%,0%);fill-opacity:1;" d="M 44.242188 71.992188 C 44.164062 72.046875 44.222656 72.347656 44.351562 72.667969 C 44.632812 73.304688 44.539062 75.941406 44.242188 76.316406 C 44.015625 76.597656 43.175781 76.636719 42.523438 76.371094 C 42.128906 76.222656 42.035156 76.261719 42.035156 76.464844 C 42.035156 76.820312 42.78125 77.121094 43.640625 77.121094 C 44.089844 77.121094 44.445312 76.972656 44.761719 76.652344 C 45.210938 76.203125 45.230469 76.09375 45.175781 74.296875 C 45.117188 72.609375 45.082031 72.367188 44.726562 72.140625 C 44.519531 71.992188 44.296875 71.9375 44.242188 71.992188 Z M 44.242188 71.992188 "/>
<path style=" stroke:none;fill-rule:nonzero;fill:rgb(0%,0%,0%);fill-opacity:1;" d="M 46.835938 72.292969 C 46.425781 72.703125 46.390625 72.855469 46.5 73.507812 C 46.632812 74.144531 46.574219 74.332031 46.203125 74.761719 C 45.640625 75.417969 45.660156 76.09375 46.238281 76.652344 C 46.761719 77.195312 48.015625 77.328125 48.015625 76.839844 C 48.015625 76.671875 47.847656 76.558594 47.566406 76.558594 C 46.894531 76.558594 46.257812 75.960938 46.40625 75.492188 C 46.539062 75.101562 47.546875 74.59375 47.828125 74.78125 C 47.921875 74.835938 48.125 75.285156 48.3125 75.773438 C 48.5 76.261719 48.722656 76.765625 48.816406 76.878906 C 49.058594 77.214844 49.507812 77.175781 49.507812 76.839844 C 49.507812 76.691406 49.433594 76.558594 49.339844 76.558594 C 49.246094 76.558594 49.023438 76.128906 48.855469 75.605469 C 48.59375 74.855469 48.574219 74.558594 48.742188 74.203125 C 49.246094 73.097656 48.875 72.140625 47.882812 71.953125 C 47.417969 71.863281 47.191406 71.9375 46.835938 72.292969 Z M 48.351562 73.132812 C 48.425781 73.863281 47.882812 74.257812 47.265625 73.9375 C 46.835938 73.714844 46.820312 73.601562 47.082031 72.910156 C 47.230469 72.515625 47.378906 72.421875 47.789062 72.480469 C 48.199219 72.515625 48.3125 72.628906 48.351562 73.132812 Z M 48.351562 73.132812 "/>
<path style=" stroke:none;fill-rule:nonzero;fill:rgb(0%,0%,0%);fill-opacity:1;" d="M 50.609375 72.273438 C 50.164062 72.722656 50.03125 73.507812 50.105469 75.4375 C 50.144531 76.710938 50.21875 77.027344 50.441406 77.027344 C 50.667969 77.027344 50.742188 76.652344 50.777344 74.929688 C 50.816406 73.058594 50.871094 72.796875 51.191406 72.628906 C 51.453125 72.480469 51.675781 72.480469 51.9375 72.628906 C 52.253906 72.796875 52.3125 73.058594 52.347656 74.558594 C 52.386719 75.941406 52.460938 76.277344 52.683594 76.277344 C 52.910156 76.277344 52.984375 75.941406 53.019531 74.613281 C 53.078125 72.890625 53.226562 72.441406 53.804688 72.441406 C 54.421875 72.441406 54.589844 72.929688 54.609375 75.007812 C 54.648438 76.671875 54.703125 77.027344 54.925781 77.027344 C 55.152344 77.027344 55.226562 76.710938 55.261719 75.4375 C 55.320312 73.640625 55.226562 72.855469 54.851562 72.328125 C 54.628906 72.03125 54.328125 71.972656 52.777344 71.953125 C 51.246094 71.9375 50.910156 71.972656 50.609375 72.273438 Z M 50.609375 72.273438 "/>
<path style=" stroke:none;fill-rule:nonzero;fill:rgb(0%,0%,0%);fill-opacity:1;" d="M 21.109375 72.910156 L 21.109375 73.753906 L 24.625 73.769531 C 26.546875 73.789062 30.171875 73.789062 32.695312 73.769531 L 37.273438 73.753906 L 37.273438 72.160156 L 29.199219 72.105469 L 21.109375 72.066406 Z M 21.109375 72.910156 "/>
<path style=" stroke:none;fill-rule:nonzero;fill:rgb(0%,0%,0%);fill-opacity:1;" d="M 60.570312 72.855469 L 60.625 73.660156 L 68.808594 73.714844 L 76.972656 73.753906 L 76.972656 72.066406 L 60.511719 72.066406 Z M 60.570312 72.855469 "/>
</g>
</svg>
