<?xml version="1.0" encoding="UTF-8"?>
<svg xmlns="http://www.w3.org/2000/svg" xmlns:xlink="http://www.w3.org/1999/xlink" width="61px" height="70px" viewBox="0 0 61 69" version="1.1">
<g id="surface1">
<path style=" stroke:none;fill-rule:nonzero;fill:rgb(0%,0%,0%);fill-opacity:1;" d="M 17.429688 19.945312 L 17.429688 14.554688 C 17.429688 13.664062 18.164062 12.9375 19.0625 12.9375 L 24.507812 12.9375 C 25.40625 12.9375 26.144531 13.664062 26.144531 14.554688 L 26.144531 19.945312 C 26.144531 20.835938 25.40625 21.5625 24.507812 21.5625 L 19.0625 21.5625 C 18.164062 21.5625 17.429688 20.835938 17.429688 19.945312 Z M 36.492188 21.5625 L 41.9375 21.5625 C 42.835938 21.5625 43.570312 20.835938 43.570312 19.945312 L 43.570312 14.554688 C 43.570312 13.664062 42.835938 12.9375 41.9375 12.9375 L 36.492188 12.9375 C 35.59375 12.9375 34.855469 13.664062 34.855469 14.554688 L 34.855469 19.945312 C 34.855469 20.835938 35.59375 21.5625 36.492188 21.5625 Z M 19.0625 34.5 L 24.507812 34.5 C 25.40625 34.5 26.144531 33.773438 26.144531 32.882812 L 26.144531 27.492188 C 26.144531 26.601562 25.40625 25.875 24.507812 25.875 L 19.0625 25.875 C 18.164062 25.875 17.429688 26.601562 17.429688 27.492188 L 17.429688 32.882812 C 17.429688 33.773438 18.164062 34.5 19.0625 34.5 Z M 36.492188 34.5 L 41.9375 34.5 C 42.835938 34.5 43.570312 33.773438 43.570312 32.882812 L 43.570312 27.492188 C 43.570312 26.601562 42.835938 25.875 41.9375 25.875 L 36.492188 25.875 C 35.59375 25.875 34.855469 26.601562 34.855469 27.492188 L 34.855469 32.882812 C 34.855469 33.773438 35.59375 34.5 36.492188 34.5 Z M 26.144531 45.820312 L 26.144531 40.429688 C 26.144531 39.539062 25.40625 38.8125 24.507812 38.8125 L 19.0625 38.8125 C 18.164062 38.8125 17.429688 39.539062 17.429688 40.429688 L 17.429688 45.820312 C 17.429688 46.710938 18.164062 47.4375 19.0625 47.4375 L 24.507812 47.4375 C 25.40625 47.4375 26.144531 46.710938 26.144531 45.820312 Z M 36.492188 47.4375 L 41.9375 47.4375 C 42.835938 47.4375 43.570312 46.710938 43.570312 45.820312 L 43.570312 40.429688 C 43.570312 39.539062 42.835938 38.8125 41.9375 38.8125 L 36.492188 38.8125 C 35.59375 38.8125 34.855469 39.539062 34.855469 40.429688 L 34.855469 45.820312 C 34.855469 46.710938 35.59375 47.4375 36.492188 47.4375 Z M 61 64.148438 L 61 69 L 0 69 L 0 64.148438 C 0 63.257812 0.734375 62.53125 1.632812 62.53125 L 4.289062 62.53125 L 4.289062 3.234375 C 4.289062 1.441406 5.746094 0 7.558594 0 L 53.441406 0 C 55.253906 0 56.710938 1.441406 56.710938 3.234375 L 56.710938 62.53125 L 59.367188 62.53125 C 60.265625 62.53125 61 63.257812 61 64.148438 Z M 10.824219 62.398438 L 26.144531 62.398438 L 26.144531 53.367188 C 26.144531 52.476562 26.878906 51.75 27.777344 51.75 L 33.222656 51.75 C 34.121094 51.75 34.855469 52.476562 34.855469 53.367188 L 34.855469 62.398438 L 50.175781 62.398438 L 50.175781 6.601562 L 10.894531 6.46875 Z M 10.824219 62.398438 "/>
</g>
</svg>
