<?xml version="1.0" encoding="UTF-8"?>
<svg xmlns="http://www.w3.org/2000/svg" xmlns:xlink="http://www.w3.org/1999/xlink" width="70px" height="70px" viewBox="0 0 70 52" version="1.1">
<g id="surface1">
<path style=" stroke:none;fill-rule:nonzero;fill:rgb(0%,0%,0%);fill-opacity:1;" d="M 18.273438 7.75 C 17.660156 7.75 17.160156 8.242188 17.160156 8.847656 L 17.160156 14.410156 C 17.160156 15.011719 17.660156 15.503906 18.273438 15.503906 C 18.890625 15.503906 19.386719 15.011719 19.386719 14.410156 L 19.386719 8.847656 C 19.386719 8.242188 18.890625 7.75 18.273438 7.75 Z M 18.273438 35.453125 C 17.660156 35.453125 17.160156 35.941406 17.160156 36.546875 L 17.160156 42.109375 C 17.160156 42.714844 17.660156 43.203125 18.273438 43.203125 C 18.890625 43.203125 19.386719 42.714844 19.386719 42.109375 L 19.386719 36.546875 C 19.386719 35.941406 18.890625 35.453125 18.273438 35.453125 Z M 18.273438 35.453125 "/>
<path style=" stroke:none;fill-rule:nonzero;fill:rgb(0%,0%,0%);fill-opacity:1;" d="M 68.886719 27.253906 L 25.5 27.253906 L 25.5 9.941406 L 30.761719 9.941406 L 30.761719 12.210938 C 28.335938 12.71875 26.507812 14.839844 26.507812 17.371094 C 26.507812 17.976562 27.003906 18.46875 27.621094 18.46875 L 36.132812 18.46875 C 36.75 18.46875 37.246094 17.976562 37.246094 17.371094 C 37.246094 17.355469 37.246094 17.339844 37.246094 17.324219 C 37.222656 14.8125 35.402344 12.714844 32.988281 12.210938 L 32.988281 9.941406 L 38.777344 9.941406 C 38.984375 9.941406 39.183594 9.902344 39.367188 9.835938 C 39.550781 9.902344 39.746094 9.941406 39.953125 9.941406 L 53.757812 9.941406 C 53.960938 9.941406 54.160156 9.90625 54.339844 9.839844 C 54.519531 9.90625 54.714844 9.941406 54.914062 9.941406 L 60.480469 9.941406 L 60.480469 12.210938 C 58.050781 12.71875 56.222656 14.839844 56.222656 17.371094 C 56.222656 17.976562 56.722656 18.46875 57.335938 18.46875 L 65.847656 18.46875 C 66.464844 18.46875 66.960938 17.976562 66.960938 17.371094 C 66.960938 14.839844 65.132812 12.71875 62.707031 12.210938 L 62.707031 9.941406 L 68.269531 9.941406 C 69.199219 9.941406 69.953125 9.191406 69.953125 8.269531 L 69.953125 1.675781 C 69.953125 0.753906 69.199219 0.00390625 68.269531 0.00390625 L 54.914062 0.00390625 C 54.714844 0.00390625 54.519531 0.0429688 54.339844 0.105469 C 54.160156 0.0429688 53.960938 0.00390625 53.757812 0.00390625 L 39.953125 0.00390625 C 39.746094 0.00390625 39.550781 0.0429688 39.367188 0.109375 C 39.183594 0.0429688 38.984375 0.00390625 38.777344 0.00390625 L 24.972656 0.00390625 C 24.789062 0.00390625 24.613281 0.0351562 24.445312 0.0898438 C 24.285156 0.0351562 24.117188 0.00390625 23.941406 0.00390625 L 1.558594 0.00390625 C 0.699219 0.00390625 0 0.691406 0 1.539062 L 0 50.460938 C 0 51.308594 0.699219 51.996094 1.558594 51.996094 L 23.941406 51.996094 C 24.023438 51.996094 24.105469 51.988281 24.183594 51.976562 C 24.25 51.988281 24.316406 51.996094 24.386719 51.996094 L 68.886719 51.996094 C 69.5 51.996094 70 51.503906 70 50.898438 L 70 28.347656 C 70 27.742188 69.5 27.253906 68.886719 27.253906 Z M 34.816406 16.277344 L 28.9375 16.277344 C 29.386719 15.113281 30.535156 14.285156 31.875 14.285156 C 33.21875 14.285156 34.363281 15.113281 34.816406 16.277344 Z M 64.53125 16.277344 L 58.652344 16.277344 C 59.105469 15.113281 60.25 14.285156 61.59375 14.285156 C 62.933594 14.285156 64.082031 15.113281 64.53125 16.277344 Z M 44.046875 29.441406 L 67.726562 29.441406 L 67.726562 34.253906 L 44.046875 34.253906 Z M 41.820312 29.441406 L 41.820312 38.234375 L 25.5 38.234375 L 25.5 29.441406 Z M 67.726562 7.75 L 55.460938 7.75 L 55.460938 2.195312 L 67.726562 2.195312 Z M 53.234375 7.75 L 40.480469 7.75 L 40.480469 2.195312 L 53.234375 2.195312 Z M 38.253906 7.75 L 25.5 7.75 L 25.5 2.195312 L 38.253906 2.195312 Z M 2.226562 2.195312 L 23.273438 2.195312 L 23.273438 21.0625 L 2.226562 21.0625 Z M 2.226562 23.25 L 23.273438 23.25 L 23.273438 49.804688 L 2.226562 49.804688 Z M 25.5 49.804688 L 25.5 40.421875 L 41.820312 40.421875 L 41.820312 49.804688 Z M 44.046875 49.804688 L 44.046875 36.441406 L 67.773438 36.441406 L 67.773438 49.804688 Z M 44.046875 49.804688 "/>
<path style=" stroke:none;fill-rule:nonzero;fill:rgb(0%,0%,0%);fill-opacity:1;" d="M 62.75 37.761719 L 49.023438 37.761719 C 48.40625 37.761719 47.910156 38.253906 47.910156 38.855469 L 47.910156 47.421875 C 47.910156 48.023438 48.40625 48.515625 49.023438 48.515625 L 62.75 48.515625 C 63.363281 48.515625 63.863281 48.023438 63.863281 47.421875 L 63.863281 38.855469 C 63.863281 38.253906 63.363281 37.761719 62.75 37.761719 Z M 61.636719 46.328125 L 50.136719 46.328125 L 50.136719 39.949219 L 61.636719 39.949219 Z M 61.636719 46.328125 "/>
<path style=" stroke:none;fill-rule:nonzero;fill:rgb(0%,0%,0%);fill-opacity:1;" d="M 35.113281 32.109375 C 35.113281 32.898438 34.464844 33.539062 33.660156 33.539062 C 32.855469 33.539062 32.203125 32.898438 32.203125 32.109375 C 32.203125 31.320312 32.855469 30.683594 33.660156 30.683594 C 34.464844 30.683594 35.113281 31.320312 35.113281 32.109375 Z M 35.113281 32.109375 "/>
<path style=" stroke:none;fill-rule:nonzero;fill:rgb(0%,0%,0%);fill-opacity:1;" d="M 32.875 4.972656 C 32.875 5.515625 32.429688 5.957031 31.875 5.957031 C 31.324219 5.957031 30.875 5.515625 30.875 4.972656 C 30.875 4.429688 31.324219 3.988281 31.875 3.988281 C 32.429688 3.988281 32.875 4.429688 32.875 4.972656 Z M 32.875 4.972656 "/>
<path style=" stroke:none;fill-rule:nonzero;fill:rgb(0%,0%,0%);fill-opacity:1;" d="M 47.855469 4.972656 C 47.855469 5.515625 47.410156 5.957031 46.855469 5.957031 C 46.304688 5.957031 45.855469 5.515625 45.855469 4.972656 C 45.855469 4.429688 46.304688 3.988281 46.855469 3.988281 C 47.410156 3.988281 47.855469 4.429688 47.855469 4.972656 Z M 47.855469 4.972656 "/>
<path style=" stroke:none;fill-rule:nonzero;fill:rgb(0%,0%,0%);fill-opacity:1;" d="M 62.59375 4.972656 C 62.59375 5.515625 62.144531 5.957031 61.59375 5.957031 C 61.039062 5.957031 60.59375 5.515625 60.59375 4.972656 C 60.59375 4.429688 61.039062 3.988281 61.59375 3.988281 C 62.144531 3.988281 62.59375 4.429688 62.59375 4.972656 Z M 62.59375 4.972656 "/>
<path style=" stroke:none;fill-rule:nonzero;fill:rgb(0%,0%,0%);fill-opacity:1;" d="M 35.113281 43.140625 C 35.113281 43.929688 34.464844 44.566406 33.660156 44.566406 C 32.855469 44.566406 32.203125 43.929688 32.203125 43.140625 C 32.203125 42.351562 32.855469 41.710938 33.660156 41.710938 C 34.464844 41.710938 35.113281 42.351562 35.113281 43.140625 Z M 35.113281 43.140625 "/>
<path style=" stroke:none;fill-rule:nonzero;fill:rgb(0%,0%,0%);fill-opacity:1;" d="M 49.382812 31.847656 C 49.382812 32.636719 48.730469 33.277344 47.929688 33.277344 C 47.125 33.277344 46.472656 32.636719 46.472656 31.847656 C 46.472656 31.058594 47.125 30.417969 47.929688 30.417969 C 48.730469 30.417969 49.382812 31.058594 49.382812 31.847656 Z M 49.382812 31.847656 "/>
<path style=" stroke:none;fill-rule:nonzero;fill:rgb(0%,0%,0%);fill-opacity:1;" d="M 53.363281 31.847656 C 53.363281 32.636719 52.710938 33.277344 51.90625 33.277344 C 51.105469 33.277344 50.453125 32.636719 50.453125 31.847656 C 50.453125 31.058594 51.105469 30.417969 51.90625 30.417969 C 52.710938 30.417969 53.363281 31.058594 53.363281 31.847656 Z M 53.363281 31.847656 "/>
<path style=" stroke:none;fill-rule:nonzero;fill:rgb(0%,0%,0%);fill-opacity:1;" d="M 57.339844 31.847656 C 57.339844 32.636719 56.6875 33.277344 55.886719 33.277344 C 55.082031 33.277344 54.429688 32.636719 54.429688 31.847656 C 54.429688 31.058594 55.082031 30.417969 55.886719 30.417969 C 56.6875 30.417969 57.339844 31.058594 57.339844 31.847656 Z M 57.339844 31.847656 "/>
<path style=" stroke:none;fill-rule:nonzero;fill:rgb(0%,0%,0%);fill-opacity:1;" d="M 61.320312 31.847656 C 61.320312 32.636719 60.667969 33.277344 59.863281 33.277344 C 59.0625 33.277344 58.410156 32.636719 58.410156 31.847656 C 58.410156 31.058594 59.0625 30.417969 59.863281 30.417969 C 60.667969 30.417969 61.320312 31.058594 61.320312 31.847656 Z M 61.320312 31.847656 "/>
<path style=" stroke:none;fill-rule:nonzero;fill:rgb(0%,0%,0%);fill-opacity:1;" d="M 65.296875 31.847656 C 65.296875 32.636719 64.644531 33.277344 63.84375 33.277344 C 63.039062 33.277344 62.386719 32.636719 62.386719 31.847656 C 62.386719 31.058594 63.039062 30.417969 63.84375 30.417969 C 64.644531 30.417969 65.296875 31.058594 65.296875 31.847656 Z M 65.296875 31.847656 "/>
</g>
</svg>
