<?xml version="1.0" encoding="UTF-8"?>
<svg xmlns="http://www.w3.org/2000/svg" xmlns:xlink="http://www.w3.org/1999/xlink" width="8px" height="7px" viewBox="0 0 7 7" version="1.1">
<g id="surface1">
<path style=" stroke:none;fill-rule:nonzero;fill:rgb(0%,0%,0%);fill-opacity:1;" d="M 1.605469 0.222656 C 1.542969 0.253906 1.539062 0.3125 1.539062 0.898438 C 1.539062 1.335938 1.53125 1.429688 1.507812 1.488281 C 1.472656 1.570312 1.265625 1.886719 1.246094 1.894531 C 1.238281 1.898438 1.230469 1.914062 1.230469 1.929688 C 1.230469 1.945312 1.226562 1.964844 1.214844 1.96875 C 1.207031 1.96875 1.164062 2.039062 1.121094 2.117188 C 1.074219 2.199219 1.019531 2.28125 1 2.300781 C 0.980469 2.324219 0.960938 2.351562 0.960938 2.363281 C 0.960938 2.375 0.941406 2.414062 0.914062 2.453125 C 0.890625 2.488281 0.785156 2.65625 0.683594 2.824219 C 0.582031 2.992188 0.488281 3.132812 0.480469 3.136719 C 0.46875 3.140625 0.460938 3.15625 0.460938 3.164062 C 0.460938 3.175781 0.425781 3.242188 0.382812 3.308594 C 0.34375 3.378906 0.308594 3.453125 0.308594 3.480469 C 0.308594 3.5625 0.382812 3.621094 0.484375 3.621094 C 0.648438 3.621094 0.632812 3.503906 0.632812 4.84375 L 0.632812 6.039062 L 0.550781 6.09375 C 0.449219 6.164062 0.375 6.253906 0.339844 6.355469 C 0.296875 6.46875 0.296875 6.5625 0.34375 6.589844 C 0.402344 6.625 6.621094 6.621094 6.648438 6.585938 C 6.664062 6.570312 6.671875 6.492188 6.671875 6.390625 C 6.671875 6.226562 6.671875 6.21875 6.605469 6.140625 L 6.539062 6.058594 L 6.542969 4.855469 L 6.546875 3.65625 L 6.605469 3.648438 C 6.636719 3.644531 6.691406 3.617188 6.726562 3.585938 C 6.785156 3.53125 6.789062 3.527344 6.789062 3.359375 L 6.789062 3.1875 L 6.613281 2.910156 C 6.414062 2.59375 6.332031 2.464844 6.164062 2.222656 C 6.101562 2.128906 6.027344 2.019531 6.003906 1.980469 C 5.84375 1.71875 5.519531 1.234375 5.4375 1.132812 C 5.382812 1.066406 5.3125 0.980469 5.28125 0.941406 L 5.230469 0.871094 L 2.25 0.871094 L 2.25 0.589844 C 2.25 0.3125 2.25 0.300781 2.203125 0.25 C 2.15625 0.199219 2.144531 0.195312 1.898438 0.199219 C 1.757812 0.199219 1.625 0.210938 1.605469 0.222656 Z M 2.488281 3.90625 L 2.539062 3.953125 L 2.539062 4.539062 C 2.539062 5.03125 2.535156 5.125 2.507812 5.148438 C 2.492188 5.167969 2.394531 5.179688 2.210938 5.179688 C 1.980469 5.183594 1.941406 5.179688 1.910156 5.144531 C 1.878906 5.109375 1.875 5.050781 1.871094 4.558594 C 1.863281 4.171875 1.871094 3.992188 1.882812 3.949219 C 1.910156 3.875 1.933594 3.871094 2.234375 3.867188 C 2.414062 3.863281 2.441406 3.867188 2.488281 3.90625 Z M 3.285156 3.898438 C 3.328125 3.929688 3.328125 3.933594 3.328125 4.527344 C 3.328125 5.054688 3.324219 5.125 3.292969 5.152344 C 3.253906 5.191406 2.847656 5.207031 2.75 5.171875 C 2.65625 5.144531 2.652344 5.125 2.652344 4.476562 L 2.652344 3.96875 L 2.703125 3.917969 C 2.746094 3.863281 2.757812 3.863281 2.996094 3.863281 C 3.1875 3.863281 3.25 3.867188 3.285156 3.898438 Z M 5.191406 3.941406 C 5.347656 3.976562 5.480469 4.125 5.515625 4.304688 C 5.546875 4.445312 5.546875 5.914062 5.515625 5.988281 L 5.496094 6.042969 L 5.015625 6.042969 C 4.582031 6.042969 4.542969 6.042969 4.527344 6.003906 C 4.519531 5.984375 4.515625 5.589844 4.515625 5.128906 C 4.519531 4.421875 4.523438 4.277344 4.550781 4.21875 C 4.589844 4.125 4.734375 3.976562 4.800781 3.960938 C 4.832031 3.953125 4.875 3.9375 4.894531 3.925781 C 4.933594 3.90625 5.074219 3.914062 5.191406 3.941406 Z M 5.191406 3.941406 "/>
</g>
</svg>
