<?xml version="1.0" standalone="no"?>
<!DOCTYPE svg PUBLIC "-//W3C//DTD SVG 20010904//EN"
 "http://www.w3.org/TR/2001/REC-SVG-20010904/DTD/svg10.dtd">
<svg version="1.0" xmlns="http://www.w3.org/2000/svg"
 width="512.000000pt" height="512.000000pt" viewBox="0 0 512.000000 512.000000"
 preserveAspectRatio="xMidYMid meet">

<g transform="translate(0.000000,512.000000) scale(0.100000,-0.100000)"
fill="#000000" stroke="none">
<path d="M682 4869 c-73 -21 -142 -120 -142 -202 0 -38 58 -97 94 -97 55 0
106 46 106 95 0 12 18 15 90 15 l90 0 0 -230 0 -230 -90 0 c-83 0 -90 2 -90
20 0 11 -13 34 -29 52 -24 27 -36 33 -71 33 -35 0 -47 -6 -71 -33 -63 -71 -13
-202 96 -253 32 -15 65 -19 171 -19 118 0 135 2 175 23 24 13 58 43 74 66 28
39 30 51 33 142 l4 99 269 0 269 0 30 28 c40 36 47 77 20 120 -11 18 -32 37
-46 42 -14 6 -140 10 -285 10 l-259 0 0 80 c0 90 -15 138 -58 184 -50 53 -94
66 -227 65 -66 0 -135 -5 -153 -10z"/>
<path d="M1655 4861 c-43 -19 -100 -78 -116 -118 -5 -13 -9 -44 -9 -68 0 -58
30 -94 86 -102 33 -4 45 -1 71 21 17 15 34 40 38 56 l7 30 89 0 89 0 0 -230 0
-230 -88 0 -89 0 -15 39 c-29 74 -107 89 -163 33 -24 -24 -27 -32 -23 -84 5
-72 44 -131 107 -165 40 -21 57 -23 175 -23 150 0 190 12 243 73 40 45 53 91
53 185 l0 72 271 0 271 0 29 29 c31 31 39 83 19 122 -24 45 -53 49 -330 49
l-260 0 0 71 c0 97 -16 146 -66 196 -53 53 -91 63 -234 63 -90 0 -124 -4 -155
-19z"/>
<path d="M2655 4868 c-81 -28 -138 -106 -139 -191 -1 -43 3 -52 32 -78 19 -17
44 -29 60 -29 42 0 90 34 100 72 l8 33 87 3 87 3 0 -231 0 -230 -90 0 c-84 0
-90 1 -90 20 0 61 -81 106 -138 76 -18 -9 -39 -31 -48 -48 -35 -68 23 -190
110 -229 33 -15 66 -19 172 -19 118 0 135 2 175 23 24 13 57 43 74 66 27 38
30 52 35 139 l5 97 270 5 c149 3 278 9 288 14 51 25 58 113 11 157 -26 24 -26
24 -299 27 l-273 3 -4 98 c-3 88 -6 102 -32 139 -17 26 -47 51 -79 67 -46 23
-62 25 -171 24 -67 0 -134 -5 -151 -11z"/>
<path d="M3636 4865 c-128 -45 -184 -230 -85 -281 45 -23 78 -17 115 20 19 19
34 43 34 55 0 20 5 21 90 21 l90 0 0 -230 0 -230 -89 0 -89 0 -7 29 c-10 45
-49 76 -97 76 -54 0 -98 -47 -98 -103 0 -57 43 -135 93 -168 41 -28 47 -29
183 -32 126 -3 146 -1 180 16 89 46 124 112 124 232 l0 80 115 0 c134 0 175
-12 205 -62 18 -31 20 -50 20 -265 l0 -233 -2110 0 -2110 0 0 233 c0 331 -4
327 290 327 105 0 189 4 201 10 24 13 49 61 49 96 0 16 -13 39 -35 61 l-35 35
-212 -4 c-193 -3 -217 -5 -260 -25 -66 -30 -133 -96 -165 -162 l-28 -56 0
-1645 0 -1645 26 -56 c33 -69 89 -127 155 -160 l49 -24 1453 -3 c994 -1 1459
1 1472 8 54 29 62 116 14 161 l-26 24 -1439 5 -1439 5 -32 33 -33 32 -3 1270
-2 1270 2110 0 2110 0 0 -715 c0 -768 -1 -758 49 -785 39 -20 91 -12 122 19
l29 29 0 1076 c0 1075 0 1075 -21 1133 -28 72 -94 144 -168 180 -52 26 -67 28
-203 32 l-148 3 0 82 c0 96 -19 146 -73 193 -20 18 -53 37 -74 42 -55 16 -250
13 -297 -4z"/>
<path d="M614 3100 c-47 -15 -69 -45 -69 -97 0 -37 5 -49 28 -69 28 -24 29
-24 258 -24 l231 0 29 29 c40 40 40 89 0 133 l-29 33 -209 2 c-114 1 -222 -2
-239 -7z"/>
<path d="M1608 3103 c-15 -2 -39 -18 -53 -34 -33 -40 -33 -88 1 -128 l26 -31
234 0 235 0 24 24 c36 36 42 73 19 115 -28 53 -60 60 -274 59 -102 -1 -197 -3
-212 -5z"/>
<path d="M2580 3097 c-49 -17 -76 -72 -60 -122 21 -63 28 -65 286 -65 l231 0
27 26 c55 55 23 152 -55 168 -56 11 -392 6 -429 -7z"/>
<path d="M3573 3099 c-73 -21 -97 -107 -44 -160 l29 -29 232 0 232 0 29 29
c54 55 29 139 -49 161 -45 12 -385 12 -429 -1z"/>
<path d="M610 2369 c-39 -16 -59 -39 -66 -74 -7 -37 15 -89 45 -105 12 -6 110
-10 246 -10 l227 0 29 29 c40 40 40 89 0 133 l-29 33 -214 2 c-127 1 -223 -2
-238 -8z"/>
<path d="M1586 2365 c-41 -22 -55 -44 -56 -88 0 -29 7 -45 29 -68 l29 -29 232
0 c231 0 231 0 255 24 47 47 43 112 -9 150 -25 19 -43 21 -239 24 -176 2 -217
0 -241 -13z"/>
<path d="M2573 2365 c-46 -20 -68 -68 -54 -116 20 -66 32 -69 285 -69 l224 0
31 26 c25 21 31 33 31 66 0 97 -30 108 -287 108 -146 -1 -206 -4 -230 -15z"/>
<path d="M3573 2373 c-12 -2 -34 -18 -48 -34 -35 -43 -34 -92 4 -130 l29 -29
231 0 c224 0 231 1 256 23 17 14 28 36 32 63 5 36 1 46 -25 75 l-30 34 -214 1
c-117 1 -223 0 -235 -3z"/>
<path d="M4085 2039 c-296 -43 -553 -234 -685 -510 -64 -136 -83 -220 -83
-384 0 -164 19 -248 83 -384 54 -113 113 -194 203 -277 305 -284 767 -322
1115 -90 94 62 226 204 281 300 171 301 157 671 -37 957 -190 282 -539 437
-877 388z m257 -203 c259 -50 461 -228 545 -481 24 -71 27 -95 27 -210 -1
-149 -21 -229 -89 -352 -50 -89 -169 -208 -258 -258 -124 -68 -203 -88 -352
-89 -120 0 -137 2 -218 31 -117 41 -187 84 -272 168 -283 277 -283 725 0 1000
83 81 155 127 253 161 127 44 241 53 364 30z"/>
<path d="M3770 1632 c-49 -24 -68 -77 -46 -124 24 -51 434 -454 468 -460 24
-4 213 39 310 71 73 24 100 100 57 155 -38 48 -59 50 -191 15 l-120 -32 -186
186 c-161 160 -218 207 -250 207 -4 0 -23 -8 -42 -18z"/>
<path d="M604 1640 c-30 -12 -64 -58 -64 -87 0 -32 26 -80 49 -93 12 -6 110
-10 246 -10 l227 0 29 29 c49 50 32 138 -32 160 -38 13 -423 14 -455 1z"/>
<path d="M1590 1639 c-65 -26 -81 -110 -31 -160 l29 -29 229 0 c201 0 231 2
249 18 52 41 55 109 8 153 -25 24 -28 24 -242 26 -128 1 -227 -2 -242 -8z"/>
<path d="M2568 1634 c-27 -14 -58 -60 -58 -84 0 -27 33 -78 56 -89 16 -7 102
-11 245 -11 l221 0 29 29 c48 49 38 125 -21 156 -42 22 -432 21 -472 -1z"/>
</g>
</svg>
