<?xml version="1.0" standalone="no"?>
<!DOCTYPE svg PUBLIC "-//W3C//DTD SVG 20010904//EN"
 "http://www.w3.org/TR/2001/REC-SVG-20010904/DTD/svg10.dtd">
<svg version="1.0" xmlns="http://www.w3.org/2000/svg"
 width="550.000000pt" height="150.000000pt" viewBox="0 0 550.000000 150.000000"
 preserveAspectRatio="xMidYMid meet">

<g transform="translate(0.000000,150.000000) scale(0.100000,-0.100000)"
fill="#000000" stroke="none">
<path d="M1520 745 c0 -620 2 -705 15 -705 13 0 15 85 15 705 0 620 -2 705
-15 705 -13 0 -15 -85 -15 -705z"/>
<path d="M655 1286 c-62 -20 -123 -54 -135 -75 -15 -29 -31 -323 -18 -338 6
-7 12 -30 15 -50 3 -22 16 -50 31 -66 15 -16 43 -60 62 -99 19 -39 47 -80 61
-91 29 -21 103 -33 143 -23 41 10 92 62 116 118 12 29 38 70 56 91 25 27 34
46 34 71 0 19 5 38 10 41 11 7 12 114 2 248 -7 83 -9 91 -39 117 -66 59 -239
88 -338 56z m210 -30 c72 -19 114 -43 125 -72 12 -30 13 -164 3 -164 -5 0 -43
11 -86 25 -91 29 -186 33 -267 9 -30 -8 -67 -18 -81 -21 l-26 -5 5 79 c5 87
10 96 64 124 76 39 176 49 263 25z m65 -250 l75 -24 3 -51 c4 -60 -3 -63 -88
-30 -79 30 -189 36 -270 14 -36 -10 -78 -20 -93 -23 l-28 -4 3 53 3 54 85 22
c104 28 199 25 310 -11z m-14 -138 c64 -23 69 -26 67 -52 -1 -16 -12 -35 -23
-43 -12 -9 -38 -49 -58 -90 -44 -93 -75 -116 -145 -110 -60 5 -80 24 -124 112
-19 39 -46 79 -60 90 -18 15 -24 28 -21 49 2 24 11 32 43 43 109 39 211 39
321 1z"/>
<path d="M684 1186 c-3 -8 -4 -29 -2 -48 l3 -33 79 -3 c85 -3 96 2 96 48 0 41
-18 50 -97 50 -54 0 -75 -4 -79 -14z m136 -42 c0 -12 -10 -14 -52 -12 -74 4
-77 28 -4 28 44 0 56 -3 56 -16z"/>
<path d="M4832 1090 c-44 -10 -70 -36 -78 -76 -9 -47 16 -81 80 -109 64 -28
84 -49 66 -70 -15 -18 -55 -19 -100 -3 -29 10 -35 9 -47 -8 -18 -25 -13 -36
28 -50 74 -27 164 -10 189 35 32 62 -1 120 -92 159 -82 36 -56 86 32 62 45
-12 55 -9 63 19 4 16 -2 22 -27 30 -54 16 -80 19 -114 11z"/>
<path d="M1850 974 c0 -137 -7 -157 -57 -152 -25 2 -39 -2 -47 -14 -17 -28 8
-43 69 -43 43 0 59 5 77 23 21 21 23 32 26 162 l4 140 -36 0 -36 0 0 -116z"/>
<path d="M1990 970 c0 -135 10 -169 60 -195 35 -18 99 -20 135 -3 46 21 59 61
63 196 l4 122 -41 0 -41 0 0 -123 c0 -132 -5 -147 -49 -147 -51 0 -55 10 -61
142 l-5 123 -32 3 -33 3 0 -121z"/>
<path d="M2332 933 c-29 -89 -48 -161 -43 -166 19 -19 56 -2 66 31 9 31 11 32
65 32 54 0 57 -1 71 -32 14 -33 52 -49 70 -31 5 5 -13 77 -42 166 l-50 157
-42 0 -42 0 -53 -157z m122 -15 c6 -27 5 -28 -29 -28 -40 0 -41 2 -18 78 l16
57 12 -40 c7 -22 15 -52 19 -67z"/>
<path d="M2620 926 l0 -166 30 0 30 0 0 123 0 122 53 -120 53 -120 40 0 39 0
3 163 3 163 -28 -3 -28 -3 -3 -120 -3 -120 -52 120 -52 120 -43 3 -42 3 0
-165z"/>
<path d="M3067 1033 c-3 -32 -9 -107 -13 -166 l-7 -108 34 3 34 3 6 113 c3 62
8 115 11 117 3 3 10 -20 17 -52 6 -32 16 -75 22 -96 10 -36 12 -38 47 -35 l37
3 20 80 c28 108 33 118 34 64 1 -25 4 -80 7 -122 7 -77 7 -77 36 -77 16 0 31
6 33 13 2 6 -1 80 -8 162 l-12 150 -50 0 -49 0 -23 -94 c-12 -51 -24 -95 -26
-97 -2 -2 -13 41 -26 96 l-22 100 -48 0 -48 0 -6 -57z"/>
<path d="M3521 1068 c-31 -81 -91 -290 -86 -298 3 -6 17 -10 30 -10 18 0 26 8
35 35 11 34 13 35 66 35 52 0 56 -2 65 -30 11 -31 37 -45 68 -35 17 5 15 16
-33 165 l-51 159 -43 1 c-35 0 -44 -4 -51 -22z m68 -110 c16 -66 15 -68 -25
-68 -30 0 -35 3 -29 18 3 9 11 38 17 65 13 54 21 51 37 -15z"/>
<path d="M3760 925 l0 -165 36 0 35 0 -3 120 c-2 65 0 116 3 112 3 -4 27 -58
54 -120 l48 -113 41 3 41 3 3 163 2 162 -24 0 c-42 0 -49 -21 -44 -134 2 -57
0 -102 -4 -100 -5 3 -8 9 -8 14 0 5 -21 57 -46 115 l-47 105 -43 0 -44 0 0
-165z"/>
<path d="M4100 925 l0 -165 35 0 35 0 0 165 0 165 -35 0 -35 0 0 -165z"/>
<path d="M4210 1060 c0 -29 2 -30 45 -30 l45 0 0 -135 0 -135 35 0 35 0 0 134
0 135 38 3 c32 3 37 7 40 31 l3 27 -120 0 -121 0 0 -30z"/>
<path d="M4535 1078 c-34 -91 -102 -308 -97 -312 3 -3 18 -6 33 -6 24 0 30 6
37 33 8 31 10 32 65 35 56 3 58 2 68 -28 12 -32 52 -51 71 -32 6 6 -7 60 -39
163 l-49 154 -42 3 c-28 2 -44 -1 -47 -10z m54 -95 c26 -100 27 -93 -13 -93
-20 0 -36 2 -36 5 0 10 33 125 36 125 2 0 8 -17 13 -37z"/>
<path d="M1016 711 c-52 -55 -51 -129 3 -185 17 -18 31 -40 31 -50 0 -16 -6
-18 -50 -12 -69 9 -79 14 -86 45 -10 46 -14 52 -25 45 -7 -4 -9 -22 -6 -46 5
-35 3 -40 -25 -54 -39 -20 -136 -21 -174 -1 -24 13 -29 22 -29 54 0 47 -17 55
-28 13 -9 -37 -25 -44 -140 -65 -115 -21 -133 -28 -157 -67 -17 -27 -70 -174
-70 -193 0 -3 227 -5 505 -5 397 0 505 3 505 12 0 33 -55 176 -76 199 -35 36
-32 88 5 128 52 56 52 126 1 182 -40 42 -64 36 -68 -19 -3 -37 -6 -42 -28 -42
-22 0 -24 4 -24 45 0 37 -3 45 -18 45 -10 0 -31 -13 -46 -29z m34 -61 l0 -41
58 3 57 3 5 39 c4 35 6 38 19 23 7 -10 14 -35 15 -57 1 -35 -5 -46 -37 -76
-29 -27 -37 -43 -37 -70 0 -19 -4 -34 -9 -34 -27 0 -41 15 -41 43 0 22 -10 39
-35 63 -28 25 -35 39 -35 69 0 39 15 75 30 75 6 0 10 -18 10 -40z m-391 -219
c66 -34 129 -37 200 -8 80 32 101 27 101 -24 l0 -39 -190 0 -190 0 0 39 c0 35
8 48 33 50 4 1 25 -8 46 -18z m-109 -51 l0 -50 220 0 220 0 0 50 c0 51 7 58
44 44 13 -5 16 -24 16 -105 l0 -99 -280 0 -280 0 0 98 c0 54 3 102 7 105 3 4
17 7 30 7 21 0 23 -4 23 -50z m-90 -60 l0 -100 -79 0 -80 0 16 53 c18 62 36
99 57 116 13 11 57 28 79 30 4 1 7 -44 7 -99z m716 56 c14 -22 54 -131 54
-148 0 -4 -34 -8 -75 -8 l-75 0 0 99 0 99 41 -10 c22 -6 47 -21 55 -32z"/>
<path d="M3206 614 c-5 -14 -4 -15 9 -4 17 14 19 20 6 20 -5 0 -12 -7 -15 -16z"/>
<path d="M1740 490 c0 -53 4 -90 10 -90 6 0 10 18 10 40 l0 40 50 0 50 0 0
-40 c0 -22 5 -40 10 -40 6 0 10 37 10 90 0 53 -4 90 -10 90 -5 0 -10 -18 -10
-40 l0 -40 -50 0 -50 0 0 40 c0 22 -4 40 -10 40 -6 0 -10 -37 -10 -90z"/>
<path d="M1991 499 c-17 -44 -31 -85 -31 -90 0 -20 20 -8 26 16 5 21 12 25 45
25 33 0 41 -4 49 -25 9 -25 36 -37 28 -12 -49 135 -63 167 -73 167 -7 0 -27
-36 -44 -81z m69 -16 c0 -8 -12 -13 -30 -13 l-30 0 15 36 c8 20 15 39 16 43 1
10 28 -53 29 -66z"/>
<path d="M2180 571 c0 -6 23 -11 52 -13 l51 -3 -56 -70 c-31 -38 -57 -73 -57
-77 0 -5 34 -8 76 -8 47 0 73 4 69 10 -3 6 -28 10 -56 10 -27 0 -49 3 -49 6 0
3 25 36 55 72 30 37 55 70 55 74 0 4 -31 8 -70 8 -38 0 -70 -4 -70 -9z"/>
<path d="M2390 490 l0 -90 55 0 c30 0 55 5 55 10 0 6 -20 10 -45 10 l-45 0 0
80 c0 47 -4 80 -10 80 -6 0 -10 -37 -10 -90z"/>
<path d="M2591 554 c-28 -36 -29 -106 -1 -134 27 -27 65 -35 101 -20 37 16 49
37 49 88 0 59 -30 92 -85 92 -35 0 -48 -5 -64 -26z m113 -16 c22 -31 20 -84
-4 -108 -43 -43 -110 -10 -110 53 0 48 24 77 65 77 24 0 39 -7 49 -22z"/>
<path d="M2940 490 c0 -53 4 -90 10 -90 6 0 10 18 10 40 l0 40 45 0 c25 0 45
5 45 10 0 6 -20 10 -45 10 -43 0 -45 1 -45 30 0 30 1 30 55 30 30 0 55 5 55
10 0 6 -28 10 -65 10 l-65 0 0 -90z"/>
<path d="M3162 496 c-35 -92 -36 -96 -22 -96 5 0 12 11 16 25 5 22 12 25 49
25 37 0 44 -3 49 -25 6 -22 26 -36 26 -18 0 23 -65 173 -75 173 -6 0 -26 -38
-43 -84z m68 -13 c0 -8 -12 -13 -29 -13 l-29 0 16 42 16 41 13 -29 c7 -16 12
-35 13 -41z"/>
<path d="M3371 554 c-23 -29 -27 -77 -11 -119 19 -51 105 -56 137 -9 22 35 6
45 -19 11 -55 -75 -146 24 -92 101 19 27 78 31 92 6 5 -9 15 -15 22 -12 10 3
8 10 -8 26 -33 33 -94 30 -121 -4z"/>
<path d="M3590 490 c0 -53 4 -90 10 -90 6 0 10 37 10 90 0 53 -4 90 -10 90 -6
0 -10 -37 -10 -90z"/>
<path d="M3700 490 l0 -90 60 0 c33 0 60 4 60 10 0 6 -20 10 -45 10 l-45 0 0
80 c0 64 -3 80 -15 80 -12 0 -15 -17 -15 -90z"/>
</g>
</svg>
