<?xml version="1.0" standalone="no"?>
<!DOCTYPE svg PUBLIC "-//W3C//DTD SVG 20010904//EN"
 "http://www.w3.org/TR/2001/REC-SVG-20010904/DTD/svg10.dtd">
<svg version="1.0" xmlns="http://www.w3.org/2000/svg"
 width="364.000000pt" height="321.000000pt" viewBox="0 0 364.000000 321.000000"
 preserveAspectRatio="xMidYMid meet">

<g transform="translate(0.000000,321.000000) scale(0.100000,-0.100000)"
fill="#000000" stroke="none">
<path d="M834 3108 c-31 -15 -34 -42 -34 -310 0 -200 -3 -244 -16 -270 -19
-37 -125 -182 -136 -186 -4 -2 -8 -10 -8 -17 0 -7 -3 -15 -8 -17 -4 -1 -26
-33 -50 -69 -24 -37 -52 -75 -62 -84 -11 -10 -20 -23 -20 -28 0 -6 -11 -24
-24 -41 -13 -17 -67 -94 -121 -171 -53 -77 -101 -141 -106 -143 -5 -2 -9 -8
-9 -12 0 -5 -18 -35 -40 -66 -22 -32 -40 -67 -40 -79 0 -37 40 -65 92 -65 86
0 78 54 78 -560 l0 -548 -43 -25 c-54 -32 -92 -73 -111 -119 -22 -52 -21 -95
3 -108 30 -16 3263 -14 3279 2 7 7 12 43 12 89 0 75 -1 79 -35 115 l-35 37 2
551 3 551 30 3 c17 2 45 15 63 28 31 25 32 27 32 104 l0 80 -91 127 c-103 144
-147 203 -234 315 -33 42 -70 92 -83 110 -83 120 -251 342 -295 389 -28 31
-65 70 -80 88 l-28 31 -775 0 -774 0 0 130 c0 126 -1 132 -25 155 -23 24 -29
25 -157 24 -73 0 -143 -5 -154 -11z m460 -1689 l26 -20 0 -269 c0 -226 -2
-269 -15 -280 -10 -9 -59 -13 -155 -14 -121 -1 -141 1 -157 17 -16 16 -18 43
-21 268 -3 177 0 260 8 279 14 34 25 36 181 38 94 2 109 0 133 -19z m414 5
c22 -15 22 -17 22 -288 0 -242 -2 -275 -17 -287 -21 -18 -232 -26 -283 -10
-48 14 -50 23 -50 319 l0 233 25 24 c23 24 30 25 152 25 100 0 133 -3 151 -16z
m992 -20 c80 -16 149 -84 169 -166 16 -66 15 -738 -1 -773 l-11 -25 -248 0
c-226 0 -247 1 -254 18 -4 9 -6 190 -6 401 2 325 4 390 17 417 21 44 96 112
131 119 15 4 37 10 48 15 21 10 94 7 155 -6z"/>
</g>
</svg>
