<?xml version="1.0" standalone="no"?>
<!DOCTYPE svg PUBLIC "-//W3C//DTD SVG 20010904//EN"
 "http://www.w3.org/TR/2001/REC-SVG-20010904/DTD/svg10.dtd">
<svg version="1.0" xmlns="http://www.w3.org/2000/svg"
 width="102.000000pt" height="114.000000pt" viewBox="0 0 102.000000 114.000000"
 preserveAspectRatio="xMidYMid meet">

<g transform="translate(0.000000,114.000000) scale(0.100000,-0.100000)"
fill="#000000" stroke="none">
<path d="M395 1116 c-62 -20 -123 -54 -135 -75 -15 -29 -31 -323 -18 -338 6
-7 12 -30 15 -50 3 -22 16 -50 31 -66 15 -16 43 -60 62 -99 19 -39 47 -80 61
-91 29 -21 103 -33 143 -23 41 10 92 62 116 118 12 29 38 70 56 91 25 27 34
46 34 71 0 19 5 38 10 41 11 7 12 114 2 248 -7 83 -9 91 -39 117 -66 59 -239
88 -338 56z m210 -30 c72 -19 114 -43 125 -72 12 -30 13 -164 3 -164 -5 0 -43
11 -86 25 -91 29 -186 33 -267 9 -30 -8 -67 -18 -81 -21 l-26 -5 5 79 c5 87
10 96 64 124 76 39 176 49 263 25z m65 -250 l75 -24 3 -51 c4 -60 -3 -63 -88
-30 -79 30 -189 36 -270 14 -36 -10 -78 -20 -93 -23 l-28 -4 3 53 3 54 85 22
c104 28 199 25 310 -11z m-14 -138 c64 -23 69 -26 67 -52 -1 -16 -12 -35 -23
-43 -12 -9 -38 -49 -58 -90 -44 -93 -75 -116 -145 -110 -60 5 -80 24 -124 112
-19 39 -46 79 -60 90 -18 15 -24 28 -21 49 2 24 11 32 43 43 109 39 211 39
321 1z"/>
<path d="M424 1016 c-3 -8 -4 -29 -2 -48 l3 -33 79 -3 c85 -3 96 2 96 48 0 41
-18 50 -97 50 -54 0 -75 -4 -79 -14z m136 -42 c0 -12 -10 -14 -52 -12 -74 4
-77 28 -4 28 44 0 56 -3 56 -16z"/>
<path d="M756 541 c-52 -55 -51 -129 3 -185 17 -18 31 -40 31 -50 0 -16 -6
-18 -50 -12 -69 9 -79 14 -86 45 -10 46 -14 52 -25 45 -7 -4 -9 -22 -6 -46 5
-35 3 -40 -25 -54 -39 -20 -136 -21 -174 -1 -24 13 -29 22 -29 54 0 47 -17 55
-28 13 -9 -37 -25 -44 -140 -65 -115 -21 -133 -28 -157 -67 -17 -27 -70 -174
-70 -193 0 -3 227 -5 505 -5 397 0 505 3 505 12 0 33 -55 176 -76 199 -35 36
-32 88 5 128 52 56 52 126 1 182 -40 42 -64 36 -68 -19 -3 -37 -6 -42 -28 -42
-22 0 -24 4 -24 45 0 37 -3 45 -18 45 -10 0 -31 -13 -46 -29z m34 -61 l0 -41
58 3 57 3 5 39 c4 35 6 38 19 23 7 -10 14 -35 15 -57 1 -35 -5 -46 -37 -76
-29 -27 -37 -43 -37 -70 0 -19 -4 -34 -9 -34 -27 0 -41 15 -41 43 0 22 -10 39
-35 63 -28 25 -35 39 -35 69 0 39 15 75 30 75 6 0 10 -18 10 -40z m-391 -219
c66 -34 129 -37 200 -8 80 32 101 27 101 -24 l0 -39 -190 0 -190 0 0 39 c0 35
8 48 33 50 4 1 25 -8 46 -18z m-109 -51 l0 -50 220 0 220 0 0 50 c0 51 7 58
44 44 13 -5 16 -24 16 -105 l0 -99 -280 0 -280 0 0 98 c0 54 3 102 7 105 3 4
17 7 30 7 21 0 23 -4 23 -50z m-90 -60 l0 -100 -79 0 -80 0 16 53 c18 62 36
99 57 116 13 11 57 28 79 30 4 1 7 -44 7 -99z m716 56 c14 -22 54 -131 54
-148 0 -4 -34 -8 -75 -8 l-75 0 0 99 0 99 41 -10 c22 -6 47 -21 55 -32z"/>
</g>
</svg>
