<?xml version="1.0" standalone="no"?>
<!DOCTYPE svg PUBLIC "-//W3C//DTD SVG 20010904//EN"
 "http://www.w3.org/TR/2001/REC-SVG-20010904/DTD/svg10.dtd">
<svg version="1.0" xmlns="http://www.w3.org/2000/svg"
 width="764.000000pt" height="764.000000pt" viewBox="0 0 764.000000 764.000000"
 preserveAspectRatio="xMidYMid meet">
<metadata>
Created by potrace 1.14, written by Peter Selinger 2001-2017
</metadata>
<g transform="translate(0.000000,764.000000) scale(0.100000,-0.100000)"
fill="#000000" stroke="none">
<path d="M3360 5611 l0 -118 -35 -49 c-154 -215 -229 -324 -237 -345 -9 -22
10 -39 44 -39 l28 0 0 -228 0 -228 -35 -34 c-37 -36 -46 -74 -19 -84 9 -3 321
-6 694 -6 638 0 680 1 689 18 11 22 3 68 -15 83 -11 9 -14 58 -14 245 0 219 1
234 18 234 10 0 23 5 30 12 13 13 17 84 4 90 -4 2 -30 34 -57 72 -28 38 -61
83 -75 100 -14 17 -64 84 -110 148 l-85 118 -332 0 -333 0 0 59 c0 69 -3 71
-96 71 l-64 0 0 -119z m383 -600 c4 -1 7 -55 7 -121 l0 -120 -70 0 -70 0 0
119 c0 78 4 121 11 123 9 3 98 2 122 -1z m-168 -121 l0 -115 -67 -3 -68 -3 0
121 0 121 68 -3 67 -3 0 -115z m630 90 c26 -22 34 -82 31 -225 -2 -77 -4 -143
-5 -147 -1 -5 -48 -8 -106 -8 l-105 0 0 169 c0 155 2 170 21 195 34 43 121 52
164 16z"/>
<path d="M4785 4319 c-167 -24 -309 -155 -344 -317 -55 -259 66 -478 299 -541
41 -12 91 -21 112 -21 60 0 174 28 226 55 244 128 299 489 105 696 -61 65
-132 104 -225 123 -84 17 -86 18 -173 5z m202 -245 c61 -49 87 -106 87 -189 0
-141 -80 -228 -209 -228 -130 0 -215 90 -215 228 0 92 40 165 110 203 38 20
56 23 117 20 62 -3 76 -7 110 -34z"/>
<path d="M1660 4308 c-14 -6 -50 -22 -80 -35 -79 -34 -168 -129 -200 -213 -21
-56 -25 -81 -25 -180 0 -109 2 -119 32 -183 106 -223 383 -312 606 -194 127
67 197 198 197 372 l0 64 -32 6 c-18 3 -109 5 -203 3 l-170 -3 -3 -92 -3 -93
91 0 c51 0 90 -4 90 -10 0 -5 -13 -24 -30 -43 -45 -51 -129 -70 -212 -47 -184
51 -199 372 -21 446 42 18 134 18 176 0 18 -7 47 -29 64 -50 l32 -36 101 0
c117 0 118 1 70 98 -37 72 -87 120 -172 163 -58 30 -72 33 -173 36 -69 2 -119
-1 -135 -9z"/>
<path d="M2732 4253 c-17 -38 -49 -108 -72 -158 -54 -116 -78 -168 -105 -230
-13 -27 -42 -90 -65 -140 -91 -194 -110 -237 -110 -251 0 -11 21 -14 108 -14
l108 0 23 55 23 55 168 0 169 0 25 -55 25 -55 105 0 c127 0 125 -4 62 131 -24
52 -84 182 -134 289 -78 170 -132 286 -189 408 -14 29 -19 32 -63 32 l-47 0
-31 -67z m168 -490 c0 -10 -25 -13 -91 -13 -107 0 -105 -8 -38 136 l40 89 44
-100 c25 -55 45 -106 45 -112z"/>
<path d="M3490 3885 l0 -425 105 0 105 0 0 125 0 125 65 0 c42 0 65 -4 65 -11
0 -6 30 -63 68 -125 l67 -114 123 0 c95 0 122 3 122 13 0 8 -38 74 -84 148
l-83 134 38 41 c49 55 65 87 78 160 21 112 -16 216 -101 288 -67 58 -111 66
-355 66 l-213 0 0 -425z m436 202 c34 -40 34 -114 0 -150 -31 -33 -54 -39
-146 -35 l-75 3 -3 108 -3 109 102 -4 c96 -3 102 -4 125 -31z"/>
<path d="M5532 4292 c3 -10 60 -100 127 -199 l121 -181 -140 -213 c-77 -117
-140 -219 -140 -226 0 -11 25 -13 117 -11 l117 3 80 132 c45 73 83 133 86 133
3 -1 41 -61 85 -135 l80 -135 113 0 c96 0 112 2 112 16 0 15 -69 126 -207 333
-35 51 -63 97 -63 102 0 4 54 89 120 189 66 99 120 187 120 195 0 12 -19 15
-108 15 l-108 0 -70 -110 c-38 -60 -72 -108 -77 -107 -7 2 -44 58 -107 165
l-31 52 -116 0 c-106 0 -115 -1 -111 -18z"/>
<path d="M10 3139 l0 -190 38 3 37 3 3 188 2 187 -40 0 -40 0 0 -191z"/>
<path d="M180 3140 l0 -190 36 0 36 0 -4 145 c-2 79 0 141 3 137 11 -11 119
-204 137 -244 16 -37 19 -38 70 -38 l52 0 0 190 0 190 -36 0 -36 0 4 -140 c1
-77 1 -140 -2 -140 -3 0 -14 17 -25 38 -11 20 -30 54 -43 75 -13 22 -35 60
-49 85 -47 84 -44 82 -95 82 l-48 0 0 -190z"/>
<path d="M664 3320 c-32 -13 -64 -59 -64 -92 0 -44 31 -81 99 -117 53 -28 61
-36 61 -61 0 -37 -34 -48 -97 -32 -65 18 -70 16 -65 -19 5 -37 31 -49 105 -49
84 0 137 44 137 115 0 34 -40 76 -104 108 -49 25 -56 32 -56 58 0 36 31 46 92
31 23 -6 43 -10 44 -9 1 1 5 14 9 29 6 24 3 29 -20 38 -31 12 -112 12 -141 0z"/>
<path d="M870 3295 l0 -35 55 0 55 0 -3 -155 -2 -155 38 0 37 0 0 154 0 155
52 3 c41 2 52 7 54 22 6 44 -1 46 -147 46 l-139 0 0 -35z"/>
<path d="M1278 3253 c-14 -43 -44 -129 -66 -190 l-40 -113 43 0 c42 0 43 1 55
45 l13 45 72 0 73 0 11 -45 c11 -44 12 -45 51 -45 22 0 40 2 40 4 0 4 -32 99
-104 306 l-23 65 -49 3 -50 3 -26 -78z m122 -138 c0 -6 -20 -10 -45 -10 -53 0
-54 3 -23 101 l21 69 24 -75 c12 -41 23 -80 23 -85z"/>
<path d="M1580 3140 l0 -190 116 0 115 0 -3 32 -3 31 -72 -2 -73 -2 0 160 0
161 -40 0 -40 0 0 -190z"/>
<path d="M1907 3168 c-87 -244 -83 -218 -32 -218 42 0 43 0 54 45 l12 46 71
-3 72 -3 12 -40 c10 -38 13 -40 52 -43 24 -2 42 1 42 7 0 5 -27 85 -60 176
-33 91 -60 173 -60 181 0 10 -13 14 -53 14 l-52 0 -58 -162z m153 -49 c0 -7
-89 -17 -95 -11 -2 2 0 14 5 25 5 12 17 49 26 82 l18 60 23 -75 c12 -41 23
-78 23 -81z"/>
<path d="M2326 3315 c-105 -55 -128 -229 -42 -323 31 -34 36 -35 112 -39 43
-2 84 0 90 4 7 4 14 22 15 38 3 25 1 30 -16 27 -100 -15 -110 -14 -136 10 -53
50 -46 178 13 221 26 19 32 20 79 8 27 -7 52 -11 54 -9 3 3 8 18 11 35 5 26 2
31 -18 36 -42 12 -133 7 -162 -8z"/>
<path d="M2590 3140 l0 -190 40 0 40 0 0 190 0 190 -40 0 -40 0 0 -190z"/>
<path d="M2831 3313 c-18 -9 -45 -34 -59 -56 -23 -34 -27 -51 -27 -117 0 -67
3 -81 28 -119 37 -55 82 -74 164 -69 73 5 106 24 141 84 20 34 22 50 19 116
-3 65 -8 82 -31 112 -15 20 -40 43 -56 51 -39 20 -136 19 -179 -2z m154 -67
c45 -45 45 -161 0 -210 -31 -34 -83 -35 -121 -3 -49 43 -50 181 -1 219 33 26
93 23 122 -6z"/>
<path d="M3190 3140 l0 -190 36 0 36 0 -4 140 c-1 77 -1 140 2 140 3 0 41 -63
84 -140 l79 -140 49 0 48 0 0 190 0 190 -36 0 -36 0 4 -140 c2 -77 2 -140 1
-140 -1 0 -39 63 -85 140 l-82 140 -48 0 -48 0 0 -190z"/>
<path d="M3620 3140 l0 -190 111 0 110 0 -3 33 -3 32 -67 0 -68 -1 0 53 0 53
63 0 62 0 1 30 2 30 -64 0 -64 0 0 40 c0 31 4 40 18 41 9 0 40 1 67 2 49 2 50
3 53 35 l3 32 -110 0 -111 0 0 -190z"/>
<path d="M3948 3313 c-50 -31 -62 -95 -28 -144 12 -15 48 -43 80 -60 52 -27
60 -36 60 -60 0 -36 -35 -47 -96 -31 -71 19 -69 20 -67 -17 1 -19 8 -38 15
-43 7 -5 48 -7 91 -6 75 3 80 5 108 36 58 65 28 135 -83 191 -36 18 -48 29
-48 46 0 44 36 53 115 30 16 -5 23 0 32 24 10 28 9 30 -20 40 -45 16 -128 13
-159 -6z"/>
<path d="M4328 3278 c105 -189 102 -182 102 -257 l0 -71 38 0 37 0 -3 65 c-3
61 -1 72 39 148 23 45 53 101 66 125 l25 42 -44 0 -43 0 -40 -81 -39 -81 -40
81 -40 81 -44 0 -43 0 29 -52z"/>
<path d="M4820 3140 l0 -190 40 0 40 0 0 75 c0 72 1 75 22 71 16 -2 36 -25 66
-74 43 -72 44 -72 87 -72 l44 0 -55 81 -55 82 31 26 c41 34 50 92 22 137 -24
37 -78 54 -176 54 l-66 0 0 -190z m168 108 c36 -29 -4 -88 -60 -88 -27 0 -28
2 -28 53 l0 53 38 -4 c20 -2 43 -9 50 -14z"/>
<path d="M5170 3140 l0 -190 108 0 109 0 -5 30 c-5 35 -29 45 -92 37 l-40 -4
0 53 0 54 63 0 62 0 0 30 1 30 -63 0 -63 0 0 40 0 40 65 0 65 0 0 35 0 35
-105 0 -105 0 0 -190z"/>
<path d="M5460 3140 l0 -190 41 0 41 0 -4 75 -3 75 66 0 66 0 -5 30 c-4 28 -6
29 -64 32 l-61 3 -1 48 -1 47 40 1 c101 3 97 1 100 37 l3 32 -109 0 -109 0 0
-190z"/>
<path d="M5830 3312 c-119 -60 -119 -284 0 -344 22 -11 58 -18 96 -18 76 0
119 26 152 90 20 39 23 55 18 119 -5 82 -20 110 -76 149 -42 28 -138 31 -190
4z m155 -66 c45 -45 45 -167 0 -212 -32 -32 -85 -32 -121 -1 -50 43 -50 171 0
214 37 31 89 31 121 -1z"/>
<path d="M6180 3141 l0 -191 40 0 40 0 0 75 c0 72 1 75 24 75 14 0 27 -8 31
-17 3 -10 23 -44 43 -75 35 -55 39 -58 79 -58 l42 0 -56 82 -55 81 30 23 c56
44 50 133 -11 169 -23 14 -57 20 -119 23 l-88 4 0 -191z m168 107 c7 -7 12
-24 12 -40 0 -31 -24 -48 -68 -48 -29 0 -30 2 -34 50 l-3 50 41 0 c22 0 45 -5
52 -12z"/>
<path d="M6530 3140 l0 -190 36 0 37 0 -5 145 c-4 139 2 184 16 111 4 -19 22
-85 42 -145 l35 -111 34 0 c19 0 35 1 35 3 0 1 22 67 49 147 l49 145 1 -147 1
-148 35 0 35 0 0 190 0 190 -53 0 -54 0 -42 -137 c-24 -76 -46 -142 -50 -146
-4 -4 -28 58 -52 138 l-44 145 -52 0 -53 0 0 -190z"/>
<path d="M7058 3167 c-80 -230 -78 -217 -31 -217 37 0 39 2 52 45 l13 45 72 0
72 0 13 -45 c13 -43 15 -45 52 -45 21 0 39 3 39 6 0 4 -27 84 -61 178 -33 94
-62 177 -64 184 -3 7 -23 12 -52 12 l-48 0 -57 -163z m152 -52 c0 -6 -19 -9
-45 -7 -25 2 -45 9 -45 15 0 6 10 43 22 81 l22 69 23 -74 c12 -41 23 -79 23
-84z"/>
<path d="M7420 3303 c-41 -37 -50 -91 -22 -130 11 -15 47 -43 81 -62 52 -30
61 -39 61 -63 0 -41 -47 -49 -137 -22 -20 6 -23 3 -23 -25 0 -38 26 -51 103
-51 84 0 137 44 137 114 0 35 -35 72 -100 107 -52 27 -60 36 -60 60 0 36 32
46 92 31 23 -6 43 -10 44 -9 1 1 5 14 9 29 6 24 3 29 -20 38 -14 5 -51 10 -80
10 -46 0 -60 -5 -85 -27z"/>
</g>
</svg>
